<svg width="135" height="48" viewBox="0 0 135 48" xmlns="http://www.w3.org/2000/svg">
<path fill-rule="evenodd" clip-rule="evenodd" d="M19.0385 23.5062V22.786C20.0986 21.8296 20.7671 20.4436 20.7671 18.8987V12.5885C20.7671 8.86329 17.7642 5.84311 14.0603 5.84311H0V42.3998H16.4423C20.2662 42.3998 23.3654 39.2827 23.3654 35.4368V29.3442C23.3654 26.584 21.5405 24.2558 19.0385 23.5062ZM5.19231 11.0664H12.9808C14.4141 11.0664 15.5769 12.236 15.5769 13.6775V18.8998C15.5769 20.3413 14.4141 21.5109 12.9808 21.5109H5.19231V11.0664ZM18.1731 34.5664C18.1731 36.008 17.0102 37.1775 15.5769 37.1775H5.19231V26.7331H15.5769C17.0102 26.7331 18.1731 27.9026 18.1731 29.3442V34.5664ZM31.1538 5.8442H25.9615V11.0664H31.1538V5.8442ZM46.7308 16.2886V21.5109H41.5385V37.1775H46.7308V42.3998H36.3462V21.5109H31.1538V42.3998H25.9615V16.2886H36.3462V5.8442H41.5385V16.2886H46.7308Z" fill="currentColor"/>
<path fill-rule="evenodd" clip-rule="evenodd" d="M111.635 47.7276H75.2885C62.3834 47.7276 51.9231 37.1831 51.9231 24.1742C51.9231 11.1654 62.3834 0.62088 75.2885 0.62088H111.635C124.54 0.62088 135 11.1654 135 24.1742C135 37.1831 124.54 47.7276 111.635 47.7276Z" fill="#ADFF00"/>
<path fill-rule="evenodd" clip-rule="evenodd" d="M114.813 11.8269C118.139 11.8269 120.862 13.0363 122.692 15.3068C124.4 17.4404 125.315 20.4298 125.315 23.9667C125.315 27.538 124.411 30.5957 122.692 32.8092C120.84 35.2052 118.117 36.4717 114.813 36.4717C111.51 36.4717 108.787 35.2052 106.934 32.8092C105.216 30.5957 104.312 27.538 104.312 23.9667C104.312 20.4298 105.216 17.429 106.934 15.3068C108.765 13.0249 111.488 11.8269 114.813 11.8269ZM114.813 34.2012C116.789 34.2012 118.418 33.2998 119.534 31.6112C120.706 29.8313 121.297 27.2527 121.297 23.9782C121.297 20.715 120.706 18.2049 119.534 16.5277C118.429 14.9417 116.844 14.1316 114.813 14.1316C112.782 14.1316 111.197 14.9303 110.093 16.5277C108.921 18.2163 108.329 20.715 108.329 23.9782C108.329 27.2641 108.921 29.8313 110.093 31.6112C111.209 33.3112 112.838 34.2012 114.813 34.2012ZM80.0055 15.1669C77.8973 13.2161 74.8533 12.2181 70.9639 12.2181H63.1962C63.1286 12.2181 63.0835 12.2748 63.0835 12.3315V13.2955C63.0835 13.3636 63.1399 13.4089 63.1962 13.4089C64.6393 13.4089 65.1015 13.7832 65.1015 14.9287V33.3699C65.1015 34.5154 64.6393 34.8896 63.1962 34.8896C63.1286 34.8896 63.0835 34.9464 63.0835 35.0031V35.9671C63.0835 36.0351 63.1399 36.0805 63.1962 36.0805H70.9639C74.8421 36.0805 77.886 35.0598 80.0167 33.041C82.2039 30.9655 83.3087 27.9487 83.3087 24.0472C83.2974 20.1798 82.1926 17.1857 80.0055 15.1669ZM79.2389 24.0586C79.2389 27.4723 78.5286 29.8994 77.0743 31.4872C75.6538 33.0296 73.5118 33.7782 70.5129 33.7782H69.0022V14.5318H70.5129C73.523 14.5318 75.6651 15.2463 77.0743 16.732C78.5286 18.2631 79.2389 20.6675 79.2389 24.0586ZM105.694 34.8896C104.168 34.8896 103.208 34.6515 102.838 33.4493L96.3159 12.2975C96.3043 12.2521 96.2465 12.2181 96.2003 12.2181H87.5043C87.4349 12.2181 87.3771 12.2748 87.3771 12.3315V13.2955C87.3771 13.3636 87.4349 13.4089 87.5043 13.4089C88.9035 13.4089 89.8286 13.4883 90.1293 13.8513C90.2912 14.0441 90.2912 14.3389 90.1524 14.7813L84.3474 33.4493C83.9774 34.6515 83.0176 34.8896 81.4912 34.8896C81.4565 34.8896 81.4218 34.901 81.3987 34.9237C81.3755 34.9464 81.364 34.9804 81.364 35.0031V35.9671C81.364 36.0351 81.4218 36.0805 81.4912 36.0805H90.1524C90.2218 36.0805 90.2796 36.0238 90.2796 35.9671V35.0031C90.2796 34.935 90.2218 34.8896 90.1524 34.8896C88.7532 34.8896 87.8281 34.8103 87.5274 34.4473C87.3656 34.2545 87.3656 33.9597 87.5043 33.5173L88.811 29.2643H97.2873L98.594 33.5173C98.7327 33.9597 98.7212 34.2545 98.5708 34.4473C98.2702 34.8103 97.3451 34.8896 95.9459 34.8896C95.8765 34.8896 95.8187 34.9464 95.8187 35.0031V35.9671C95.8187 36.0351 95.8765 36.0805 95.9459 36.0805H105.74C105.81 36.0805 105.868 36.0238 105.868 35.9671V35.0031C105.868 34.969 105.856 34.9464 105.833 34.9237C105.763 34.901 105.729 34.8896 105.694 34.8896ZM96.5472 26.9506H89.5048L93.0434 15.5752L96.5472 26.9506Z" fill="rgba(0,0,0,1)"/>
</svg>
