<svg width="280" height="51" viewBox="0 0 280 51" fill="none" xmlns="http://www.w3.org/2000/svg">
<g clip-path="url(#clip0_37_253)">
<path d="M120.291 39.1207V11.8545C120.291 11.7351 120.338 11.6206 120.423 11.5361C120.507 11.4517 120.622 11.4042 120.741 11.4042H141.41C141.468 11.4042 141.527 11.4159 141.581 11.4386C141.636 11.4613 141.685 11.4945 141.727 11.5364C141.768 11.5782 141.801 11.6279 141.823 11.6825C141.845 11.7371 141.856 11.7956 141.856 11.8545V17.5116C141.856 17.5705 141.845 17.629 141.823 17.6836C141.801 17.7382 141.768 17.7879 141.727 17.8297C141.685 17.8716 141.636 17.9048 141.581 17.9275C141.527 17.9502 141.468 17.9619 141.41 17.9619H128.461C128.341 17.9619 128.227 18.0093 128.142 18.0937C128.058 18.1782 128.01 18.2927 128.01 18.4121V21.253C128.01 21.3724 128.058 21.4869 128.142 21.5714C128.227 21.6558 128.341 21.7032 128.461 21.7032H135.893C136.013 21.7032 136.127 21.7507 136.212 21.8351C136.296 21.9196 136.344 22.0341 136.344 22.1535V27.7205C136.344 27.84 136.296 27.9545 136.212 28.0389C136.127 28.1234 136.013 28.1708 135.893 28.1708H128.461C128.341 28.1708 128.227 28.2182 128.142 28.3027C128.058 28.3871 128.01 28.5017 128.01 28.6211V32.5507C128.01 32.6702 128.058 32.7847 128.142 32.8691C128.227 32.9536 128.341 33.001 128.461 33.001H141.688C141.807 33.001 141.922 33.0485 142.006 33.1329C142.091 33.2173 142.138 33.3319 142.138 33.4513V39.1084C142.138 39.2278 142.091 39.3423 142.006 39.4268C141.922 39.5112 141.807 39.5587 141.688 39.5587H120.729C120.614 39.5555 120.504 39.5084 120.423 39.4269C120.341 39.3455 120.294 39.2358 120.291 39.1207Z" fill="#70BF7B"/>
<path d="M156.926 39.1329V38.0932C156.256 38.6342 155.526 39.097 154.751 39.4727C153.864 39.8599 152.902 40.0445 151.934 40.013C150.982 40.0223 150.04 39.8166 149.178 39.4113C148.286 38.9679 147.523 38.3025 146.963 37.4792C146.265 36.444 145.76 35.2918 145.472 34.0776C145.082 32.4368 144.9 30.7534 144.931 29.0672C144.931 25.2604 145.567 22.4646 146.84 20.6799C147.437 19.8167 148.244 19.1187 149.184 18.6506C150.124 18.1826 151.167 17.9597 152.217 18.0028C153.155 17.9724 154.088 18.172 154.932 18.584C155.631 18.9454 156.298 19.3659 156.926 19.8407V13.4345C156.928 13.3461 156.955 13.2601 157.006 13.1873C157.056 13.1145 157.126 13.0582 157.209 13.0252L163.597 10.4914C163.664 10.464 163.737 10.4536 163.81 10.4609C163.882 10.4682 163.952 10.4932 164.012 10.5336C164.073 10.5739 164.123 10.6285 164.157 10.6925C164.192 10.7565 164.211 10.828 164.211 10.9007V39.1452C164.211 39.2646 164.164 39.3792 164.079 39.4636C163.995 39.548 163.88 39.5955 163.761 39.5955H157.381C157.32 39.596 157.26 39.5844 157.204 39.5613C157.148 39.5381 157.097 39.5039 157.055 39.4608C157.012 39.4176 156.979 39.3663 156.957 39.31C156.935 39.2536 156.924 39.1934 156.926 39.1329ZM156.926 25.154C156.926 25.0846 156.91 25.0161 156.879 24.9542C156.848 24.8923 156.802 24.8387 156.746 24.7978C156.443 24.5682 156.12 24.3681 155.779 24.2002C155.33 24 154.842 23.9035 154.35 23.9178C154.01 23.9109 153.673 23.9808 153.363 24.1224C153.049 24.2896 152.795 24.5517 152.638 24.8715C152.405 25.3428 152.255 25.8512 152.196 26.3738C152.09 27.188 152.042 28.0088 152.053 28.8298C152.043 29.7039 152.091 30.5777 152.196 31.4455C152.252 32.0121 152.401 32.5654 152.638 33.0829C152.794 33.428 153.055 33.7147 153.384 33.9016C153.698 34.0531 154.043 34.1289 154.391 34.1226C154.869 34.1348 155.344 34.0382 155.779 33.8402C156.12 33.6713 156.445 33.4727 156.75 33.2466C156.805 33.2038 156.849 33.1492 156.879 33.0868C156.91 33.0244 156.926 32.9558 156.926 32.8864V25.154Z" fill="#69B98A"/>
<path d="M180.678 39.1207V38.1628C180.004 38.6886 179.266 39.1273 178.483 39.4686C177.503 39.858 176.453 40.0392 175.399 40.0007C173.065 40.0007 171.341 39.2571 170.227 37.7698C169.113 36.2826 168.556 34.1431 168.556 31.3514V18.8952C168.556 18.7757 168.604 18.6612 168.688 18.5768C168.773 18.4923 168.887 18.4449 169.007 18.4449H175.399C175.519 18.4449 175.633 18.4923 175.718 18.5768C175.802 18.6612 175.85 18.7757 175.85 18.8952V30.4386C175.85 31.803 176.064 32.7213 176.493 33.1934C176.72 33.432 176.996 33.6185 177.302 33.7401C177.608 33.8616 177.937 33.9153 178.266 33.8975C178.592 33.9147 178.918 33.8627 179.223 33.7448C179.528 33.627 179.805 33.4461 180.035 33.2139C180.444 32.7554 180.682 31.859 180.682 30.5163V18.8952C180.681 18.8362 180.692 18.7778 180.715 18.7232C180.737 18.6686 180.77 18.6189 180.811 18.577C180.853 18.5351 180.902 18.5019 180.956 18.4792C181.011 18.4566 181.069 18.4449 181.128 18.4449H187.517C187.636 18.4449 187.751 18.4923 187.835 18.5768C187.92 18.6612 187.967 18.7757 187.967 18.8952V39.1207C187.967 39.2401 187.92 39.3546 187.835 39.4391C187.751 39.5235 187.636 39.5709 187.517 39.5709H181.132C181.073 39.572 181.013 39.5612 180.958 39.539C180.903 39.5168 180.852 39.4837 180.81 39.4418C180.767 39.3998 180.734 39.3497 180.711 39.2946C180.689 39.2394 180.677 39.1803 180.678 39.1207Z" fill="#63B298"/>
<path d="M219.843 25.3259C219.903 27.5981 219.576 29.8638 218.877 32.0268C218.313 33.7165 217.314 35.2283 215.982 36.4108C214.599 37.5728 212.966 38.3994 211.211 38.8259C209.056 39.3527 206.844 39.603 204.626 39.5709H195.94C195.821 39.5709 195.706 39.5235 195.622 39.439C195.537 39.3546 195.49 39.2401 195.49 39.1207V11.8545C195.49 11.7351 195.537 11.6205 195.622 11.5361C195.706 11.4517 195.821 11.4042 195.94 11.4042H205.359C207.379 11.3837 209.394 11.6133 211.358 12.0878C213.043 12.4879 214.609 13.2804 215.928 14.4006C217.231 15.5706 218.227 17.0422 218.828 18.6864C219.508 20.4602 219.846 22.6734 219.843 25.3259ZM211.833 25.4487C211.851 24.3256 211.736 23.2044 211.489 22.1085C211.311 21.2652 210.932 20.4774 210.384 19.8121C209.844 19.2032 209.149 18.752 208.373 18.5063C207.382 18.2063 206.349 18.0681 205.314 18.0969H203.832C203.712 18.0969 203.597 18.1444 203.513 18.2288C203.428 18.3133 203.381 18.4278 203.381 18.5472V32.4648C203.381 32.5842 203.428 32.6987 203.513 32.7832C203.597 32.8676 203.712 32.9151 203.832 32.9151H205.06C206.105 32.9357 207.147 32.8075 208.156 32.5344C208.958 32.3187 209.688 31.8951 210.273 31.3063C210.86 30.6574 211.269 29.8677 211.461 29.014C211.735 27.8459 211.864 26.6484 211.846 25.4487H211.833Z" fill="#E8CA35"/>
<path d="M241.331 39.2516L240 34.9372C239.97 34.8454 239.912 34.7654 239.834 34.7088C239.756 34.6521 239.662 34.6217 239.566 34.622H231.785C231.689 34.622 231.596 34.6525 231.518 34.7092C231.441 34.7659 231.384 34.8458 231.355 34.9372L230.024 39.2516C229.997 39.3406 229.943 39.4191 229.87 39.4762C229.797 39.5334 229.707 39.5665 229.615 39.5709H222.215C222.144 39.5686 222.074 39.5496 222.012 39.5154C221.95 39.4812 221.897 39.4328 221.857 39.3742C221.817 39.3155 221.791 39.2482 221.782 39.1779C221.773 39.1075 221.781 39.036 221.805 38.9692L231.703 11.699C231.734 11.6143 231.789 11.5408 231.862 11.4882C231.935 11.4356 232.023 11.4063 232.113 11.4042H239.373C239.463 11.4069 239.55 11.4364 239.623 11.4889C239.696 11.5414 239.752 11.6146 239.783 11.699L249.681 38.9692C249.705 39.036 249.712 39.1075 249.703 39.1779C249.694 39.2482 249.669 39.3155 249.629 39.3742C249.589 39.4328 249.536 39.4812 249.474 39.5154C249.411 39.5496 249.342 39.5686 249.271 39.5709H241.74C241.647 39.5671 241.558 39.5342 241.484 39.477C241.411 39.4197 241.357 39.3409 241.331 39.2516ZM237.485 26.5621C237.244 25.6493 237.027 24.8592 236.842 24.1879C236.658 23.5166 236.486 22.9149 236.339 22.3786C236.191 21.8424 236.06 21.3512 235.954 20.9091L235.892 20.643C235.881 20.5938 235.853 20.5499 235.813 20.5186C235.773 20.4872 235.724 20.4701 235.673 20.4701C235.623 20.4701 235.573 20.4872 235.534 20.5186C235.494 20.5499 235.466 20.5938 235.454 20.643L235.393 20.9296C235.282 21.384 235.155 21.8792 235.008 22.4155C234.86 22.9517 234.692 23.5575 234.504 24.2289C234.316 24.9002 234.095 25.6779 233.861 26.5621L233.501 27.8392C233.482 27.9063 233.479 27.9768 233.492 28.0453C233.504 28.1138 233.533 28.1783 233.575 28.2338C233.617 28.2894 233.672 28.3344 233.734 28.3654C233.796 28.3964 233.865 28.4124 233.935 28.4123H237.412C237.481 28.4124 237.55 28.3964 237.613 28.3654C237.675 28.3344 237.729 28.2894 237.772 28.2338C237.814 28.1783 237.842 28.1138 237.855 28.0453C237.868 27.9768 237.865 27.9063 237.846 27.8392L237.485 26.5621Z" fill="#F4B23F"/>
<path d="M277.691 25.4487C277.726 27.5599 277.399 29.6615 276.725 31.6625C276.152 33.356 275.233 34.9118 274.026 36.2307C272.872 37.4672 271.456 38.4295 269.882 39.047C266.49 40.3281 262.749 40.3354 259.353 39.0674C257.789 38.4599 256.381 37.5119 255.229 36.2921C254.023 34.9841 253.11 33.4336 252.551 31.7443C251.89 29.7392 251.57 27.6374 251.605 25.5264C251.57 23.4152 251.897 21.3137 252.572 19.3127C253.139 17.6205 254.053 16.0648 255.254 14.7444C256.407 13.508 257.824 12.5456 259.398 11.9282C261.078 11.2696 262.869 10.9416 264.673 10.9621C266.468 10.9422 268.251 11.2631 269.927 11.9077C271.483 12.5135 272.883 13.4621 274.022 14.683C275.221 15.9968 276.133 17.5455 276.7 19.2308C277.383 21.2317 277.718 23.3347 277.691 25.4487ZM269.599 25.5264C269.599 22.9804 269.164 21.0496 268.293 19.7343C267.906 19.1107 267.362 18.6001 266.715 18.2537C266.068 17.9073 265.341 17.7375 264.607 17.7613C263.884 17.7328 263.165 17.8967 262.526 18.2361C261.886 18.5755 261.348 19.0783 260.967 19.6934C260.12 20.9787 259.697 22.8971 259.697 25.4487C259.697 28.0002 260.127 29.931 260.987 31.2408C261.374 31.8644 261.918 32.3751 262.565 32.7214C263.212 33.0678 263.939 33.2377 264.673 33.2139C265.396 33.2423 266.114 33.0784 266.754 32.739C267.393 32.3996 267.932 31.8968 268.313 31.2818C269.162 29.9992 269.587 28.0807 269.587 25.5264H269.599Z" fill="#FF994A"/>
<path d="M2.48581 18.8542L2.37116 18.9361C1.53119 19.5457 0.872548 20.3718 0.465515 21.3262C0.0584825 22.2807 -0.0816726 23.3277 0.0600018 24.3556C0.201676 25.3835 0.619859 26.3536 1.26994 27.1625C1.92003 27.9714 2.77763 28.5887 3.75121 28.9485C7.21842 30.2257 10.5136 31.4946 13.6368 32.7554C16.0045 30.2056 18.6252 27.9028 21.4585 25.8826C15.7172 23.5602 9.39292 21.2174 2.48581 18.8542Z" fill="#5CACA7"/>
<path d="M22.601 26.3287C19.7684 28.3516 17.1479 30.6556 14.7793 33.2056C20.4742 35.5307 25.5754 37.8339 30.0828 40.1153C32.4306 37.5459 35.038 35.2263 37.8635 33.1934C33.3561 30.9092 28.2686 28.621 22.601 26.3287Z" fill="#92A688"/>
<path d="M38.7441 33.6355C35.9188 35.6701 33.3114 37.9911 30.9634 40.5615C34.9424 42.5787 38.774 44.8739 42.4297 47.4302C44.7896 44.8484 47.4093 42.5165 50.2473 40.4714C46.5721 37.9352 42.7289 35.6512 38.7441 33.6355Z" fill="#C99F69"/>
<path d="M50.9229 40.9012C48.0812 42.9464 45.4574 45.2783 43.093 47.86L43.1872 47.9296C45.4165 49.5685 48.1125 50.4504 50.8798 50.446C53.6472 50.4416 56.3403 49.5511 58.5644 47.9051L58.7282 47.7823C56.3973 45.1987 53.7786 42.89 50.9229 40.9012Z" fill="#FF994A"/>
<path d="M14.5418 11.5393C10.6063 13.5921 6.80154 15.8861 3.14917 18.408C10.0454 20.7959 16.36 23.1373 22.0932 25.4323C25.7042 22.894 29.4755 20.5914 33.3835 18.539C27.6831 16.2385 21.4025 13.9053 14.5418 11.5393Z" fill="#63B298"/>
<path d="M34.5384 18.9893C30.6294 21.0376 26.8593 23.3403 23.2522 25.8825C28.9117 28.1858 33.9923 30.4726 38.4942 32.7431C42.085 30.1928 45.8417 27.8844 49.7395 25.8334C45.2321 23.5657 40.1651 21.2843 34.5384 18.9893Z" fill="#93B27A"/>
<path d="M50.6404 26.2714C46.7416 28.3244 42.9835 30.634 39.3911 33.1852C43.3811 35.1958 47.231 37.4728 50.9148 40.0007C54.5168 37.4398 58.2874 35.1245 62.201 33.0706C58.4993 30.5556 54.6376 28.2844 50.6404 26.2714Z" fill="#C4B25D"/>
<path d="M62.8602 33.5168C58.9474 35.5698 55.1781 37.8851 51.5781 40.4469C54.4269 42.4412 57.0375 44.7555 59.3589 47.3443C62.9941 44.7712 66.7989 42.4463 70.7474 40.3855C68.3834 37.8085 65.7378 35.5046 62.8602 33.5168Z" fill="#F4B23F"/>
<path d="M30.5047 4.13843C24.878 6.46757 19.8574 8.78444 15.4387 11.0972C22.294 13.4632 28.5731 15.7978 34.2763 18.101C38.6785 15.7964 43.6541 13.4878 49.2399 11.1791C43.5613 8.86494 37.3162 6.51806 30.5047 4.13843Z" fill="#69B98A"/>
<path d="M50.3865 11.6212C44.8008 13.9298 39.8142 16.2358 35.427 18.539C41.0619 20.8395 46.1262 23.1209 50.6199 25.3832C55.0099 23.0827 59.9691 20.7822 65.5425 18.4858C61.0461 16.2126 55.9941 13.9244 50.3865 11.6212Z" fill="#93BF6E"/>
<path d="M66.4434 18.9279C60.874 21.2229 55.8998 23.522 51.5208 25.8252C55.5182 27.8383 59.3787 30.1124 63.0772 32.6326C67.4754 30.3321 72.4619 28.0384 78.0367 25.7516C74.3214 23.2328 70.4491 20.9536 66.4434 18.9279Z" fill="#BEC451"/>
<path d="M78.7042 26.1896C73.1185 28.471 68.1293 30.7633 63.7366 33.0665C66.6187 35.0548 69.2697 37.3586 71.6402 39.9352C76.0711 37.6306 81.059 35.3465 86.7061 33.0747C84.2962 30.4967 81.6131 28.1882 78.7042 26.1896Z" fill="#E8CA35"/>
<path d="M31.8232 3.61445L31.6553 3.68404C38.4668 6.0664 44.7106 8.41192 50.3864 10.7206C56.0486 8.41192 62.3278 6.10597 69.224 3.80275L68.9946 3.7086C57.0966 -1.19745 43.7459 -1.23126 31.8232 3.61445Z" fill="#70BF7B"/>
<path d="M70.3747 4.25714C63.4703 6.55763 57.1911 8.86222 51.5371 11.1709C57.142 13.4796 62.1926 15.7692 66.6891 18.0396C72.3376 15.7446 78.6004 13.455 85.4775 11.1709C80.9729 8.88406 75.9386 6.57946 70.3747 4.25714Z" fill="#94CB60"/>
<path d="M86.3868 11.6171C79.5042 13.8957 73.2401 16.1839 67.5942 18.4817C71.5984 20.5064 75.4693 22.7842 79.1835 25.3013C84.8484 23.0172 91.1276 20.744 98.021 18.4817C94.2877 15.9567 90.4023 13.6642 86.3868 11.6171Z" fill="#B9D745"/>
<path d="M98.6926 18.9279C91.7854 21.1874 85.5063 23.4592 79.855 25.7434C82.7587 27.7421 85.435 30.0523 87.8364 32.6326C90.8395 31.4373 94.0172 30.2475 97.3698 29.0631C98.3584 28.7136 99.2322 28.0997 99.896 27.2883C100.56 26.4769 100.988 25.499 101.135 24.4611C101.281 23.4232 101.14 22.365 100.727 21.4017C100.314 20.4384 99.6441 19.6068 98.7908 18.9974L98.6926 18.9279Z" fill="#DDE32A"/>
</g>
<defs>
<clipPath id="clip0_37_253">
<rect width="280" height="50.4594" fill="white"/>
</clipPath>
</defs>
</svg>
