<svg viewBox="0 0 414 120" fill="none" xmlns="http://www.w3.org/2000/svg">
<g clip-path="url(#clip0_1_27)" fill="currentColor">
<path d="M152.895 42.7206H138.372V77.2848H145.862V50.2104H148.016L159.977 77.2848H168.167L152.895 42.7206Z" />
<path d="M283.621 77.2848H291.111V42.7206H283.621V77.2848Z" />
<path d="M183.436 42.7206L168.166 77.2848H176.354L188.315 50.2104H190.469V77.2848H197.959V42.7206H183.436Z" />
<path d="M231.453 42.7206H217.751L202.48 77.2848H210.669L215.644 66.0225H233.56L238.535 77.2848H246.724L231.453 42.7206ZM218.953 58.5327L222.63 50.2104H226.573L230.25 58.5327H218.953Z" />
<path d="M268.35 42.7206H251.054V77.2848H258.544V50.2104H263.471L275.432 77.2848H283.621L268.35 42.7206Z" />
<path d="M295.271 42.7206V50.2104H312.747V77.2848H320.238V50.2104H337.713V42.7206H295.271Z" />
<path d="M349.365 42.7206H341.874V77.2848H374.469V69.795H349.365V42.7206Z" />
<path d="M414 50.2104V42.7206H378.63V77.2848H414V69.795H386.121V63.2484H410.289V55.7586H386.121V50.2104H414Z" />
<path d="M22.5515 43.6362L5.93655 35.1768C4.63692 37.7301 3.5301 40.4073 2.64935 43.134L20.3905 48.8706C20.9703 47.0772 21.6957 45.3159 22.5515 43.6362Z" />
<path d="M36.6651 28.7273L45.8679 44.5836C47.2119 43.8042 48.6504 43.2048 50.1468 42.8025L45.384 25.0975C46.596 24.7715 47.8278 24.5025 49.0665 24.3069L46.1397 5.8916C43.3089 6.34097 40.4961 7.01924 37.7775 7.90553L43.4685 25.3471C41.6583 25.938 39.8955 26.6717 38.1978 27.54L29.8327 11.2122C27.289 12.5159 24.8284 14.0305 22.5163 15.7186L33.5082 30.7788C34.5207 30.0408 35.5803 29.3584 36.6651 28.7273Z" />
<path d="M86.049 41.8647L70.1982 51.0759C70.9791 52.4184 71.5782 53.8581 71.982 55.3521L89.6856 50.5806C90.0117 51.7929 90.2808 53.0232 90.4776 54.2604L108.89 51.3282C108.439 48.4989 107.76 45.6846 106.871 42.9648L89.4318 48.6666C88.8396 46.8567 88.1058 45.0951 87.2361 43.3974L103.559 35.0214C102.255 32.4804 100.737 30.0198 99.0495 27.709L83.9934 38.7081C84.7326 39.7206 85.4181 40.7787 86.049 41.8647Z" />
<path d="M79.5852 11.1375C77.0289 9.83932 74.352 8.73385 71.628 7.85449L65.901 25.5985C67.6929 26.1769 69.4545 26.9037 71.1369 27.7581L79.5852 11.1375Z" />
<path d="M72.9648 28.4024L63.6567 44.5569C65.0049 45.3336 66.2475 46.2852 67.353 47.3862L93.4593 21.1913C91.4343 19.1732 89.2344 17.2994 86.9208 15.6211L76.1535 30.4704C75.1272 29.727 74.0631 29.0363 72.9648 28.4024Z" />
<path d="M23.199 41.8062L39.3492 51.1242C40.1259 49.7775 41.0802 48.5334 42.183 47.4264L15.999 21.3105C13.9796 23.3356 12.1043 25.534 10.426 27.8461L25.2698 38.6205C24.5263 39.6453 23.8328 40.7079 23.199 41.8062Z" />
<path d="M60.4386 23.9936L63.2556 5.86674C60.4719 5.43399 57.6231 5.21484 54.7866 5.21484H54.7437V42.198H54.7866C56.3457 42.198 57.888 42.3978 59.3721 42.7917L64.1544 24.7703C62.931 24.4457 61.6911 24.1891 60.4386 23.9936Z" />
<path d="M37.5783 55.4052L19.5596 50.6103C19.2336 51.8337 18.9757 53.0736 18.7801 54.3261L0.656055 51.5007C0.220534 54.2943 0 57.1542 0 59.9991H36.9831C36.9831 58.4373 37.1832 56.8908 37.5783 55.4052Z" />
<path d="M87.0222 76.3674L103.637 84.8268C104.937 82.2732 106.043 79.5963 106.924 76.8696L89.1831 71.1327C88.6032 72.9261 87.8781 74.6877 87.0222 76.3674Z" />
<path d="M72.9078 91.2723L63.705 75.4161C62.361 76.1955 60.9228 76.7946 59.4261 77.1969L64.1892 94.902C62.9754 95.2281 61.7451 95.4972 60.5067 95.6928L63.4317 114.107C66.2628 113.657 69.0756 112.979 71.7942 112.093L66.1032 94.6509C67.9146 94.0602 69.6762 93.3264 71.3739 92.4582L79.7388 108.786C82.2825 107.482 84.7431 105.968 87.0552 104.28L76.0632 89.2194C75.0507 89.9574 73.9926 90.6411 72.9078 91.2723Z" />
<path d="M23.5255 78.1395L39.3777 68.9286C38.5968 67.5858 37.9974 66.1461 37.5939 64.6524L19.8902 69.4236C19.5642 68.2113 19.2951 66.981 19.0982 65.7438L0.684263 68.676C1.13504 71.5056 1.81468 74.3199 2.70375 77.0397L20.1426 71.3376C20.7348 73.1478 21.4686 74.9094 22.3382 76.6071L6.01593 84.9831C7.3197 87.5241 8.8371 89.9847 10.5251 92.2953L25.5811 81.2964C24.8418 80.2839 24.1566 79.2255 23.5255 78.1395Z" />
<path d="M29.9884 108.865C32.5446 110.163 35.2215 111.268 37.9458 112.148L43.6728 94.4037C41.8806 93.8253 40.1193 93.0984 38.4366 92.244L29.9884 108.865Z" />
<path d="M36.6087 91.602L45.9171 75.4476C44.5689 74.6709 43.326 73.7193 42.2205 72.6183L16.1144 98.8131C18.1394 100.831 20.3392 102.705 22.6527 104.383L33.42 89.5341C34.4466 90.2775 35.5101 90.9681 36.6087 91.602Z" />
<path d="M86.3742 78.1977L70.2237 68.88C69.447 70.2267 68.4927 71.4708 67.3902 72.5775L93.5727 98.6949C95.5923 96.6699 97.4673 94.4715 99.1458 92.1594L84.3018 81.3852C85.0455 80.3601 85.7403 79.2963 86.3742 78.1977Z" />
<path d="M50.2014 77.2089L45.4191 95.2305C46.6425 95.5548 47.8824 95.8116 49.1349 96.0072L46.3194 114.134C49.1031 114.567 51.9519 114.786 54.7884 114.786H54.8313V77.8026H54.7884C53.2293 77.8026 51.6855 77.6028 50.2014 77.2089Z" />
<path d="M72.5907 60.003C72.5907 61.5648 72.3897 63.1098 71.9943 64.5966L90.0129 69.3915C90.339 68.1681 90.597 66.9282 90.7923 65.6757L108.918 68.5026C109.353 65.709 109.574 62.8491 109.574 60.0042L72.5907 60.003Z" />
</g>
<defs>
<clipPath id="clip0_1_27">
<rect width="414" height="120" fill="white"/>
</clipPath>
</defs>
</svg>
