<svg width="549" height="591" viewBox="0 0 549 591" fill="none" xmlns="http://www.w3.org/2000/svg">
<path fill-rule="evenodd" clip-rule="evenodd" d="M340.821 146.585C343.785 135.958 337.788 124.718 327.313 121.516C306.706 115.217 274.594 105.401 258.623 100.519C252.441 98.6296 245.796 100.406 241.465 105.24C214.279 135.225 189.377 188.414 162.155 263.96C161.723 265.507 162.18 267.215 163.41 268.151C197.561 294.714 240.401 309.488 290.96 314.641C292.592 314.804 294.228 313.624 294.689 311.973C299.898 293.299 328.676 190.125 340.821 146.585Z" fill="#7CB78E"/>
<path fill-rule="evenodd" clip-rule="evenodd" d="M163.336 198.316L179.57 162.335C186.053 147.988 199.376 138.205 214.649 136.646C215.198 136.589 215.721 136.844 216.05 137.326C224.703 150.397 226.049 167.212 219.594 181.587C205.034 213.854 179.35 270.733 169.873 291.8C168.884 293.955 167.126 295.628 164.956 296.422C162.813 297.244 160.424 297.131 158.309 296.138C151.304 292.764 141.085 287.858 134.052 284.484C131.965 283.463 130.344 281.649 129.548 279.409C128.778 277.169 128.86 274.702 129.849 272.547L150.534 226.699L138.338 220.404C136.91 219.667 135.975 218.136 135.947 216.491C135.92 214.818 136.8 213.259 138.201 212.465L163.336 198.316Z" fill="#7CB78E"/>
<path opacity="0.2" fill-rule="evenodd" clip-rule="evenodd" d="M123.314 364.729C128.845 370.041 136.671 380.666 131.389 395.291C131.389 395.291 150.287 405.35 142.021 422.896C142.021 422.896 163.777 433.588 156.888 454.854L2.2086 371.469C14.9965 353.383 35.9365 365.707 35.9365 365.707C45.0023 348.592 63.7989 358.854 63.7989 358.854C72.2804 345.954 85.1526 346.487 92.5193 348.129L133.192 290.524L149.889 299.525L123.314 364.729Z" fill="url(#paint0_linear_37_277)"/>
<path fill-rule="evenodd" clip-rule="evenodd" d="M149.049 298.829L122.419 364.248C122.317 364.453 122.367 364.739 122.542 364.899C128.02 370.12 135.677 380.538 130.452 394.922C130.374 395.205 130.472 395.517 130.773 395.679C130.773 395.679 149.294 405.394 141.201 422.582C141.15 422.684 141.124 422.864 141.173 423.02C141.222 423.177 141.347 423.31 141.523 423.34C141.523 423.34 162.862 433.792 156.127 454.631C155.973 454.938 156.171 455.304 156.447 455.388C156.774 455.499 157.104 455.352 157.207 455.018C163.607 435.231 145.799 424.344 142.486 422.56C149.69 406.386 134.597 396.571 131.763 394.85C136.761 380.408 129.206 369.785 123.654 364.329L150.153 299.294C150.23 299.012 150.083 298.672 149.832 298.537C149.505 298.426 149.202 298.522 149.049 298.829Z" fill="#7CB78E"/>
<path fill-rule="evenodd" clip-rule="evenodd" d="M2.68859 372.113C15.2418 354.412 35.7545 366.498 35.7545 366.498C35.8794 366.63 36.0562 366.66 36.2077 366.612C36.3592 366.563 36.4863 366.438 36.5375 366.336C45.431 349.584 63.7423 359.705 63.7423 359.705C63.9931 359.84 64.3464 359.77 64.4743 359.515C72.8582 346.836 85.4748 347.337 92.742 348.98C92.9683 349.037 93.1708 348.886 93.2977 348.76L134.115 291.001C134.319 290.721 134.246 290.357 134.021 290.17C133.745 289.957 133.393 290.027 133.189 290.307L92.599 347.735C85.0544 346.137 72.3374 345.842 63.8286 358.389C60.8418 356.975 44.4215 349.819 35.8153 365.233C32.5039 363.45 13.6788 354.608 1.76207 371.418C1.55843 371.698 1.6321 372.063 1.90756 372.276C2.13285 372.462 2.53512 372.419 2.68859 372.113Z" fill="#7CB78E"/>
<path opacity="0.2" fill-rule="evenodd" clip-rule="evenodd" d="M301.445 414.394C308.018 418.237 318.023 426.704 316.212 442.216C316.212 442.216 336.835 447.47 332.789 466.543C332.789 466.543 356.33 471.729 354.464 494.093L185.426 450.058C193.738 429.373 216.857 436.343 216.857 436.343C221.776 417.497 242.347 422.974 242.347 422.974C247.655 408.373 260.27 405.799 267.792 405.627L294.211 339.755L312.458 344.508L301.445 414.394Z" fill="url(#paint1_linear_37_277)"/>
<path fill-rule="evenodd" clip-rule="evenodd" d="M311.529 343.92L300.524 414.047C300.471 414.271 300.584 414.538 300.791 414.651C307.296 418.422 317.095 426.733 315.288 442C315.276 442.294 315.441 442.575 315.771 442.661C315.771 442.661 335.96 447.677 332.004 466.365C331.977 466.477 331.993 466.659 332.076 466.799C332.159 466.94 332.311 467.039 332.489 467.026C332.489 467.026 355.581 472.084 353.772 494.004C353.693 494.339 353.968 494.649 354.255 494.664C354.598 494.694 354.885 494.471 354.909 494.121C356.631 473.307 336.868 466.978 333.247 466.036C336.57 448.549 319.686 442.611 316.544 441.615C318.118 426.346 308.371 417.811 301.741 413.829L312.707 344.108C312.718 343.814 312.498 343.519 312.223 343.448C311.881 343.418 311.609 343.585 311.529 343.92Z" fill="#7CB78E"/>
<path fill-rule="evenodd" clip-rule="evenodd" d="M185.958 450.977C194.098 430.778 216.671 437.606 216.671 437.606C216.986 437.747 217.326 437.539 217.392 437.261C217.471 436.926 217.318 436.59 216.99 436.505C216.99 436.505 193.433 429.42 184.905 450.525C184.772 450.845 184.925 451.182 185.24 451.323C185.5 451.45 185.879 451.312 185.958 450.977Z" fill="#7CB78E"/>
<path fill-rule="evenodd" clip-rule="evenodd" d="M217.397 436.817C222.237 418.349 242.344 423.814 242.344 423.814C242.618 423.885 242.946 423.733 243.012 423.453C248.283 409.077 260.665 406.534 268.105 406.389C268.338 406.39 268.501 406.194 268.596 406.041L295.156 339.923C295.291 339.602 295.137 339.264 294.875 339.137C294.559 338.995 294.232 339.148 294.097 339.469L267.683 405.209C259.983 405.465 247.55 408.234 242.129 422.51C238.903 421.85 220.911 418.777 216.311 436.475C216.177 436.797 216.399 437.092 216.728 437.178C216.99 437.305 217.331 437.097 217.397 436.817Z" fill="#7CB78E"/>
<path fill-rule="evenodd" clip-rule="evenodd" d="M311.173 309.982C311.173 309.982 321.277 342.746 336.166 401.009C337.488 406.208 336.732 411.712 334.025 416.338C331.349 420.926 326.974 424.213 321.906 425.399C286.715 433.733 251.305 429.337 184.794 427.158C184.007 427.158 183.314 426.775 182.811 426.163C182.339 425.551 182.118 424.787 182.244 423.984C183.597 415.383 187.374 391.069 188.507 383.805C188.696 382.544 189.704 381.626 190.9 381.511C203.459 380.326 269.592 374.057 269.592 374.057L243.592 307.956L311.173 309.982Z" fill="#FFD8C7"/>
<path fill-rule="evenodd" clip-rule="evenodd" d="M112.077 478.605L95.7176 502.299L102.275 519.554L116.08 520.668L125.82 514.766L139.608 493.771L112.077 478.605Z" fill="#FFC8A3"/>
<path fill-rule="evenodd" clip-rule="evenodd" d="M123.378 536.334C123.378 536.334 129.664 526.086 129.508 521.252C129.349 516.326 127.721 512.826 122.072 512.221C116.396 511.608 105.722 510.494 102.507 496.021C102.028 493.897 99.5804 493.033 95.1872 495.432C91.5532 497.431 81.3807 506.302 75.8987 511.884C74.237 513.606 73.7315 516.184 74.6276 518.403C79.2126 529.748 93.8485 565.259 104.638 583.39C105.984 585.5 108.462 586.511 110.879 585.893C116.7 584.387 126.694 580.723 127.369 572.965C128.461 560.547 123.378 536.334 123.378 536.334Z" fill="#F19E5A"/>
<path fill-rule="evenodd" clip-rule="evenodd" d="M125.495 539.392C125.495 539.392 120.602 537.611 112.778 539.838C112.317 539.965 112.045 540.454 112.164 540.922C112.284 541.389 112.757 541.669 113.218 541.542C120.409 539.487 124.909 541.06 124.909 541.06C125.354 541.218 125.842 540.961 126.006 540.505C126.169 540.051 125.94 539.549 125.495 539.392Z" fill="white"/>
<path fill-rule="evenodd" clip-rule="evenodd" d="M126.661 547.636C126.661 547.636 122 545.929 114.57 548.066C114.113 548.197 113.832 548.673 113.959 549.153C114.076 549.617 114.548 549.894 115.005 549.763C121.816 547.821 126.075 549.302 126.075 549.302C126.519 549.462 127.015 549.224 127.178 548.766C127.34 548.308 127.107 547.795 126.661 547.636Z" fill="white"/>
<path fill-rule="evenodd" clip-rule="evenodd" d="M127.738 555.504C127.738 555.504 123.268 553.897 116.113 555.953C115.657 556.088 115.388 556.584 115.504 557.044C115.629 557.52 116.099 557.794 116.557 557.657C123.087 555.784 127.162 557.183 127.162 557.183C127.61 557.343 128.097 557.086 128.257 556.627C128.418 556.167 128.185 555.664 127.738 555.504Z" fill="white"/>
<path fill-rule="evenodd" clip-rule="evenodd" d="M196.188 388.129L168.483 383.745L156.425 397.638L161.529 410.911L170.92 417.242L195.16 420.472L196.188 388.129Z" fill="#FFC8A3"/>
<path fill-rule="evenodd" clip-rule="evenodd" d="M154.237 427.497C154.237 427.497 165.835 425.821 169.273 422.563C172.777 419.244 174.28 415.688 171.045 410.831C167.798 405.947 161.664 396.79 170.17 384.865C171.414 383.109 170.452 380.615 165.836 378.698C162.006 377.122 148.886 374.835 141.229 374.122C138.886 373.925 136.669 375.197 135.627 377.344C130.305 388.323 113.828 422.915 107.575 443.198C106.906 445.63 107.779 448.244 109.806 449.752C114.699 453.377 123.889 458.899 130.01 454.403C139.815 447.214 154.237 427.497 154.237 427.497Z" fill="#F19E5A"/>
<path fill-rule="evenodd" clip-rule="evenodd" d="M151.98 430.976C151.98 430.976 149.985 426 143.164 421.423C142.765 421.151 142.233 421.266 141.979 421.67C141.724 422.073 141.84 422.627 142.238 422.899C148.514 427.1 150.394 431.634 150.394 431.634C150.579 432.084 151.089 432.29 151.524 432.114C151.958 431.937 152.165 431.426 151.98 430.976Z" fill="white"/>
<path fill-rule="evenodd" clip-rule="evenodd" d="M146.796 437.361C146.796 437.361 144.905 432.614 138.411 428.282C138.012 428.015 137.484 428.115 137.225 428.533C136.971 428.933 137.088 429.482 137.487 429.749C143.428 433.732 145.212 438.017 145.212 438.017C145.395 438.468 145.896 438.693 146.333 438.514C146.769 438.335 146.981 437.813 146.796 437.361Z" fill="white"/>
<path fill-rule="evenodd" clip-rule="evenodd" d="M141.814 443.424C141.814 443.424 139.979 438.891 133.727 434.718C133.325 434.456 132.79 434.577 132.539 434.974C132.282 435.388 132.4 435.934 132.803 436.198C138.507 440.008 140.228 444.096 140.228 444.096C140.413 444.55 140.922 444.756 141.357 444.574C141.794 444.393 141.999 443.878 141.814 443.424Z" fill="white"/>
<path fill-rule="evenodd" clip-rule="evenodd" d="M187.015 298.974L264.151 310.088C264.151 310.088 200.998 414.092 193.004 427.276C192.455 428.184 191.85 429.091 191.245 429.941C184.57 439.071 144.437 494.05 136.113 505.477C135.729 506.016 135.124 506.356 134.465 506.441C133.806 506.526 133.173 506.327 132.652 505.902C126.938 501.054 110.319 486.962 105.264 482.709C104.413 481.972 104.138 480.724 104.632 479.675C110.126 467.964 141.195 401.956 143.667 396.71C143.75 396.512 143.86 396.285 143.97 396.058C146.717 389.848 187.015 298.974 187.015 298.974Z" fill="#FFD8C7"/>
<path fill-rule="evenodd" clip-rule="evenodd" d="M270.716 377.287L278.216 394.611C278.353 394.894 278.683 395.036 278.985 394.894C279.26 394.781 279.397 394.412 279.26 394.129L271.76 376.805C271.623 376.522 271.293 376.38 270.991 376.522C270.716 376.635 270.579 377.003 270.716 377.287Z" fill="#000045"/>
<path fill-rule="evenodd" clip-rule="evenodd" d="M219.291 382.052L196.38 419.791C196.215 420.075 196.299 420.443 196.573 420.613C196.848 420.783 197.177 420.699 197.37 420.415L220.279 382.675C220.444 382.392 220.362 382.023 220.087 381.853C219.812 381.683 219.483 381.768 219.291 382.052Z" fill="#000045"/>
<path fill-rule="evenodd" clip-rule="evenodd" d="M291.815 107.506C291.815 107.506 275.18 97.1089 255.447 111.03L259.563 121.452H264.744L261.258 124.526L268.522 143.87C268.522 143.87 290.41 145.569 297.117 120.377L291.815 107.506Z" fill="#212127"/>
<path fill-rule="evenodd" clip-rule="evenodd" d="M351.843 131.818C351.843 131.818 369.681 134.916 375.493 157.069L347.05 171.996C347.05 171.996 330.583 159.488 340.57 137.558L351.843 131.818Z" fill="#212127"/>
<path fill-rule="evenodd" clip-rule="evenodd" d="M350.983 113.14C350.983 113.14 352.137 121.051 351.066 129.16L339.777 134.973C339.777 134.973 334.199 133.838 330.793 127.941L350.983 113.14Z" fill="#212127"/>
<path fill-rule="evenodd" clip-rule="evenodd" d="M299.278 121.44C300.411 120.955 300.944 119.613 300.486 118.458C299.282 115.427 297.058 109.828 295.842 106.769C295.395 105.643 294.106 105.081 292.973 105.565C291.84 106.05 291.307 107.391 291.754 108.517C292.97 111.576 295.194 117.176 296.398 120.206C296.856 121.361 298.145 121.924 299.278 121.44Z" fill="#F19E5A"/>
<path fill-rule="evenodd" clip-rule="evenodd" d="M338.058 136.958C337.532 135.854 338.008 134.505 339.097 133.946C341.957 132.479 347.24 129.77 350.127 128.289C351.189 127.745 352.51 128.172 353.036 129.277C353.561 130.381 353.085 131.73 352.023 132.274C349.137 133.755 343.853 136.464 340.994 137.931C339.905 138.49 338.583 138.063 338.058 136.958Z" fill="#F19E5A"/>
<path fill-rule="evenodd" clip-rule="evenodd" d="M336.443 129.095L328.673 143.522C316.984 144.064 308.342 140.946 298.209 132.948L308.476 113.013L323.181 117.163L336.443 129.095Z" fill="#FFAA72"/>
<path fill-rule="evenodd" clip-rule="evenodd" d="M312.331 81.6861C312.331 81.6861 308.002 81.9841 302.691 84.1712C297.38 86.3583 295.924 99.0202 297.013 101.779C298.118 104.537 302.125 108.993 305.485 109.866C305.485 109.866 307.546 115.256 312.323 121.745C317.1 128.234 328.023 133.979 339.886 129.764C344.869 127.987 348.397 123.158 350.427 119.315C352.44 115.47 360.541 99.6166 360.541 99.6166L355.428 76.1073L326.566 69.4101L314.718 82.9147L312.331 81.6861Z" fill="#FFC8A3"/>
<path fill-rule="evenodd" clip-rule="evenodd" d="M304.008 89.8304C304.008 89.8304 307.244 92.1515 309.929 96.6469C310.096 96.9237 310.443 97.0097 310.707 96.8388C310.987 96.6662 311.067 96.3034 310.901 96.025C308.066 91.2951 304.664 88.8604 304.664 88.8604C304.399 88.6745 304.052 88.7407 303.871 89.0084C303.691 89.2761 303.742 89.6445 304.008 89.8304Z" fill="#212127"/>
<path fill-rule="evenodd" clip-rule="evenodd" d="M304.647 95.4486C304.647 95.4486 306.907 94.3977 308.541 94.092C308.855 94.0343 309.052 93.7267 309.001 93.4053C308.95 93.0856 308.651 92.8723 308.337 92.93C306.603 93.2566 304.18 94.3711 304.18 94.3711C303.899 94.5048 303.768 94.8543 303.902 95.1515C304.019 95.4488 304.367 95.5823 304.647 95.4486Z" fill="#212127"/>
<path fill-rule="evenodd" clip-rule="evenodd" d="M338.289 108.506L337.509 114.53C337.462 114.852 337.678 115.151 337.993 115.193C338.307 115.237 338.587 115.009 338.635 114.686L339.413 108.663C339.461 108.339 339.245 108.042 338.931 107.998C338.616 107.956 338.32 108.183 338.289 108.506Z" fill="#212127"/>
<path fill-rule="evenodd" clip-rule="evenodd" d="M328.878 93.2678C328.878 93.2678 334.846 91.5333 337.723 97.4011C337.86 97.6902 338.202 97.8082 338.49 97.6632C338.778 97.5182 338.892 97.1636 338.739 96.8721C335.437 90.1231 328.563 92.1339 328.563 92.1339C328.261 92.2226 328.082 92.5484 328.167 92.8611C328.253 93.1741 328.576 93.3565 328.878 93.2678Z" fill="#212127"/>
<path fill-rule="evenodd" clip-rule="evenodd" d="M345.855 100.065C345.855 100.065 351.823 98.3306 354.7 104.198C354.836 104.487 355.179 104.606 355.467 104.461C355.754 104.316 355.869 103.961 355.716 103.669C352.413 96.9204 345.539 98.9313 345.539 98.9313C345.238 99.0199 345.058 99.3457 345.144 99.6585C345.23 99.9714 345.553 100.154 345.855 100.065Z" fill="#212127"/>
<path fill-rule="evenodd" clip-rule="evenodd" d="M326.43 111.477C323.889 113.481 323.397 117.211 325.34 119.803C327.284 122.395 330.927 122.865 333.468 120.86L326.43 111.477Z" fill="white"/>
<path d="M332.981 104.91C334.085 104.904 334.976 103.981 334.97 102.85C334.964 101.718 334.064 100.806 332.96 100.812C331.855 100.819 330.965 101.741 330.971 102.873C330.976 104.004 331.876 104.916 332.981 104.91Z" fill="#212127"/>
<path d="M349.682 110.275C350.787 110.268 351.677 109.346 351.672 108.214C351.666 107.083 350.766 106.171 349.661 106.177C348.557 106.183 347.666 107.106 347.672 108.237C347.678 109.369 348.578 110.281 349.682 110.275Z" fill="#212127"/>
<path fill-rule="evenodd" clip-rule="evenodd" d="M314.559 86.6855C314.559 86.6855 307.746 122.1 308.817 121.278C310.191 120.2 320.025 87.0261 320.025 87.0261L329.612 87.9332L335.491 77.9527L334.529 88.9821C334.529 88.9821 352.742 97.6589 362.054 103.188C362.054 103.188 377.41 74.6919 347.44 59.5508C325.794 48.6344 293.736 62.8967 294.313 106.165L299.56 119.803L305.274 119.463L307.966 114.671L308.817 110.957C308.817 110.957 307.883 106.845 308.542 102.394C308.542 102.394 298.241 99.7286 299.285 91.7327C300.933 79.1151 314.559 86.6855 314.559 86.6855Z" fill="#212127"/>
<path fill-rule="evenodd" clip-rule="evenodd" d="M94.138 171.266L103.532 195.906C103.642 196.218 103.973 196.36 104.275 196.247C104.577 196.133 104.714 195.793 104.604 195.481L95.2099 170.841C95.1001 170.529 94.7696 170.387 94.4674 170.501C94.1652 170.614 94.0281 170.954 94.138 171.266Z" fill="#F19E5A"/>
<path fill-rule="evenodd" clip-rule="evenodd" d="M175.889 94.2276C173.335 94.2276 171.246 96.3544 171.246 98.9913C171.246 101.628 173.335 103.783 175.889 103.783C178.444 103.783 180.531 101.628 180.531 98.9913C180.531 96.3544 178.444 94.2276 175.889 94.2276ZM175.889 95.39C177.812 95.39 179.378 97.0065 179.378 98.9913C179.378 100.976 177.812 102.592 175.889 102.592C173.967 102.592 172.4 100.976 172.4 98.9913C172.4 97.0065 173.967 95.39 175.889 95.39Z" fill="#7CB78E"/>
<path fill-rule="evenodd" clip-rule="evenodd" d="M358.014 282.216C355.514 282.216 353.509 284.314 353.509 286.866C353.509 289.446 355.514 291.545 358.014 291.545C360.514 291.545 362.546 289.446 362.546 286.866C362.546 284.314 360.514 282.216 358.014 282.216ZM358.014 283.378C359.882 283.378 361.393 284.966 361.393 286.866C361.393 288.794 359.882 290.382 358.014 290.382C356.146 290.382 354.635 288.794 354.635 286.866C354.635 284.966 356.146 283.378 358.014 283.378Z" fill="url(#paint2_linear_37_277)"/>
<path fill-rule="evenodd" clip-rule="evenodd" d="M36.0389 243.924C36.1471 243.339 36.5445 242.878 37.105 242.721C37.6388 242.571 38.2291 242.755 38.5746 243.213C40.5177 245.674 43.3748 249.249 44.5122 250.681C44.8438 251.084 45.347 251.264 45.8414 251.184C47.6586 250.908 52.1341 250.178 55.2336 249.659C55.7813 249.563 56.3325 249.817 56.6315 250.317C56.9503 250.782 56.9354 251.399 56.6323 251.893C54.918 254.591 52.4596 258.52 51.4573 260.085C51.1739 260.544 51.1384 261.079 51.3702 261.539C52.1686 263.212 54.1948 267.342 55.5529 270.2C55.8252 270.707 55.7507 271.312 55.3803 271.766C55.0365 272.213 54.4627 272.432 53.9059 272.267C50.9081 271.503 46.5222 270.34 44.7449 269.876C44.2553 269.75 43.7478 269.893 43.3832 270.257C42.0643 271.59 38.8173 274.894 36.5835 277.125C36.2062 277.552 35.6047 277.663 35.0676 277.463C34.5572 277.256 34.2047 276.771 34.1726 276.197C34.0156 273.002 33.7783 268.37 33.7006 266.495C33.6557 265.982 33.3711 265.537 32.9338 265.28C31.2937 264.456 27.2931 262.339 24.5232 260.898C24.0256 260.629 23.7457 260.095 23.7739 259.532C23.7951 258.943 24.1523 258.434 24.6989 258.223C27.605 257.057 31.8301 255.347 33.5362 254.635C34.0294 254.438 34.3532 254.026 34.4486 253.504C34.7526 251.667 35.5264 247.074 36.0389 243.924Z" fill="white"/>
<path fill-rule="evenodd" clip-rule="evenodd" d="M35.4701 243.821C34.9576 246.97 34.1839 251.564 33.8869 253.428C33.8229 253.738 33.6312 253.995 33.3445 254.105L24.4732 257.673C23.7467 257.964 23.2446 258.689 23.1919 259.491C23.1392 260.294 23.561 261.051 24.2535 261.411C27.0234 262.852 31.024 264.969 32.6711 265.82C32.9332 265.951 33.0903 266.228 33.1133 266.543L33.5855 276.245C33.6465 277.045 34.134 277.725 34.866 278.016C35.598 278.306 36.4389 278.129 37.009 277.561C39.2358 275.302 42.4568 272.006 43.7757 270.673C44.0079 270.462 44.302 270.379 44.6036 270.441L53.7716 272.859C54.5094 273.061 55.3232 272.774 55.819 272.139C56.3415 271.496 56.4404 270.652 56.0857 269.934C54.7009 267.084 52.7019 262.946 51.8768 261.28C51.747 260.996 51.7507 260.674 51.9423 260.416L57.1114 252.196C57.54 251.521 57.5452 250.644 57.1174 249.976C56.6897 249.308 55.9098 248.944 55.1416 249.072C52.0688 249.583 47.5664 250.32 45.7562 250.624C45.4556 250.679 45.1669 250.556 44.964 250.321L39.0193 242.825C38.5184 242.207 37.7069 241.938 36.9595 242.148C36.1855 242.365 35.6098 243.023 35.4701 243.821ZM36.6016 243.999C36.6586 243.662 36.9043 243.389 37.2513 243.292C37.5716 243.202 37.914 243.31 38.1238 243.572L44.0675 251.068C44.5208 251.612 45.2199 251.884 45.9347 251.771C47.745 251.467 52.22 250.737 55.2998 250.253C55.627 250.19 55.9766 250.325 56.14 250.63C56.3301 250.926 56.3332 251.276 56.1555 251.588C54.4412 254.287 51.9758 258.188 50.9805 259.781C50.5647 260.393 50.5315 261.162 50.8456 261.832C51.6707 263.498 53.6696 267.635 55.0475 270.459C55.2109 270.763 55.1611 271.127 54.9497 271.42C54.7314 271.686 54.3838 271.783 54.0485 271.702C51.0438 270.911 46.6908 269.768 44.9135 269.303C44.2093 269.121 43.4888 269.323 42.9919 269.842C41.673 271.175 38.419 274.451 36.1922 276.71C35.9402 276.956 35.5926 277.054 35.2771 276.938C34.9546 276.795 34.7646 276.498 34.7347 276.156L34.2696 266.481C34.2225 265.736 33.8286 265.087 33.2034 264.767C31.5563 263.915 27.5626 261.826 24.7927 260.385C24.49 260.207 24.3263 259.902 24.3497 259.546C24.3732 259.189 24.585 258.896 24.8983 258.779L33.7629 255.184C34.4093 254.916 34.8855 254.315 35.0194 253.606L36.6016 243.999Z" fill="url(#paint3_linear_37_277)"/>
<path fill-rule="evenodd" clip-rule="evenodd" d="M496.436 69.0794C497.133 68.2445 498.233 67.8936 499.288 68.1896C500.306 68.4752 501.091 69.3547 501.299 70.4433C501.96 74.5036 502.792 79.4778 503.204 81.984C503.365 82.9361 504.038 83.7842 504.913 84.1534C507.22 85.0889 511.842 86.9208 515.57 88.4611C516.559 88.862 517.25 89.7982 517.325 90.932C517.409 92.0274 516.823 93.0586 515.845 93.5674C512.34 95.4287 507.962 97.7042 505.778 98.8229C504.932 99.2866 504.386 100.164 504.329 101.178C504.211 103.701 503.947 108.697 503.748 112.804C503.709 113.906 503.02 114.868 502.033 115.25C501.009 115.623 499.859 115.382 499.091 114.59C496.236 111.687 492.734 108.149 490.975 106.336C490.263 105.642 489.245 105.356 488.335 105.596C485.948 106.245 481.191 107.467 477.335 108.488C476.293 108.772 475.182 108.379 474.51 107.531C473.8 106.672 473.697 105.489 474.151 104.503C475.933 100.84 478.119 96.3828 479.18 94.1247C479.652 93.2264 479.558 92.17 479.046 91.3257C477.686 89.213 475.013 84.9597 472.825 81.5016C472.219 80.5487 472.24 79.3589 472.797 78.4433C473.401 77.4998 474.445 77.0503 475.53 77.2309C479.456 77.8373 484.334 78.67 486.778 79.0669C487.75 79.2158 488.699 78.8227 489.292 78.0821C490.841 76.1259 493.93 72.2513 496.436 69.0794Z" fill="#7CB78E"/>
<path fill-rule="evenodd" clip-rule="evenodd" d="M514.834 56.9464L527.501 29.9821C527.639 29.6889 527.516 29.3322 527.226 29.1875C526.936 29.0427 526.588 29.1643 526.45 29.4576L513.783 56.4218C513.645 56.7151 513.768 57.0716 514.058 57.2164C514.348 57.3612 514.696 57.2396 514.834 56.9464Z" fill="#F19E5A"/>
<path fill-rule="evenodd" clip-rule="evenodd" d="M495.641 45.9774L494.497 29.2444C494.475 28.9204 494.196 28.6756 493.876 28.6996C493.555 28.7236 493.314 29.0073 493.336 29.3313L494.48 46.0643C494.502 46.3899 494.78 46.6332 495.1 46.6092C495.42 46.5852 495.663 46.303 495.641 45.9774Z" fill="#F19E5A"/>
<path fill-rule="evenodd" clip-rule="evenodd" d="M534.624 66.1755L547.833 56.9414C548.094 56.7585 548.164 56.393 547.989 56.1254C547.815 55.8578 547.46 55.7886 547.199 55.9715L533.99 65.2057C533.728 65.3886 533.658 65.7544 533.833 66.022C534.008 66.2896 534.362 66.3585 534.624 66.1755Z" fill="#F19E5A"/>
<path fill-rule="evenodd" clip-rule="evenodd" d="M265.494 5.01007C265.494 5.01007 243.282 19.6377 234.089 25.6786C233.827 25.8353 233.734 26.1825 233.859 26.4644C233.984 26.7464 234.286 26.8903 234.576 26.7822C237.647 25.7909 241.671 24.4567 244.681 23.4695C244.994 23.3472 245.31 23.5147 245.459 23.7824C245.597 24.0887 245.505 24.4366 245.232 24.6318C239.584 28.5887 228.692 36.2602 222.202 40.8171C221.905 41.0267 221.802 41.4119 221.978 41.7283C222.154 42.0446 222.517 42.1841 222.817 42.0375C236.982 36.1389 271.785 21.6421 271.785 21.6421L265.494 5.01007Z" fill="white"/>
<path fill-rule="evenodd" clip-rule="evenodd" d="M266.037 4.78069C265.979 4.62041 265.851 4.50307 265.688 4.43838C265.514 4.41226 265.331 4.42482 265.188 4.51031C265.188 4.51031 242.973 19.139 233.779 25.1807C233.268 25.5185 233.093 26.175 233.329 26.7146C233.566 27.2542 234.17 27.5411 234.738 27.3636L244.856 24.0121C244.879 23.9979 244.917 24.0083 244.944 24.0569C244.957 24.0813 244.947 24.1198 244.899 24.1483C239.274 28.0914 228.382 35.7637 221.89 40.3213C221.345 40.7119 221.172 41.4305 221.46 42.0046C221.76 42.6029 222.437 42.8482 223.026 42.5935C237.193 36.694 271.986 22.1703 271.986 22.1703C272.3 22.048 272.43 21.7109 272.329 21.4147L266.037 4.78069ZM265.221 5.88484L271.057 21.2984L222.615 41.5098C222.567 41.5383 222.516 41.5041 222.489 41.4554C222.449 41.3824 222.483 41.3289 222.53 41.3004L245.563 25.1132C246.037 24.7653 246.236 24.0957 245.963 23.546C245.713 22.9821 245.084 22.7083 244.515 22.8859L234.399 26.238C234.399 26.238 234.361 26.2275 234.385 26.2133C234.371 26.1889 234.371 26.1886 234.395 26.1744L265.221 5.88484Z" fill="url(#paint4_linear_37_277)"/>
<path fill-rule="evenodd" clip-rule="evenodd" d="M463.118 284.898C463.118 284.898 422.088 311.903 409.075 320.473C408.84 320.613 408.715 320.953 408.871 321.232C408.987 321.535 409.276 321.681 409.573 321.557C415.483 319.623 425.875 316.183 431.646 314.279C431.964 314.195 432.293 314.318 432.409 314.62C432.565 314.9 432.463 315.28 432.189 315.444C423.274 321.726 400.264 337.914 389.34 345.554C389.089 345.758 388.948 346.161 389.125 346.481C389.303 346.8 389.693 346.939 390.006 346.752C404.224 340.442 437.509 325.669 447.25 321.341C447.663 321.147 448.131 321.238 448.431 321.591C448.732 321.943 448.797 322.436 448.595 322.823C447.865 324.323 446.95 326.146 446.22 327.646C446.035 327.97 446.095 328.359 446.39 328.608C446.646 328.881 447.031 328.917 447.344 328.73C454.496 324.246 474.995 311.419 474.995 311.419L463.118 284.898Z" fill="white"/>
<path fill-rule="evenodd" clip-rule="evenodd" d="M463.652 284.632C463.585 284.513 463.457 284.376 463.273 284.327C463.15 284.294 462.949 284.307 462.854 284.417C462.854 284.417 421.759 311.407 408.784 319.954C408.298 320.298 408.089 320.954 408.338 321.496C408.588 322.039 409.167 322.331 409.743 322.147L431.794 314.828C431.856 314.844 431.855 314.844 431.878 314.884C431.9 314.924 431.9 314.924 431.883 314.987L389.031 345.1C388.505 345.467 388.319 346.165 388.652 346.764C388.924 347.346 389.62 347.567 390.213 347.32C404.431 341.009 437.697 326.196 447.439 321.867C447.656 321.79 447.879 321.816 448.029 321.992C448.157 322.128 448.19 322.375 448.1 322.588L445.702 327.371C445.449 327.948 445.525 328.647 445.97 329.073C446.454 329.475 447.124 329.554 447.611 329.211C454.785 324.766 475.285 311.937 475.285 311.937C475.559 311.773 475.645 311.457 475.528 311.154L463.652 284.632ZM462.883 285.783L474.261 311.219L447.056 328.212C446.978 328.259 446.815 328.248 446.771 328.169C446.687 328.112 446.682 328.01 446.716 327.883L449.115 323.1C449.446 322.476 449.326 321.698 448.836 321.192C448.386 320.664 447.672 320.504 447.001 320.799C437.26 325.127 403.994 339.94 389.776 346.251C389.736 346.275 389.675 346.26 389.631 346.18C389.609 346.14 389.625 346.075 389.665 346.052C400.566 338.371 423.6 322.221 432.516 315.939C433.002 315.595 433.189 314.898 432.939 314.356C432.69 313.814 432.072 313.546 431.497 313.73L409.423 321.009C409.383 321.032 409.361 320.991 409.361 320.991L409.378 320.929L462.883 285.783Z" fill="#F19E5A"/>
<path fill-rule="evenodd" clip-rule="evenodd" d="M256.355 15.4148L250.096 19.7766C249.826 19.9377 249.764 20.3198 249.936 20.5766C250.097 20.8454 250.47 20.9327 250.723 20.7494L256.998 16.4093C257.262 16.214 257.342 15.8546 257.153 15.5756C256.981 15.3188 256.636 15.2417 256.355 15.4148Z" fill="url(#paint5_linear_37_277)"/>
<path fill-rule="evenodd" clip-rule="evenodd" d="M446.107 301.215L439.441 305.821C439.16 305.967 439.098 306.332 439.272 306.606C439.447 306.881 439.816 306.978 440.071 306.794L446.737 302.188C447.003 301.99 447.065 301.626 446.891 301.352C446.716 301.077 446.373 301.017 446.107 301.215Z" fill="#F19E5A"/>
<path fill-rule="evenodd" clip-rule="evenodd" d="M246.204 37.1724L237.705 43.6515C237.434 43.8453 237.385 44.2224 237.578 44.4608C237.763 44.7385 238.128 44.7845 238.377 44.6069L246.876 38.1281C247.132 37.9112 247.196 37.5577 246.988 37.2962C246.818 37.0416 246.453 36.9948 246.204 37.1724Z" fill="url(#paint6_linear_37_277)"/>
<path fill-rule="evenodd" clip-rule="evenodd" d="M434.286 339.2L423.507 346.31C423.248 346.465 423.156 346.84 423.317 347.115C423.478 347.39 423.846 347.488 424.111 347.275L434.89 340.166C435.149 340.01 435.242 339.636 435.08 339.36C434.891 339.102 434.545 339.044 434.286 339.2Z" fill="#F19E5A"/>
<path fill-rule="evenodd" clip-rule="evenodd" d="M227.981 30.1762L222.916 31.8359C222.603 31.9441 222.444 32.2638 222.536 32.5555C222.611 32.8828 222.949 33.0318 223.236 32.9327L228.335 31.2899C228.623 31.1907 228.808 30.8626 228.707 30.5443C228.614 30.2526 228.295 30.068 227.981 30.1762Z" fill="url(#paint7_linear_37_277)"/>
<path fill-rule="evenodd" clip-rule="evenodd" d="M401.877 329.186L394.267 333.567C393.994 333.73 393.87 334.069 394.026 334.348C394.181 334.627 394.509 334.75 394.783 334.587L402.454 330.224C402.727 330.06 402.828 329.681 402.673 329.402C402.517 329.123 402.15 329.023 401.877 329.186Z" fill="#F19E5A"/>
<path d="M261.621 17.7622C264.023 22.0836 269.403 23.5357 273.639 21.0057C277.875 18.4756 279.361 12.9213 276.959 8.59988C274.557 4.27842 269.174 2.82488 264.939 5.35492C260.703 7.88496 259.218 13.4407 261.621 17.7622Z" fill="white"/>
<path fill-rule="evenodd" clip-rule="evenodd" d="M277.439 8.31444C274.878 3.70799 269.184 2.17028 264.669 4.86718C260.154 7.56407 258.532 13.4726 261.092 18.0791C263.653 22.6855 269.397 24.1909 273.912 21.494C278.427 18.7971 280 12.9209 277.439 8.31444ZM276.453 8.90354C278.69 12.9276 277.296 18.1308 273.352 20.4867C269.408 22.8426 264.367 21.4831 262.13 17.4591C259.893 13.4351 261.285 8.23033 265.229 5.87442C269.173 3.51851 274.216 4.87951 276.453 8.90354Z" fill="url(#paint8_linear_37_277)"/>
<path d="M456.745 305.628C460.687 312.719 469.515 315.101 476.465 310.95C483.414 306.799 485.854 297.686 481.912 290.595C477.971 283.505 469.139 281.12 462.189 285.271C455.24 289.422 452.804 298.538 456.745 305.628Z" fill="white"/>
<path fill-rule="evenodd" clip-rule="evenodd" d="M482.358 290.332C478.253 282.948 469.128 280.41 461.891 284.734C454.653 289.057 452.112 298.562 456.218 305.947C460.323 313.331 469.528 315.816 476.766 311.492C484.004 307.169 486.463 297.717 482.358 290.332ZM481.422 290.892C485.189 297.668 482.829 306.483 476.187 310.451C469.46 314.469 461.006 312.113 457.239 305.337C453.472 298.561 455.743 289.794 462.47 285.776C469.111 281.808 477.654 284.115 481.422 290.892Z" fill="#F19E5A"/>
<path fill-rule="evenodd" clip-rule="evenodd" d="M431.326 164.417C431.326 164.417 432.07 156.797 432.912 152.936C432.912 152.936 437.445 148.077 439.501 147.157C439.501 147.157 450.65 134.089 455.035 128.95C455.506 128.413 456.149 128.106 456.843 128.055C457.537 128.029 458.206 128.259 458.726 128.745C459.519 129.512 459.643 130.739 459.048 131.634C456.175 135.93 448.494 147.438 448.494 147.438C448.494 147.438 452.483 148 454.069 152.143C454.069 152.143 457.165 153.626 457.488 157.896C457.488 157.896 459.89 159.686 459.271 163.829C459.271 163.829 454.564 171.168 445.571 175.285L442.35 179.146L431.326 164.417Z" fill="#FFC8A3"/>
<path fill-rule="evenodd" clip-rule="evenodd" d="M440.642 148.256C440.642 148.256 443.714 149.586 448.223 150.865C448.297 151.223 448.347 151.862 447.975 152.424C447.752 152.782 447.331 153.115 446.662 153.345C444.011 154.24 440.939 153.856 440.939 153.856C440.617 153.805 440.345 154.035 440.295 154.368C440.246 154.674 440.469 154.981 440.791 155.007C440.791 155.007 444.135 155.442 447.034 154.47C448.025 154.138 448.594 153.626 448.941 153.064C449.783 151.734 449.238 150.174 449.238 150.174C449.164 149.995 449.016 149.867 448.842 149.816C444.259 148.537 441.088 147.182 441.088 147.182C440.791 147.054 440.444 147.208 440.345 147.489C440.221 147.796 440.345 148.154 440.642 148.256Z" fill="#000045"/>
<path fill-rule="evenodd" clip-rule="evenodd" d="M452.186 153.268L447.727 158.408C447.058 159.175 445.943 159.277 445.175 158.638C444.159 157.768 443.069 156.541 443.787 155.084C443.936 154.802 443.837 154.444 443.539 154.29C443.267 154.137 442.921 154.239 442.772 154.546C441.781 156.566 443.044 158.357 444.432 159.558C445.695 160.607 447.504 160.453 448.594 159.2C450.303 157.206 453.053 154.035 453.053 154.035C453.251 153.805 453.226 153.421 453.003 153.217C452.755 152.986 452.409 153.012 452.186 153.268Z" fill="#000045"/>
<path fill-rule="evenodd" clip-rule="evenodd" d="M448.347 157.743C448.347 157.743 447.777 158.357 447.232 158.97C446.34 159.942 446.315 161.451 447.157 162.448C447.603 162.959 448.098 163.548 448.544 164.085C448.99 164.647 449.659 164.954 450.378 164.98C451.072 165.005 451.74 164.724 452.236 164.212C454.094 162.269 457.017 159.226 457.017 159.226C457.24 158.97 457.24 158.612 457.017 158.382C456.795 158.152 456.423 158.152 456.2 158.382C456.2 158.382 453.276 161.451 451.418 163.394C451.17 163.676 450.798 163.829 450.402 163.803C450.03 163.803 449.659 163.624 449.411 163.317C448.965 162.78 448.47 162.192 448.024 161.681C447.578 161.144 447.578 160.3 448.049 159.788C448.618 159.149 449.163 158.536 449.163 158.536C449.386 158.306 449.387 157.922 449.139 157.692C448.916 157.487 448.545 157.487 448.347 157.743Z" fill="#000045"/>
<path fill-rule="evenodd" clip-rule="evenodd" d="M452.385 162.422C452.385 162.422 451.84 163.01 451.295 163.624C450.453 164.544 450.378 165.977 451.122 166.999C451.716 167.818 452.335 168.713 452.335 168.713C452.533 168.968 452.88 169.019 453.153 168.815C453.401 168.636 453.45 168.253 453.252 167.997C453.252 167.997 452.633 167.127 452.038 166.309C451.617 165.721 451.666 164.954 452.137 164.417L453.227 163.215C453.426 162.985 453.426 162.601 453.178 162.397C452.955 162.166 452.608 162.166 452.385 162.422Z" fill="#000045"/>
<path fill-rule="evenodd" clip-rule="evenodd" d="M340.351 148.498C340.351 148.498 344.719 150.454 350.158 155.416C355.597 160.378 390.127 199.507 390.127 199.507C390.127 199.507 406.28 180.68 412.296 174.016C418.285 167.325 423.421 168.261 423.421 168.261L430.508 161.569C430.508 161.569 440.727 166.361 444.491 180.283L438.639 190.604C438.639 190.604 439.381 194.29 434.766 201.889C430.151 209.516 412.873 231.973 404.247 241.273C395.594 250.601 386.336 247.879 372.546 237.02C358.729 226.16 337.192 204.81 337.192 204.81L340.351 148.498Z" fill="#F19E5A"/>
<path fill-rule="evenodd" clip-rule="evenodd" d="M426.031 169.849C426.031 169.849 434.492 176.172 437.074 186.72C437.129 187.031 437.459 187.23 437.761 187.145C438.063 187.06 438.255 186.748 438.173 186.436C435.508 175.463 426.69 168.885 426.69 168.885C426.443 168.686 426.086 168.743 425.894 168.998C425.729 169.282 425.784 169.65 426.031 169.849Z" fill="white"/>
<path fill-rule="evenodd" clip-rule="evenodd" d="M389.772 199.138C389.772 199.138 384.855 204.611 384.553 212.578C384.525 212.89 384.773 213.174 385.102 213.174C385.404 213.202 385.678 212.947 385.678 212.636C385.981 205.122 390.623 199.961 390.623 199.961C390.815 199.706 390.816 199.337 390.568 199.11C390.349 198.883 389.992 198.912 389.772 199.138Z" fill="white"/>
<path fill-rule="evenodd" clip-rule="evenodd" d="M220.693 148.073C224.319 158.819 223.825 170.756 219.073 181.332C208.14 205.547 190.943 243.655 179.049 270.052C178.912 270.336 179.021 270.704 179.324 270.846C179.598 270.959 179.956 270.846 180.093 270.563C191.988 244.165 209.184 206.057 220.117 181.814C225.006 170.954 225.473 158.706 221.765 147.704C221.655 147.392 221.326 147.222 221.023 147.335C220.749 147.449 220.583 147.761 220.693 148.073Z" fill="white"/>
<path fill-rule="evenodd" clip-rule="evenodd" d="M296.977 131.656C297.801 130.947 298.927 130.72 299.943 131.06C304.311 132.478 318.212 137.071 330.079 141.92C330.079 141.92 330.82 143.281 330.628 146.116L347.604 153.092L283.352 317.942C283.352 317.942 261.54 317.461 242.971 311.109L279.478 135.909L294.257 134.746C294.257 134.746 295.384 132.96 296.977 131.656Z" fill="#E3CB54"/>
<path fill-rule="evenodd" clip-rule="evenodd" d="M196.629 217.852C210.034 182.636 231.378 158.337 242.641 147.194C247.146 142.771 252.859 139.907 259.013 138.999C268.49 137.61 282.17 135.625 282.17 135.625L294.01 134.52C296.373 184.99 263.435 276.971 241.432 322.394C241.432 322.394 201.848 317.574 182.866 303.369C180.888 301.894 180.201 299.144 181.218 296.847C187.453 282.67 209.21 233.249 209.21 233.249L196.629 217.852Z" fill="#F19E5A"/>
<path fill-rule="evenodd" clip-rule="evenodd" d="M297.965 137.582C297.965 137.582 312.662 144.529 325.601 146.457C325.903 146.514 326.204 146.286 326.259 145.975C326.287 145.634 326.067 145.351 325.765 145.294C312.964 143.366 298.46 136.505 298.46 136.505C298.158 136.363 297.828 136.505 297.691 136.788C297.553 137.072 297.691 137.44 297.965 137.582Z" fill="white"/>
<path fill-rule="evenodd" clip-rule="evenodd" d="M330.792 145.918C321.315 202.881 307.442 263.02 277.418 325.456C277.418 325.456 291.153 330.305 312.854 321.997C314.695 321.288 316.068 319.701 316.563 317.744C320.765 301.044 340.736 221.482 340.736 221.482L339.611 149.746L330.792 145.918Z" fill="#F19E5A"/>
<path fill-rule="evenodd" clip-rule="evenodd" d="M336.011 146.825C335.791 146.739 335.544 146.796 335.379 146.966C335.214 147.136 335.187 147.392 335.27 147.619C337.22 155.926 339.747 195.396 338.978 227.549C338.978 227.549 352.96 195.792 347.357 152.836C347.357 152.836 347.439 151.333 344.417 150.057C342.137 149.093 337.989 147.533 336.011 146.825Z" fill="#7CB78E"/>
<path fill-rule="evenodd" clip-rule="evenodd" d="M270.825 137.808C270.825 137.241 271.183 136.731 271.705 136.561C273.546 135.937 278.078 134.661 283.242 134.831C283.929 134.86 284.479 135.455 284.479 136.164C284.396 146.74 282.226 220.801 239.29 233.957C237.56 234.496 229.813 233.475 228.906 235.063C228.906 235.063 270.798 220.262 270.825 137.808Z" fill="#7CB78E"/>
<path fill-rule="evenodd" clip-rule="evenodd" d="M251.321 153.403C251.321 153.403 254.617 163.469 252.227 177.447C252.172 177.759 252.392 178.071 252.694 178.128C253.024 178.185 253.299 177.958 253.354 177.646C255.799 163.327 252.419 153.034 252.419 153.034C252.31 152.723 251.98 152.553 251.678 152.666C251.403 152.751 251.238 153.091 251.321 153.403Z" fill="white"/>
<path fill-rule="evenodd" clip-rule="evenodd" d="M269.314 201.973L260.249 234.014C260.057 234.609 259.508 234.978 258.931 234.921C252.311 234.241 215.885 230.469 215.885 230.469C214.649 230.328 213.578 231.235 213.44 232.511C213.331 233.759 214.209 234.893 215.418 235.006C223.714 235.885 252.887 238.919 261.156 239.77C261.375 239.798 261.567 239.77 261.76 239.742C262.666 239.656 263.436 239.032 263.711 238.097L273.6 203.249L275.303 203.76C277.226 204.355 279.204 203.221 279.781 201.236C282.39 192.05 289.313 167.637 291.895 158.45C292.472 156.465 291.373 154.424 289.45 153.828C286.813 153.034 283.187 151.929 280.55 151.135C278.627 150.568 276.649 151.702 276.072 153.658C273.462 162.873 266.567 187.286 263.957 196.473C263.381 198.43 264.48 200.499 266.403 201.066L269.314 201.973Z" fill="#C5D0FF"/>
<path fill-rule="evenodd" clip-rule="evenodd" d="M258.961 177.681C258.961 177.681 264.795 167.325 266.895 164.528L273.681 163.092L272.167 168.711C272.167 168.711 282.25 170.903 285.033 169.895C287.84 168.862 289.402 167.627 289.402 167.627C289.402 167.627 289.305 172.087 287.523 174.154C287.523 174.154 287.864 176.27 286.546 178.966C286.546 178.966 286.961 181.335 285.033 183.855C285.033 183.855 285.179 186.349 283.421 188.516C281.639 190.709 267.431 192.926 267.431 192.926L258.961 185.064V177.681Z" fill="#FFC8A3"/>
<path fill-rule="evenodd" clip-rule="evenodd" d="M258.354 176.796C257.942 176.228 257.173 176.086 256.569 176.427C254.124 177.759 248.245 180.963 248.245 180.963C248.245 180.963 244.921 179.716 241.24 181.417C237.532 183.118 200.914 205.405 196.464 217.824C192.014 230.243 198.772 250.006 212.232 246.717C225.665 243.428 259.288 212.238 260.964 208.921C262.64 205.631 262.557 201.945 262.557 201.945C262.557 201.945 266.513 197.919 268.106 196.303C268.491 195.878 268.628 195.254 268.436 194.715C266.101 188.222 262.667 182.296 258.354 176.796Z" fill="#F19E5A"/>
<path fill-rule="evenodd" clip-rule="evenodd" d="M212.369 247.284C220.473 245.299 235.937 233.248 247.338 223.154C252.639 218.476 257.09 214.223 259.48 211.643C260.579 210.48 261.265 209.629 261.485 209.204C262.968 206.283 263.105 203.108 263.133 202.172L268.489 196.7C269.066 196.133 269.231 195.282 268.984 194.517C266.622 187.967 263.16 181.984 258.82 176.427C258.216 175.661 257.145 175.434 256.293 175.888C254.151 177.079 249.261 179.744 248.19 180.34C247.31 180.056 244.289 179.376 240.993 180.878C238.493 182.041 220.747 192.702 208.193 203.335C207.945 203.533 207.919 203.93 208.111 204.157C208.331 204.412 208.688 204.469 208.935 204.242C221.379 193.694 238.96 183.118 241.459 181.956C244.948 180.368 248.052 181.53 248.052 181.53C248.217 181.587 248.382 181.559 248.519 181.502C248.519 181.502 254.398 178.27 256.843 176.937C257.2 176.739 257.666 176.823 257.913 177.164C262.199 182.608 265.605 188.506 267.885 194.914C268.023 195.254 267.94 195.622 267.693 195.877L262.145 201.52C262.035 201.633 261.979 201.803 261.979 201.945C261.979 201.945 262.062 205.49 260.468 208.666C260.276 209.034 259.645 209.771 258.656 210.82C256.266 213.372 251.87 217.597 246.596 222.276C235.333 232.199 220.116 244.193 212.094 246.15C211.792 246.206 211.6 246.546 211.682 246.858C211.737 247.17 212.039 247.369 212.369 247.284Z" fill="white"/>
<path fill-rule="evenodd" clip-rule="evenodd" d="M249.289 183.827C249.289 183.827 256.129 190.972 260.524 200.102C260.689 200.386 261.019 200.499 261.293 200.358C261.596 200.216 261.706 199.847 261.568 199.563C257.063 190.292 250.113 183.005 250.113 183.005C249.894 182.778 249.537 182.75 249.317 183.005C249.07 183.232 249.07 183.6 249.289 183.827Z" fill="white"/>
<defs>
<linearGradient id="paint0_linear_37_277" x1="143.388" y1="289.807" x2="72.3502" y2="406.082" gradientUnits="userSpaceOnUse">
<stop stop-color="#E9F2E6"/>
<stop offset="0.6" stop-color="#E9F2E6" stop-opacity="0.823529"/>
<stop offset="0.81" stop-color="#E9F2E6" stop-opacity="0.419608"/>
<stop offset="1" stop-color="#E9F2E6" stop-opacity="0"/>
</linearGradient>
<linearGradient id="paint1_linear_37_277" x1="304.143" y1="340.921" x2="260.964" y2="463.484" gradientUnits="userSpaceOnUse">
<stop stop-color="#E9F2E6"/>
<stop offset="0.57" stop-color="#E9F2E6" stop-opacity="0.803922"/>
<stop offset="0.8" stop-color="#E9F2E6" stop-opacity="0.392157"/>
<stop offset="1" stop-color="#E9F2E6" stop-opacity="0"/>
</linearGradient>
<linearGradient id="paint2_linear_37_277" x1="354.512" y1="288.491" x2="361.732" y2="288.47" gradientUnits="userSpaceOnUse">
<stop stop-color="#E3CB54"/>
<stop offset="1" stop-color="#7CB78E"/>
</linearGradient>
<linearGradient id="paint3_linear_37_277" x1="29.3841" y1="268.283" x2="56.7909" y2="261.205" gradientUnits="userSpaceOnUse">
<stop stop-color="#F19E5A"/>
<stop offset="1" stop-color="#7CB78E"/>
</linearGradient>
<linearGradient id="paint4_linear_37_277" x1="233.76" y1="25.69" x2="241.415" y2="38.479" gradientUnits="userSpaceOnUse">
<stop stop-color="#E3CB54"/>
<stop offset="1" stop-color="#7CB78E"/>
</linearGradient>
<linearGradient id="paint5_linear_37_277" x1="251.855" y1="18.3504" x2="253.389" y2="19.8247" gradientUnits="userSpaceOnUse">
<stop stop-color="#E3CB54"/>
<stop offset="1" stop-color="#7CB78E"/>
</linearGradient>
<linearGradient id="paint6_linear_37_277" x1="240.306" y1="41.5889" x2="241.004" y2="42.5648" gradientUnits="userSpaceOnUse">
<stop stop-color="#E3CB54"/>
<stop offset="1" stop-color="#7CB78E"/>
</linearGradient>
<linearGradient id="paint7_linear_37_277" x1="224.418" y1="31.4645" x2="224.744" y2="32.4098" gradientUnits="userSpaceOnUse">
<stop stop-color="#E3CB54"/>
<stop offset="1" stop-color="#7CB78E"/>
</linearGradient>
<linearGradient id="paint8_linear_37_277" x1="262.847" y1="8.41182" x2="270.675" y2="21.4289" gradientUnits="userSpaceOnUse">
<stop stop-color="#E3CB54"/>
<stop offset="1" stop-color="#7CB78E"/>
</linearGradient>
</defs>
</svg>
