<svg width="68" height="77" viewBox="0 0 68 77" fill="none" xmlns="http://www.w3.org/2000/svg">
<g clip-path="url(#clip0_132_486)">
<path d="M48 22.8L27 11.2L27.2 4L54.4 18.7L48 22.8Z" fill="#991B1E"/>
<path d="M41.2001 51.0999L13.7001 33.5999C11.5001 34.8999 9.3001 36.2999 7.1001 37.5999C16.2001 43.6999 25.3001 49.7999 34.4001 55.8999L41.2001 51.0999Z" fill="#EA929D"/>
<path d="M2.30005 47.5L7.80005 44.8L27.3 58.4001V65.2001L2.30005 47.5Z" fill="#EA929D"/>
<path d="M64.0001 47.5L57.0001 43.3L40.9001 55.6001L40.6001 65.1001L64.0001 47.5Z" fill="#EA929D"/>
<path d="M12.8 34.2L7.09995 37.7L6.69995 30.2L12.8 34.2Z" fill="#E7444F"/>
<path d="M34.9 40.6C34.8 43.2 34.7 45.9 34.7 48.5C25.3 42.4 16 36.3 6.7 30.2L7.1 37.7L34.4 56L34.3 63.1L33.9 76.2999L2.7 53.7999L2.3 47.4L27.3 65.1V58.2999L1.3 40.2L0 18.7L34.9 40.6Z" fill="#991B1E"/>
<path d="M0 18.7L34.9 40.6L67.7 18.8L33.1 0.699951L27.2 3.99995L54.4 18.7L34.6 31.3L6.9 14.6L0 18.7Z" fill="#FFC82C"/>
<path d="M41.2001 51.0999C41.0001 55.7999 40.8 60.3999 40.6 65.0999L64.2 47.3999L63.5 53.5999L33.8 76.2999C34 69.4999 34.2 62.7999 34.3 55.9999" fill="#E7444F"/>
<path d="M34.7 48.5L34.9 40.6L67.6999 18.8L67.0999 26.3L41.5 43.9" fill="#E7444F"/>
</g>
<defs>
<clipPath id="clip0_132_486">
<rect width="67.7" height="75.6" fill="white" transform="translate(0 0.699951)"/>
</clipPath>
</defs>
</svg>
