<svg width="184" height="39" viewBox="0 0 184 39" fill="none" xmlns="http://www.w3.org/2000/svg">
<path d="M25.9 22.5C25.9 24.7001 25.1 26.4 23.4 27.8C21.6 29.3 19.1 30.1 15.9 30.1C15.6 30.1 14.4 30.1 12.5 30C10.6 29.9 9.2 29.9 8.3 29.9H5C4.9 29.9 4.8 29.8001 4.8 29.7001V29C4.8 28.9 4.9 28.8 5 28.8H8C8.4 28.8 8.5 28.6 8.5 28.1C8.5 27.9 8.5 25.9 8.4 21.9C8.3 17.9 8.3 15.7 8.3 15.3V6.90005C8.2 4.40005 7.9 3.10005 7.5 3.10005H4.2C4.1 3.10005 4 3.00005 4 2.80005V2.20005C4 2.10005 4.1 2.00005 4.2 2.00005H10.7C10.9 2.00005 11.7 2.00005 13 1.90005C14.3 1.80005 15.1 1.80005 15.4 1.80005H17.5C18.2 1.80005 19.1 2.00005 20.3 2.30005C21.4 2.70005 22.4 3.40005 23.1 4.20005C24 5.20005 24.4 6.50005 24.4 7.90005C24.4 9.00005 24.2 9.90005 23.8 10.7C23.6 11 23.2 11.6 22.6 12.3C21.8 13.3 20.7 14.1 19.3 14.9C19 15.1 19 15.2 19.3 15.3C20.9 15.8 22.4 16.6 23.7 17.6C25.2 18.9 25.9 20.5 25.9 22.5ZM21.2 9.60005C21.2 7.80005 20.5 6.30005 19.2 5.00005C17.9 3.70005 16.2 3.10005 14 3.10005C13 3.10005 12.4 3.10005 12.1 3.20005C11.9 3.30005 11.8 3.40005 11.7 3.60005C11.7 3.90005 11.7 7.40005 11.7 14.3C11.7 14.6 11.8 14.7 11.9 14.7C11.9 14.7 12.2 14.7 12.8 14.7C13.4 14.7 14.1 14.7 14.7 14.7C15 14.7 15.5 14.7 16.4 14.8C17.4 14.9 17.9 14.9 18 14.9C18.1 14.9 18.3 14.9 18.5 14.7C19.3 14.3 20 13.6 20.5 12.7C21 11.8 21.2 10.7 21.2 9.60005ZM22.2 23C22.2 21.1 21.5 19.5 20.2 18.2001C18.3 16.4001 15.8 15.5 12.7 15.5C12.3 15.5 12 15.5 11.9 15.6C11.8 15.6 11.7 15.8 11.7 16V25C11.8 27.1 12 28.3 12.4 28.4C13.2 28.7 14.3 28.9 15.9 28.9C17.8 28.9 19.3 28.5 20.3 27.6C21.5 26.6 22.2 25.1 22.2 23Z" fill="#001A4F"/>
<path d="M108.9 27.4V27.5C108.5 27.9 108.2 28.1 108 28.3C107.6 28.6 107 28.9 106.2 29.3C105 29.8 103.7 30.1 102.3 30.1C100.2 30.1 98.5 29.5 97.3 28.2C95.8 26.7 95 24.8 95 22.7C95 21.1 95.1 20.9 95.3 20.2C95.7 18.4 96.5 17 97.5 16C98.7 14.8 100.2 14.2 102 14.2C102.9 14.2 103.6 14.3 104.1 14.6C104.5 14.8 105.2 15.2 106.2 15.9C107.3 16.7 108.1 17.5 108.5 18.4C108.6 18.6 108.6 18.8 108.6 19C108.6 19.1 108.5 19.2 108.3 19.3C107.8 19.5 106.5 19.8 104.3 20.2C101.8 20.7 100.1 20.9 99.3 20.9C99.2 20.9 98.9 20.9 98.4 20.9C97.9 20.9 97.2 21 97.1 21C97 21 97.3 20.3 97.3 20.8C97.3 23.3 98.2 25.3 100 26.9C101 27.7 102.6 28.2 104.8 28.2C105.9 28.2 106.9 28.1 107.6 27.8C108.1 27.6 108.5 27.5 108.7 27.3C108.7 27.3 108.8 27.2 108.9 27.2C109 27.2 109 27.2 109 27.3C108.8 27.3 108.8 27.4 108.9 27.4ZM105.6 18.8C105.6 18.7 105.5 18.5 105.4 18.3C104.9 17.4 104.2 16.6 103.5 16C102.7 15.4 101.8 15.1 100.8 15.1C100 15.1 99.3 15.6 98.6 16.5C98.3 16.8 98.1 17.4 97.8 18.1C97.5 18.9 97.3 19.5 97.3 19.9C97.3 20.1 97.4 20.2 97.5 20.2C97.4 20.2 98.4 20.1 100.6 19.9C102.7 19.7 104.2 19.5 105.3 19.1C105.5 19 105.6 18.9 105.6 18.8Z" fill="#001A4F"/>
<path d="M86.6 26.8001V26.9001C86.2 27.3001 85.9 27.5001 85.7 27.7001C85.3 28.0001 84.7 28.3001 83.9 28.7001C82.7 29.2001 81.4 29.5001 80 29.5001C77.9 29.5001 76.2 28.9001 75 27.6001C73.5 26.1001 72.7 24.2001 72.7 22.1001C72.7 20.5001 72.8 20.3001 73 19.6001C73.4 17.8001 74.2 16.4001 75.2 15.4001C76.4 14.2001 77.9 13.6001 79.7 13.6001C80.6 13.6001 81.3 13.7001 81.8 14.0001C82.2 14.2001 82.9 14.6001 83.9 15.3001C85 16.1001 85.8 16.9001 86.2 17.8001C86.3 18.0001 86.3 18.2001 86.3 18.4001C86.3 18.5001 86.2 18.6001 86 18.7001C85.5 18.9001 84.2 19.2001 82 19.6001C79.5 20.1001 77.8 20.3001 77 20.3001C76.9 20.3001 76.6 20.3001 76.1 20.3001C75.6 20.3001 74.9 20.4001 74.8 20.4001C74.7 20.4001 75 19.7001 75 20.2001C75 22.7001 75.9 24.7001 77.7 26.3001C78.7 27.1001 80.3 27.6001 82.5 27.6001C83.6 27.6001 84.6 27.5001 85.3 27.2001C85.8 27.0001 86.2 26.9001 86.4 26.7001C86.4 26.7001 86.5 26.6001 86.6 26.6001C86.7 26.6001 86.7 26.6001 86.7 26.7001C86.6 26.7001 86.6 26.8001 86.6 26.8001ZM83.3 18.2001C83.3 18.1001 83.2 17.9001 83.1 17.7001C82.6 16.8001 81.9 16.0001 81.2 15.4001C80.4 14.8001 79.5 14.5001 78.5 14.5001C77.7 14.5001 77 15.0001 76.3 15.9001C76 16.2001 75.8 16.8001 75.5 17.5001C75.2 18.3001 75 18.9001 75 19.3001C75 19.5001 75.1 19.6001 75.2 19.6001C75.1 19.6001 76.1 19.5001 78.3 19.3001C80.4 19.1001 81.9 18.9001 83 18.5001C83.2 18.4001 83.3 18.3001 83.3 18.2001Z" fill="#001A4F"/>
<path d="M41.5001 26.8001V26.9001C41.1001 27.3001 40.8001 27.5001 40.6001 27.7001C40.2001 28.0001 39.6001 28.3001 38.8001 28.7001C37.6001 29.2001 36.3001 29.5001 34.9001 29.5001C32.8001 29.5001 31.1001 28.9001 29.9001 27.6001C28.4001 26.1001 27.6001 24.2001 27.6001 22.1001C27.6001 20.5001 27.7001 20.3001 27.9001 19.6001C28.3001 17.8001 29.1001 16.4001 30.1001 15.4001C31.3001 14.2001 32.8001 13.6001 34.6001 13.6001C35.5001 13.6001 36.2001 13.7001 36.7001 14.0001C37.1001 14.2001 37.8001 14.6001 38.8001 15.3001C39.9001 16.1001 40.7001 16.9001 41.1001 17.8001C41.2001 18.0001 41.2001 18.2001 41.2001 18.4001C41.2001 18.5001 41.1001 18.6001 40.9001 18.7001C40.4001 18.9001 39.1001 19.2001 36.9001 19.6001C34.4001 20.1001 32.7001 20.3001 31.9001 20.3001C31.8001 20.3001 31.5001 20.3001 31.0001 20.3001C30.5001 20.3001 29.8001 20.4001 29.7001 20.4001C29.6001 20.4001 29.9001 19.7001 29.9001 20.2001C29.9001 22.7001 30.8001 24.7001 32.6001 26.3001C33.6001 27.1001 35.2001 27.6001 37.4001 27.6001C38.5001 27.6001 39.5001 27.5001 40.2001 27.2001C40.7001 27.0001 41.1001 26.9001 41.3001 26.7001C41.3001 26.7001 41.4001 26.6001 41.5001 26.6001C41.6001 26.6001 41.6001 26.6001 41.6001 26.7001C41.4001 26.7001 41.4001 26.8001 41.5001 26.8001ZM38.2001 18.2001C38.2001 18.1001 38.1001 17.9001 38.0001 17.7001C37.5001 16.8001 36.8001 16.0001 36.1001 15.4001C35.3001 14.8001 34.4001 14.5001 33.4001 14.5001C32.6001 14.5001 31.9001 15.0001 31.2001 15.9001C30.9001 16.2001 30.7001 16.8001 30.4001 17.5001C30.1001 18.3001 29.9001 18.9001 29.9001 19.3001C29.9001 19.5001 30.0001 19.6001 30.1001 19.6001C30.0001 19.6001 31.0001 19.5001 33.2001 19.3001C35.3001 19.1001 36.8001 18.9001 37.9001 18.5001C38.1001 18.4001 38.2001 18.3001 38.2001 18.2001Z" fill="#001A4F"/>
<path d="M54 15.9C53.9 16.6 53.7 17.3 53.5 18C53.4 18.2 53.4 18.3 53.2999 18.3C53.1999 18.3 53.1 18.2 53 18.1C52.7 17.7 52.5 17.4 52.2 17.2C51.8 16.9 51.2 16.7 50.5 16.7C49.2 16.7 48.3 17 47.7 17.5C47.6 17.6 47.5 17.8 47.5 18C47.5 18.1 47.5 19.4 47.5 21.9C47.5 24.4 47.5 25.7 47.5 25.9C47.5 27.9 47.6999 28.9 48.0999 28.9H51.4C51.5 28.9 51.5999 29 51.5999 29.1V29.6C51.5999 29.7 51.5 29.8 51.4 29.8H42.7999C42.5999 29.8 42.5999 29.7 42.5999 29.6V29.1C42.5999 28.9 42.6999 28.9 42.7999 28.9H44.7999C44.9999 28.9 45.0999 28.8 45.0999 28.6V17.6C45.0999 16.1 44.9 15.3 44.5 15.3H42.4C42.3 15.3 42.2 15.2 42.2 15.1V14.6C42.2 14.5 42.3 14.4 42.4 14.4H44.7C45.5 14.4 46 14.4 46.2 14.3C46.8 14.1 47.1 14 47.2 14C47.4 14 47.4 14.2 47.4 14.5C47.4 14.6 47.4 14.9 47.4 15.5C47.4 16.1 47.4 16.4 47.4 16.5C47.4 16.8 47.4999 16.9 47.5999 16.8C48.0999 16.4 48.7 15.9 49.4 15.3C50.2 14.7 50.9999 14.4 51.7999 14.4C52.6999 14.4 53.4 14.8 53.9 15.5C54.1 15.6 54.1 15.7 54 15.9Z" fill="#001A4F"/>
<path d="M74.3999 29.6C74.3999 29.7 74.3999 29.7999 74.2999 29.7999H69.2999C69.1999 29.7999 68.9999 29.7 68.8999 29.6C68.7999 29.6 68.2999 29 67.2999 27.9C66.2999 26.7999 65.7999 26.2 65.6999 26.1C65.4999 25.8 64.5999 24.7999 62.8999 23C62.6999 22.7999 62.4999 22.6999 62.3999 22.7999C61.7999 23.1999 60.9999 23.6 60.0999 24.2C59.8999 24.3 59.8999 24.5 59.8999 24.7C59.8999 27.6 60.0999 29 60.5999 29H63.4999C63.6999 29 63.7999 29 63.7999 29.1V29.6C63.7999 29.7 63.6999 29.7999 63.5999 29.7999H54.1999C53.9999 29.7999 53.9999 29.7 53.9999 29.6V29.1C53.9999 29 54.0999 28.9 54.1999 28.9H56.8999C57.0999 28.9 57.1999 28.8 57.1999 28.6V9.59995C57.1999 6.69995 56.8999 5.29995 56.3999 5.29995H54.0999C53.8999 5.29995 53.8999 5.29995 53.8999 5.19995V4.69995C53.8999 4.59995 53.9999 4.49995 54.0999 4.49995H55.5999C56.5999 4.49995 57.4999 4.39995 58.3999 4.19995C58.5999 4.19995 58.7999 4.09995 59.1999 3.89995C59.4999 3.79995 59.6999 3.69995 59.7999 3.69995C59.9999 3.69995 60.0999 3.89995 60.0999 4.29995C60.0999 4.29995 60.0999 7.39995 59.9999 13.5C59.8999 19.6 59.8999 22.6 59.8999 22.7C59.8999 23 59.9999 23.2 60.1999 23.1C60.9999 22.7 62.1999 21.9 63.7999 20.7C65.5999 19.4 67.0999 18.1 68.1999 17C68.7999 16.4 69.0999 15.8 69.0999 15.4C69.0999 15 68.7999 14.8 68.2999 14.8H66.2999C66.1999 14.8 66.0999 14.7 66.0999 14.6V14.1C66.0999 14 66.1999 13.9 66.2999 13.9H69.4999C70.0999 13.9 70.6999 13.9 71.1999 13.9C71.3999 13.9 71.5999 13.9 71.8999 13.8C72.0999 13.8 72.2999 13.7 72.3999 13.7C72.5999 13.7 72.6999 13.8 72.6999 14.1C72.6999 14.3 72.5999 14.6 72.2999 14.8C71.7999 15.5 70.7999 16.5 69.3999 17.7C68.9999 18 67.5999 19 64.7999 21.1C64.6999 21.2 64.6999 21.4 64.8999 21.5C64.9999 21.6 65.5999 22.1 66.5999 23.2C67.5999 24.2 68.0999 24.7999 68.1999 24.9C68.2999 25 69.2999 26 71.0999 27.9C71.7999 28.6 72.2999 29 72.6999 29H74.0999C74.1999 29 74.2999 29.1 74.2999 29.2V29.6H74.3999Z" fill="#001A4F"/>
<path d="M95.0999 29.6001C95.0999 29.7001 94.9999 29.7001 94.8999 29.7001H85.5999C85.3999 29.7001 85.3999 29.6001 85.3999 29.5001V29.0001C85.3999 28.9001 85.4999 28.8001 85.5999 28.8001H88.5999C88.8999 28.8001 88.9999 28.7001 88.9999 28.4001V8.60015C88.9999 6.00015 88.7999 4.70015 88.2999 4.70015H85.9999C85.8999 4.70015 85.7999 4.60015 85.7999 4.50015V3.90015C85.7999 3.70015 85.7999 3.70015 85.8999 3.70015H87.3999C88.2999 3.70015 89.1999 3.60015 90.0999 3.30015C90.9999 3.00015 91.4999 2.90015 91.3999 2.90015C91.5999 2.90015 91.6999 3.10015 91.6999 3.40015C91.6999 3.40015 91.6999 6.90015 91.5999 13.9001C91.4999 20.9001 91.4999 24.5001 91.4999 24.8001C91.4999 27.4001 91.6999 28.7001 92.1999 28.7001H94.8999C94.9999 28.7001 95.0999 28.8001 95.0999 28.9001V29.6001Z" fill="#001A4F"/>
<path d="M126 14.2001C126 14.3001 126 14.4001 125.9 14.4001H125.8H124.8C124.6 14.4001 124.4 14.5001 124.3 14.7001C124 15.2001 123.1 17.2001 121.9 20.7001C121.5 21.9001 120.1 25.2001 117.7 30.7001C116.3 33.8001 115.1 36.1001 114.2 37.7001C114.1 37.9001 114 38.0001 113.7 38.0001C113.6 38.0001 112.9 38.1001 111.5 38.3001C110.4 38.4001 109.8 38.5001 109.8 38.5001C109.6 38.5001 109.5 38.4001 109.5 38.3001C109.5 38.2001 109.6 38.1001 109.8 38.0001C111 37.5001 112.2 36.5001 113.4 35.0001C115.2 32.7001 116.4 31.0001 116.8 29.8001C116.9 29.6001 116.8 29.4001 116.7 29.2001C115.7 27.2001 114.4 24.4001 112.9 20.7001C112.4 19.4001 111.6 17.8001 110.7 15.7001C110.4 14.8001 110 14.4001 109.6 14.4001H109C108.8 14.4001 108.8 14.3001 108.8 14.2001V13.7001C108.8 13.6001 108.8 13.6001 108.8 13.6001C108.8 13.6001 108.9 13.6001 109 13.6001H116C116.1 13.6001 116.2 13.7001 116.2 13.8001V14.4001C116.2 14.5001 116.1 14.5001 116 14.5001H113.7C113.4 14.5001 113.3 14.6001 113.3 14.9001C113.3 15.0001 113.4 15.2001 113.5 15.6001C113.6 16.0001 114.3 17.6001 115.6 20.4001C116.4 22.3001 117.2 24.3001 118.2 26.5001C118.3 26.7001 118.4 26.7001 118.5 26.5001C119.3 24.9001 120.1 23.1001 120.7 21.0001C121.5 18.4001 122 16.7001 122 16.0001C122 15.1001 121.8 14.6001 121.3 14.6001H119.6C119.4 14.6001 119.3 14.6001 119.3 14.5001V13.9001C119.3 13.8001 119.4 13.7001 119.5 13.7001H125.7C125.8 13.7001 125.9 13.7001 125.9 13.8001V13.9001V14.2001H126Z" fill="#001A4F"/>
<path d="M157 30.4001C156.4 26.7001 156.6 9.70007 157.3 8.00007C160.7 7.90007 164.2 7.70007 167.7 8.70007C171.2 9.70007 174.7 14.1001 174.7 17.8001C174.7 20.3001 174.7 22.8001 173.4 25.1001C171.6 28.3001 168.7 30.0001 165.2 30.4001C162.5 30.6001 159.8 30.4001 157 30.4001ZM158.8 29.0001C161.7 29.4001 164.6 29.2001 167.3 28.4001C169.8 27.6001 171.3 25.8001 172.3 23.5001C172.7 22.5001 172.9 21.5001 173 20.4001C173.4 16.5001 171.7 11.0001 166.2 9.80007C164.2 9.40007 162.2 9.30007 160.1 9.20007C159.6 9.20007 159.1 9.40007 158.7 9.50007C158.2 11.6001 158.2 26.8001 158.8 29.0001Z" fill="#C08430"/>
<path d="M146.2 21C148.1 24.1 150.1 27.1 152 30.2C150.8 30.7 150.2 30.1 149.6 29.3C148.2 27 146.8 24.7 145.3 22.4C145 22 144.7 21.6 144.2 20.9C142.7 21 141.1 21.2 139.2 21.3C139.1 24.4 139 27.2 138.9 30.1C138.4 30.2 138 30.2 137.5 30.3C137.5 22.9 137.5 15.6 137.5 8.10001C138 8.20001 138.5 8.00001 139 8.00001C141 8.00001 143.1 7.90001 145.1 8.00001C148.6 8.20001 150.9 10 151.4 13C151.8 15.4 151.4 17.5 149.2 18.9C148.3 19.5 147.5 20.2 146.2 21ZM139.4 9.20001C139 12.9 139 16.2 139.6 19.7C141.7 19.9 143.8 20.1 145.8 19.5C148.2 18.8 150 16.5 150 14.4C150 12 148.4 10.1 145.5 9.50001C143.6 9.20001 141.6 9.30001 139.4 9.20001Z" fill="#C08430"/>
<path d="M179.7 30.8001C178.3 29.9001 178.6 29.0001 178.6 28.2001C178.6 23.2001 178.6 18.3001 178.6 13.3001C178.6 12.0001 178.5 10.7001 178.5 9.5001C178.5 8.8001 178.5 8.1001 179.8 8.1001C180.1 10.5001 179.9 13.0001 179.9 15.4001C179.9 18.0001 179.9 20.5001 179.9 23.1001C179.9 25.5001 180.1 27.9001 179.7 30.8001Z" fill="#C08430"/>
</svg>
