<svg width="151" height="45" viewBox="0 0 151 45" fill="none" xmlns="http://www.w3.org/2000/svg">
<path d="M52.3001 22.7H47.9001V13.8H52.2001C54.0001 13.8 55.1001 14.6 55.1001 16.1C55.1001 17.2 54.5001 17.9 53.6001 18.1C54.7001 18.3 55.3001 19.2 55.3001 20.2C55.3001 21.8 54.2001 22.7 52.3001 22.7ZM51.7001 15.8H50.5001V17.4H51.7001C52.3001 17.4 52.6001 17.1 52.6001 16.6C52.6001 16 52.3001 15.8 51.7001 15.8ZM51.8001 19.1H50.4001V20.7H51.8001C52.4001 20.7 52.7001 20.4 52.7001 19.9C52.8001 19.4 52.4001 19.1 51.8001 19.1Z" fill="#4C4C4C"/>
<path d="M61.0001 13.8V20.8H63.8001V22.7H58.6001V13.8H61.0001Z" fill="#4C4C4C"/>
<path d="M72.2001 22.8001C69.7001 22.8001 67.6001 20.9001 67.6001 18.2001C67.6001 15.5001 69.6001 13.6001 72.2001 13.6001C74.7001 13.6001 76.8001 15.5001 76.8001 18.2001C76.8001 20.9001 74.7001 22.8001 72.2001 22.8001ZM72.2001 20.5001C73.5001 20.5001 74.2001 19.6001 74.2001 18.2001C74.2001 16.8001 73.4001 15.9001 72.2001 15.9001C70.9001 15.9001 70.2001 16.8001 70.2001 18.2001C70.2001 19.6001 70.9001 20.5001 72.2001 20.5001Z" fill="#4C4C4C"/>
<path d="M84.1002 13.7002C86.3002 13.7002 87.9002 15.0002 88.4002 17.0002H85.7002C85.4002 16.3002 84.8002 16.0002 84.1002 16.0002C83.0002 16.0002 82.2002 16.9002 82.2002 18.2002C82.2002 19.6002 82.9002 20.5002 84.1002 20.5002C84.8002 20.5002 85.4002 20.1002 85.7002 19.5002H88.4002C88.0002 21.5002 86.4002 22.8002 84.1002 22.8002C81.4002 22.8002 79.7002 20.9002 79.7002 18.3002C79.7002 15.6002 81.4002 13.7002 84.1002 13.7002Z" fill="#4C4C4C"/>
<path d="M93.1001 18.8V22.7H90.6001V13.8H93.1001V17.6L95.9001 13.8H98.7001L95.4001 18.1L98.8001 22.7H95.8001L93.1001 18.8Z" fill="#4C4C4C"/>
<path d="M105 13.7002C107.2 13.7002 108.8 15.0002 109.3 17.0002H106.6C106.3 16.3002 105.7 16.0002 105 16.0002C103.9 16.0002 103.1 16.9002 103.1 18.2002C103.1 19.6002 103.8 20.5002 105 20.5002C105.7 20.5002 106.3 20.1002 106.6 19.5002H109.3C108.9 21.5002 107.3 22.8002 105 22.8002C102.3 22.8002 100.6 20.9002 100.6 18.3002C100.6 15.6002 102.3 13.7002 105 13.7002Z" fill="#4C4C4C"/>
<path d="M118.1 19.1H115.1V22.7H112.6V13.8H115.1V17.1H118.1V13.8H120.6V22.7H118.1V19.1Z" fill="#4C4C4C"/>
<path d="M129.7 21.3H126.5L126 22.7H123.4L126.6 13.8H129.4L132.6 22.7H130L129.7 21.3ZM128.1 16.5L127.2 19.4H129.1L128.1 16.5Z" fill="#4C4C4C"/>
<path d="M135.7 13.8H138.2V22.7H135.7V13.8Z" fill="#4C4C4C"/>
<path d="M150 13.8V22.7H147.5L144.2 17.7V22.7H141.7V13.8H144.2L147.5 18.8V13.8H150Z" fill="#4C4C4C"/>
<path d="M90.1002 31.2002H88.1002L87.8002 32.2002H86.7002L88.5002 27.2002H89.7002L91.5002 32.2002H90.4002L90.1002 31.2002ZM89.1002 28.3002L88.4002 30.4002H89.8002L89.1002 28.3002Z" fill="#FECB33"/>
<path d="M93.5002 27.2002H97.2002V28.0002H95.9002V32.2002H94.9002V28.0002H93.6002V27.2002H93.5002Z" fill="#FECB33"/>
<path d="M105 32.2002H102.8V27.2002H104.9C105.9 27.2002 106.5 27.7002 106.5 28.5002C106.5 29.1002 106.1 29.5002 105.6 29.6002C106.2 29.7002 106.6 30.2002 106.6 30.8002C106.6 31.6002 106 32.2002 105 32.2002ZM104.7 28.0002H103.8V29.3002H104.7C105.2 29.3002 105.4 29.1002 105.4 28.7002C105.5 28.2002 105.2 28.0002 104.7 28.0002ZM104.8 30.0002H103.8V31.3002H104.8C105.3 31.3002 105.6 31.1002 105.6 30.6002C105.6 30.3002 105.3 30.0002 104.8 30.0002Z" fill="#FECB33"/>
<path d="M111.9 28.0002H110V29.3002H111.7V30.1002H110V31.4002H111.9V32.2002H109V27.2002H111.9V28.0002Z" fill="#FECB33"/>
<path d="M117.4 27.2001C118.6 27.2001 119.2 27.9001 119.2 28.7001C119.2 29.3001 118.9 29.9001 118.1 30.1001L119.3 32.1001H118.1L117 30.2001H116.5V32.1001H115.5V27.1001H117.4V27.2001ZM117.3 28.0001H116.5V29.5001H117.3C117.9 29.5001 118.1 29.2001 118.1 28.8001C118.1 28.3001 117.9 28.0001 117.3 28.0001Z" fill="#FECB33"/>
<path d="M122.7 30.0002V32.2002H121.7V27.2002H122.7V29.4002L124.5 27.2002H125.7L123.6 29.7002L125.7 32.2002H124.4L122.7 30.0002Z" fill="#FECB33"/>
<path d="M130.9 28.0002H129V29.3002H130.7V30.1002H129V31.4002H130.9V32.2002H128V27.2002H130.9V28.0002Z" fill="#FECB33"/>
<path d="M134.4 27.2002V31.4002H136V32.2002H133.4V27.2002H134.4Z" fill="#FECB33"/>
<path d="M142.3 28.0002H140.4V29.3002H142.1V30.1002H140.4V31.4002H142.3V32.2002H139.4V27.2002H142.3V28.0002Z" fill="#FECB33"/>
<path d="M144.4 27.2002H145.5L146.6 29.5002L147.7 27.2002H148.8L147.1 30.5002V32.2002H146.1V30.5002L144.4 27.2002Z" fill="#FECB33"/>
<path d="M1.60008 32.1001H10.9001C11.1001 32.1001 11.3001 32.0001 11.4001 31.8001L15.9001 24.0001C16.1001 23.6001 15.8001 23.1001 15.4001 23.1001H6.20008C6.00008 23.1001 5.80008 23.2001 5.70008 23.4001L1.10008 31.2001C0.900078 31.6001 1.10008 32.1001 1.60008 32.1001Z" fill="#FECB33"/>
<path d="M13.1001 11.8H22.4001C22.6001 11.8 22.8001 11.7 22.9001 11.5L27.4001 3.70005C27.6001 3.30005 27.3001 2.80005 26.9001 2.80005H17.7001C17.5001 2.80005 17.3001 2.90005 17.2001 3.10005L12.6001 10.9C12.4001 11.4 12.6001 11.8 13.1001 11.8Z" fill="#FECB33"/>
<path d="M6.90012 41.5L17.3001 41.6L11.6001 32.5L6.70012 41C6.60012 41.2 6.70012 41.5 6.90012 41.5Z" fill="#FECB33"/>
<path d="M25.0001 33.3H34.3001C34.4001 33.3 34.5001 33.4001 34.5001 33.4001L39.0001 41.5C39.1001 41.8 39.0001 42.1 38.7001 42.1H29.7001C29.6001 42.1 29.4001 42.0001 29.4001 41.9001L24.7001 33.9001C24.5001 33.6001 24.7001 33.3 25.0001 33.3Z" fill="#FECB33"/>
<path d="M39.0001 41.9001L44.1001 33.6C44.2001 33.5 44.1001 33.3 43.9001 33.3H34.1001L38.7001 41.9001C38.7001 42.0001 38.9001 42.1001 39.0001 41.9001Z" fill="#EAA536"/>
<path d="M27.5 21.3L32.7 12.8C32.8 12.7 32.7 12.5 32.5 12.5H22.5L27.1 21.3C27.2 21.4 27.4 21.4 27.5 21.3Z" fill="#EAA536"/>
<path d="M27.4001 20.9001L23.0001 12.6001C22.9001 12.5001 22.9001 12.4001 22.7001 12.4001H13.2001C12.9001 12.4001 12.7001 12.7001 12.9001 13.0001L17.5001 20.9001L19.5001 16.9001L19.0001 16.2001H20.5001L21.5001 17.6001H20.4001L18.4001 21.5001V21.6001H27.2001C27.4001 21.5001 27.6001 21.2001 27.4001 20.9001Z" fill="#FECB33"/>
<path d="M39.0001 23.7H29.9001L32.1001 27.5H33.1001L32.2001 29L30.6001 28.7999L31.0001 27.9L28.9001 24.2L28.8001 23.7999L28.7001 23.9L24.5001 32.2999C24.4001 32.4999 24.5001 32.7 24.8001 32.7H34.2001C34.3001 32.7 34.4001 32.5999 34.4001 32.5999L39.2001 24.2C39.4001 23.9 39.2001 23.7 39.0001 23.7Z" fill="#FECB33"/>
<path d="M17.6 33.4L16.9 34.2L16.3 32.7L17.1 31.5L17.6 32.5H22.3H22.4V32.4L17.5 23.9C17.4 23.7 17.1 23.7 17 23.9L11.5 32.5L17.2 41.6L21.9 33.4H17.6Z" fill="#EAA536"/>
</svg>
