<svg width="87" height="87" viewBox="0 0 87 87" fill="none" xmlns="http://www.w3.org/2000/svg">
<path d="M43.2999 35.2L29 43L28.7 60L43 69L58 60.4V43.5L43.2999 35.2Z" fill="#F7BF45"/>
<path d="M9.30005 16.1001L10.1 16.0001V9.8001L9.40005 9.7001V9.1001H10.8C11 9.1001 11.1 9.1001 11.2 9.1001C11.3 9.1001 11.5 9.1001 11.6 9.1001C11.7 9.1001 11.9 9.1001 12 9.1001C12.1 9.1001 12.2 9.1001 12.4 9.1001C12.9 9.1001 13.3 9.1001 13.6 9.2001C13.9 9.3001 14.2 9.4001 14.4 9.5001C14.6 9.6001 14.8 9.8001 14.9 10.0001C15 10.2001 15 10.4001 15 10.7001C15 10.9001 15 11.1001 14.9 11.3001C14.8 11.5001 14.7 11.7001 14.6 11.8001C14.5 11.9001 14.3 12.1001 14.1 12.2001C13.9 12.3001 13.7 12.4001 13.5 12.4001C13.8 12.4001 14.1 12.4001 14.4 12.5001C14.7 12.6001 14.9 12.7001 15.1 12.9001C15.3 13.1001 15.4 13.2001 15.5 13.5001C15.6 13.7001 15.6 14.0001 15.6 14.3001C15.6 14.6001 15.6 14.9001 15.5 15.2001C15.4 15.5001 15.2 15.7001 15 15.9001C14.8 16.1001 14.4 16.3001 14 16.4001C13.6 16.5001 13.1 16.6001 12.5 16.6001C12.4 16.6001 12.2 16.6001 12.1 16.6001C12 16.6001 11.9 16.6001 11.7 16.6001C11.6 16.6001 11.4 16.6001 11.3 16.6001C11.2 16.6001 11 16.6001 10.8 16.6001H9.30005V16.1001ZM11.3 16.0001C11.3 16.0001 11.4 16.0001 11.5 16.1001C11.6 16.2001 11.7 16.1001 11.8 16.1001C11.9 16.1001 12 16.1001 12.1 16.1001C12.2 16.1001 12.3 16.1001 12.4 16.1001C12.7 16.1001 13 16.1001 13.3 16.0001C13.5 15.9001 13.7 15.8001 13.9 15.7001C14.1 15.6001 14.2 15.4001 14.2 15.2001C14.3 15.0001 14.3 14.8001 14.3 14.5001C14.3 14.2001 14.3 14.0001 14.2 13.8001C14.1 13.6001 14 13.4001 13.9 13.3001C13.8 13.2001 13.6 13.1001 13.4 13.0001C13.2 12.9001 12.8 13.0001 12.5 13.0001C12.4 13.0001 12.3 13.0001 12.2 13.0001C12.1 13.0001 12 13.0001 11.9 13.0001C11.8 13.0001 11.7 13.0001 11.6 13.0001C11.5 13.0001 11.4 13.0001 11.4 13.0001V16.0001H11.3ZM11.4 12.3001C11.5 12.3001 11.5 12.3001 11.6 12.3001C11.7 12.3001 11.8 12.3001 11.9 12.3001C12 12.3001 12.1 12.3001 12.2 12.3001C12.3 12.3001 12.4 12.3001 12.4 12.3001C12.9 12.3001 13.2 12.2001 13.5 11.9001C13.7 11.7001 13.8 11.3001 13.8 10.8001C13.8 10.6001 13.8 10.4001 13.7 10.2001C13.6 10.0001 13.6 9.9001 13.4 9.8001C13.2 9.7001 13.2 9.8001 13 9.7001C12.8 9.6001 12.6 9.6001 12.3 9.6001C12.1 9.6001 11.9 9.6001 11.8 9.6001C11.7 9.6001 11.5 9.6001 11.5 9.6001V12.3001H11.4Z" fill="#0D2A49"/>
<path d="M16.4001 16.1001L17.2001 16.0001V9.8001L16.4001 9.7001V9.1001H19.4001V9.7001L18.4001 9.8001V16.0001H20.9001L21.5001 14.3001L22.2001 14.4001L21.9001 16.7001H16.4001V16.1001Z" fill="#0D2A49"/>
<path d="M26 16.7C25.5 16.7 25.0001 16.6 24.6 16.4C24.2 16.2 23.8001 16 23.6 15.6C23.3 15.3 23.1 14.9 23 14.4C22.9 13.9 22.8 13.4 22.8 12.9C22.8 12.3 22.9 11.8 23.1 11.3C23.3 10.8 23.5 10.4 23.8 10.1C24.1 9.8 24.5 9.5 24.9 9.3C25.3 9.1 25.8 9 26.3 9C26.8 9 27.3001 9.1 27.7001 9.3C28.1001 9.5 28.5001 9.7 28.7001 10.1C29.0001 10.4 29.2 10.8 29.3 11.3C29.4 11.8 29.5 12.3 29.5 12.8C29.5 13.4 29.4001 13.9 29.2001 14.4C29.0001 14.9 28.8 15.3 28.5 15.6C28.2 15.9 27.8 16.2 27.4 16.4C26.9 16.6 26.5 16.7 26 16.7ZM26.1 16.1C26.4 16.1 26.7 16 27 15.9C27.3 15.8 27.5001 15.6 27.7001 15.3C27.9001 15 28.0001 14.7 28.1 14.3C28.2 13.9 28.2001 13.4 28.2001 12.8C28.2001 12.3 28.2 11.9 28.1 11.5C28.0001 11.1 27.9001 10.8 27.7001 10.5C27.5001 10.2 27.3 10 27.1 9.9C26.8 9.8 26.6001 9.7 26.2001 9.7C25.9001 9.7 25.6 9.8 25.3 9.9C25 10 24.8001 10.2 24.6 10.5C24.4 10.8 24.3001 11.1 24.2001 11.5C24.0001 11.9 24 12.4 24 12.9C24 13.4 24 13.8 24.1 14.2C24.2 14.6 24.3 14.9 24.5 15.2C24.7 15.5 24.9 15.7 25.1 15.8C25.4 16 25.7 16.1 26.1 16.1Z" fill="#0D2A49"/>
<path d="M30.1 12.9001C30.1 12.3001 30.2 11.8001 30.4 11.3001C30.6 10.8001 30.9 10.4001 31.2 10.1001C31.5 9.8001 31.9 9.5001 32.4 9.4001C32.9 9.2001 33.3 9.1001 33.9 9.1001C34.1 9.1001 34.4 9.1001 34.6 9.1001C34.8 9.1001 35 9.2001 35.2 9.2001C35.4 9.2001 35.6 9.3001 35.7 9.3001C35.9 9.3001 36 9.4001 36.1 9.4001L36 11.2001H35.3L34.9 10.0001C34.8 9.9001 34.7 9.8001 34.5 9.8001C34.3 9.8001 34 9.7001 33.6 9.7001C33.3 9.7001 33 9.8001 32.7 9.9001C32.4 10.0001 32.2 10.2001 32 10.5001C31.8 10.8001 31.7 11.1001 31.5 11.5001C31.4 11.9001 31.3 12.3001 31.3 12.8001C31.3 13.2001 31.3 13.6001 31.4 14.1001C31.5 14.6001 31.6 14.9001 31.8 15.2001C32 15.5001 32.2 15.8001 32.5 15.9001C32.8 16.1001 33.1 16.2001 33.5 16.2001C33.7 16.2001 33.8 16.2001 33.9 16.2001C34 16.2001 34.1 16.1001 34.2 16.1001C34.3 16.1001 34.4 16.0001 34.4 16.0001C34.5 16.0001 34.5 15.9001 34.5 15.9001L34.9 14.9001L35.6 15.0001L35.4 16.5001C35.3 16.5001 35.1 16.5001 35 16.6001C34.9 16.6001 34.7 16.7001 34.6 16.7001C34.5 16.7001 34.3 16.8001 34.1 16.8001C33.9 16.8001 33.7 16.9001 33.4 16.9001C32.8 16.9001 32.3 16.8001 31.8 16.6001C31.3 16.4001 30.9 16.2001 30.6 15.8001C30.3 15.5001 30 15.1001 29.9 14.6001C29.8 14.1001 30.1 13.5001 30.1 12.9001Z" fill="#0D2A49"/>
<path d="M36.9001 16.1L37.7001 16V9.8L36.9001 9.7V9.1H39.7001V9.7L38.9001 9.8V13.3L41.8 9.8L41 9.6V9H43.5V9.5L42.7001 9.6L40.6 12C40.7 12.1 40.8 12.2 41 12.4C41.1 12.6 41.3001 12.7 41.4001 12.9C41.5001 13.1 41.7 13.3 41.8 13.5C41.9 13.7 42.1001 13.9 42.2001 14.1C42.3001 14.3 42.5 14.5 42.6 14.7C42.7 14.9 42.8001 15.1 42.9001 15.2C43.0001 15.3 43.1001 15.5 43.2001 15.6C43.3001 15.7 43.3001 15.7 43.4001 15.8L43.8 15.9V16.4H42.3C42.2 16.4 42.1 16.3 42 16.2C41.9 16.1 41.8 15.9 41.6 15.7C41.5 15.5 41.3001 15.2 41.2001 15C41.1001 14.7 40.9 14.4 40.8 14.2C40.6 13.9 40.5 13.7 40.3 13.4C40.1 13.2 40.0001 13 39.9001 12.8L38.9001 13.9V16L39.8 16.1V16.6H36.8V16.1H36.9001Z" fill="#0D2A49"/>
<path d="M44.2001 12.9001C44.2001 12.3001 44.3001 11.8001 44.5001 11.3001C44.7001 10.8001 45.0001 10.4001 45.3001 10.1001C45.6001 9.8001 46.0001 9.5001 46.5001 9.4001C47.0001 9.2001 47.4001 9.1001 48.0001 9.1001C48.2001 9.1001 48.5001 9.1001 48.7001 9.1001C48.9001 9.1001 49.1001 9.2001 49.3001 9.2001C49.5001 9.2001 49.7001 9.3001 49.8001 9.3001C50.0001 9.3001 50.1001 9.4001 50.2001 9.4001L50.0001 11.2001H49.3001L49.0001 10.0001C48.9001 9.9001 48.8001 9.8001 48.6001 9.8001C48.4001 9.7001 48.1001 9.7001 47.7001 9.7001C47.4001 9.7001 47.1001 9.8001 46.8001 9.9001C46.5001 10.0001 46.3001 10.2001 46.1001 10.5001C45.9001 10.8001 45.8001 11.1001 45.6001 11.5001C45.5001 11.9001 45.4001 12.3001 45.4001 12.8001C45.4001 13.2001 45.4001 13.6001 45.5001 14.1001C45.6001 14.6001 45.7001 14.9001 45.9001 15.2001C46.1001 15.5001 46.3001 15.8001 46.6001 15.9001C46.9001 16.1001 47.2001 16.2001 47.6001 16.2001C47.8001 16.2001 47.9001 16.2001 48.0001 16.2001C48.1001 16.2001 48.2001 16.1001 48.3001 16.1001C48.4001 16.1001 48.5001 16.0001 48.5001 16.0001C48.6001 16.0001 48.6001 15.9001 48.7001 15.9001L49.1001 14.9001L49.8001 15.0001L49.6001 16.5001C49.5001 16.5001 49.3001 16.5001 49.2001 16.6001C49.1001 16.6001 48.9001 16.7001 48.8001 16.7001C48.7001 16.7001 48.5001 16.8001 48.3001 16.8001C48.1001 16.8001 47.9001 16.9001 47.6001 16.9001C47.0001 16.9001 46.5001 16.8001 46.0001 16.6001C45.5001 16.4001 45.1001 16.2001 44.8001 15.8001C44.5001 15.4001 44.2001 15.1001 44.1001 14.6001C44.3001 14.0001 44.2001 13.5001 44.2001 12.9001Z" fill="#0D2A49"/>
<path d="M51 16.1001L51.8 16.0001V9.8001L51 9.7001V9.1001H53.8V9.7001L53 9.8001V12.5001H56.5V9.8001L55.7 9.7001V9.1001H58.5V9.7001L57.7 9.8001V16.0001L58.5 16.1001V16.6001H55.7V16.1001L56.5 16.0001V13.1001H53V16.0001L53.9 16.1001V16.6001H51V16.1001Z" fill="#0D2A49"/>
<path d="M58.9001 16.1001L59.5001 16.0001L62.0001 9.1001H63.2001L65.7001 16.0001L66.3001 16.1001V16.6001H63.6001V16.1001L64.4001 16.0001L63.9001 14.5001H61.0001L60.5001 16.0001L61.4001 16.1001V16.6001H58.9001V16.1001ZM63.7001 13.9001L62.6001 10.7001L62.4001 9.9001L62.2001 10.7001L61.2001 13.9001H63.7001Z" fill="#0D2A49"/>
<path d="M66.7 16.1001L67.6 16.0001V9.8001L66.7 9.7001V9.1001H69.7V9.7001L68.8 9.8001V16.0001L69.7 16.1001V16.6001H66.7V16.1001Z" fill="#0D2A49"/>
<path d="M70.7 16.1001L71.5 16.0001V9.8001L70.7 9.7001V9.1001H72.7L76.1 14.0001L76.6 15.0001V9.8001L75.7 9.7001V9.1001H78.2V9.7001L77.4 9.8001V16.7001H76.6L73.2 11.7001L72.4 10.3001V16.0001L73.4 16.1001V16.6001H70.9V16.1001H70.7Z" fill="#0D2A49"/>
<path d="M22.9001 23.3L23.2001 23.2L24.5001 19.5H25.1001L26.4001 23.2L26.7001 23.3V23.6H25.2001V23.3L25.6001 23.2L25.3001 22.4H24.0001L23.8001 23.2L24.3001 23.3V23.6H23.0001L22.9001 23.3ZM25.5001 22.1L24.9001 20.4L24.8001 20L24.7001 20.4L24.2001 22.1H25.5001Z" fill="#0D2A49"/>
<path d="M27.6 23.3L28.3 23.2V19.8H27.4L27.2001 21H26.8L26.9 19.5H30.3L30.4 21H30L29.8 19.9H29V23.3L29.8 23.4V23.7H27.7001V23.3H27.6Z" fill="#0D2A49"/>
<path d="M32.2001 23.2999L32.7001 23.1999L33.1001 19.7999L32.5001 19.6999V19.3999H34.0001L34.8001 21.8999L34.9001 22.4999L35.0001 21.8999L35.7001 19.3999H37.2001V19.6999L36.6001 19.7999L37.1001 23.0999L37.6001 23.1999V23.4999H36.0001V23.1999L36.5001 23.0999L36.2001 20.6999L36.1001 19.5999L35.9001 20.2999L35.0001 23.3999H34.7001L33.7001 20.7999L33.4001 19.7999L33.3001 20.8999L33.1001 23.2999L33.6001 23.3999V23.6999H32.1001V23.2999H32.2001Z" fill="#0D2A49"/>
<path d="M38.0002 23.3L38.5002 23.2V19.9L38.0002 19.8V19.5H39.6002V19.8L39.1002 19.9V23.3L39.6002 23.4V23.7H38.0002V23.3Z" fill="#0D2A49"/>
<path d="M40.1001 21.6C40.1001 21.3 40.2001 20.9999 40.3001 20.7999C40.4001 20.4999 40.5001 20.3 40.7001 20.2C40.9001 20 41.1001 19.8999 41.3001 19.7999C41.5001 19.6999 41.8001 19.7 42.1001 19.7C42.2001 19.7 42.3001 19.7 42.5001 19.7C42.6001 19.7 42.7001 19.7 42.8001 19.7C42.9001 19.7 43.0001 19.6999 43.1001 19.7999C43.2001 19.8999 43.3001 19.7999 43.3001 19.7999L43.2001 20.7999H42.8001L42.6001 20C42.6001 20 42.5001 19.9 42.4001 19.9C42.3001 19.9 42.1001 19.9 41.9001 19.9C41.7001 19.9 41.6001 19.9 41.4001 20C41.3001 20.1 41.1001 20.1999 41.0001 20.2999C40.9001 20.3999 40.8001 20.5999 40.8001 20.7999C40.7001 20.9999 40.7001 21.2 40.7001 21.5C40.7001 21.7 40.7001 22 40.8001 22.2C40.9001 22.4 40.9001 22.5999 41.0001 22.7999C41.1001 22.9999 41.2001 23.1 41.4001 23.2C41.6001 23.3 41.7001 23.4 42.0001 23.4C42.1001 23.4 42.2001 23.4 42.2001 23.4C42.2001 23.4 42.3001 23.4 42.4001 23.4C42.4001 23.4 42.5001 23.3999 42.5001 23.2999C42.5001 23.2999 42.6001 23.3 42.6001 23.2L42.8001 22.7L43.2001 22.7999L43.1001 23.6C43.0001 23.6 43.0001 23.6 42.9001 23.6C42.8001 23.6 42.8001 23.6 42.7001 23.7C42.6001 23.7 42.5001 23.6999 42.4001 23.7999C42.3001 23.8999 42.2001 23.7999 42.0001 23.7999C41.7001 23.7999 41.4001 23.8 41.1001 23.7C40.9001 23.6 40.6001 23.4999 40.5001 23.2999C40.4001 23.0999 40.2001 22.9 40.1001 22.7C40.0001 22.5 40.1001 21.9 40.1001 21.6Z" fill="#0D2A49"/>
<path d="M43.7002 23.3L44.1002 23.2V19.9L43.7002 19.8V19.5H45.2002V19.8L44.7002 19.9V21.3H46.6002V19.9L46.2002 19.8V19.5H47.7002V19.8L47.3002 19.9V23.3L47.7002 23.4V23.7H46.2002V23.4L46.6002 23.3V21.7H44.7002V23.3L45.2002 23.4V23.7H43.7002V23.3Z" fill="#0D2A49"/>
<path d="M48.3 23.3L48.8 23.2V19.9L48.3 19.8V19.5H49.9001V19.8L49.4001 19.9V23.3L49.9001 23.4V23.7H48.3V23.3Z" fill="#0D2A49"/>
<path d="M50.4001 21.6C50.4001 21.3 50.5001 21 50.6001 20.7C50.7001 20.4 50.9001 20.2 51.0001 20C51.2001 19.8 51.4001 19.7 51.7001 19.6C52.0001 19.5 52.2001 19.5 52.5001 19.5C52.6001 19.5 52.8001 19.5 52.9001 19.5C53.0001 19.5 53.2001 19.5 53.3001 19.5C53.4001 19.5 53.5001 19.5 53.6001 19.6C53.7001 19.6 53.8001 19.6 53.8001 19.6L53.7001 20.5H53.3001L53.2001 20C53.2001 20 53.2001 20 53.1001 19.9C53.1001 19.9 53.0001 19.9 53.0001 19.8C52.9001 19.8 52.9001 19.8 52.8001 19.8C52.7001 19.8 52.6001 19.8 52.5001 19.8C52.3001 19.8 52.1001 19.8 52.0001 19.9C51.9001 20 51.7001 20.1 51.6001 20.2C51.5001 20.3 51.4001 20.5 51.3001 20.7C51.2001 20.9 51.2001 21.1 51.2001 21.4C51.2001 21.6 51.2001 21.7 51.2001 21.9C51.2001 22 51.3001 22.2 51.3001 22.3C51.3001 22.4 51.4001 22.6 51.5001 22.7C51.6001 22.8 51.7001 22.9 51.7001 23C51.8001 23.1 51.9001 23.1 52.0001 23.2C52.1001 23.3 52.3001 23.3 52.4001 23.3C52.5001 23.3 52.6001 23.3 52.6001 23.3C52.7001 23.3 52.7001 23.3 52.8001 23.3C52.9001 23.3 52.9001 23.3 53.0001 23.2C53.1001 23.2 53.1001 23.1 53.1001 23.1V21.9L52.4001 21.8V21.5H54.0001V21.8L53.7001 21.9V23.3C53.6001 23.3 53.5001 23.3 53.5001 23.3C53.5001 23.3 53.3001 23.4 53.2001 23.4C53.1001 23.4 52.9001 23.5 52.8001 23.5C52.7001 23.5 52.5001 23.5 52.3001 23.5C52.0001 23.5 51.7001 23.4 51.5001 23.3C51.3001 23.2 51.1001 23.1 50.9001 22.9C50.7001 22.7 50.6001 22.5 50.5001 22.3C50.5001 22.2 50.4001 21.9 50.4001 21.6Z" fill="#0D2A49"/>
<path d="M54.2002 23.3L54.5002 23.2L55.8002 19.5H56.4002L57.7002 23.2L58.0002 23.3V23.6H56.5002V23.3L56.9002 23.2L56.6002 22.4H55.0002L54.8002 23.2L55.3002 23.3V23.6H54.0002L54.2002 23.3ZM56.8002 22.1L56.2002 20.4L56.1002 20L56.0002 20.4L55.5002 22.1H56.8002Z" fill="#0D2A49"/>
<path d="M58.3 23.2999L58.7001 23.1999V19.7999L58.3 19.6999V19.3999H59.4001L61.2001 21.9999L61.5 22.4999V19.6999L61 19.7999V19.4999H62.3V19.7999L61.9001 19.8999V23.5999H61.5L59.7001 20.8999L59.3 20.1999V23.2999L59.8 23.3999V23.6999H58.4001V23.2999H58.3Z" fill="#0D2A49"/>
<path d="M59.0391 42.663L59.5547 43.6348L69.3604 38.4322L68.8449 37.4605L59.0391 42.663Z" fill="white"/>
<path d="M70.5 38.6001C71.3284 38.6001 72 37.9285 72 37.1001C72 36.2717 71.3284 35.6001 70.5 35.6001C69.6716 35.6001 69 36.2717 69 37.1001C69 37.9285 69.6716 38.6001 70.5 38.6001Z" stroke="white" stroke-width="0.9003" stroke-miterlimit="10"/>
<path d="M27.8638 60.8653L27.2896 59.927L17.8212 65.7212L18.3954 66.6595L27.8638 60.8653Z" fill="white"/>
<path d="M43.7999 53.2H42.7V67.0999H43.7999V53.2Z" fill="#0D2A49"/>
<path d="M58.4999 45H57.3999V58.9H58.4999V45Z" fill="#0D2A49"/>
<path d="M29.2999 45H28.2V58.9H29.2999V45Z" fill="#0D2A49"/>
<path d="M43.2 53.3999C44.0284 53.3999 44.7 52.7283 44.7 51.8999C44.7 51.0715 44.0284 50.3999 43.2 50.3999C42.3715 50.3999 41.7 51.0715 41.7 51.8999C41.7 52.7283 42.3715 53.3999 43.2 53.3999Z" stroke="#0D2A49" stroke-width="0.9003" stroke-miterlimit="10"/>
<path d="M58 45C58.8284 45 59.5 44.3284 59.5 43.5C59.5 42.6716 58.8284 42 58 42C57.1716 42 56.5 42.6716 56.5 43.5C56.5 44.3284 57.1716 45 58 45Z" fill="#F7BF45" stroke="#0D2A49" stroke-width="0.9003" stroke-miterlimit="10"/>
<path d="M28.7 45C29.5284 45 30.2 44.3284 30.2 43.5C30.2 42.6716 29.5284 42 28.7 42C27.8715 42 27.2 42.6716 27.2 43.5C27.2 44.3284 27.8715 45 28.7 45Z" fill="#F7BF45" stroke="#0D2A49" stroke-width="0.9003" stroke-miterlimit="10"/>
<path d="M28.7 61.5C29.5284 61.5 30.2 60.8284 30.2 60C30.2 59.1716 29.5284 58.5 28.7 58.5C27.8715 58.5 27.2 59.1716 27.2 60C27.2 60.8284 27.8715 61.5 28.7 61.5Z" fill="#F7BF45" stroke="#79848A" stroke-width="0.9003" stroke-miterlimit="10"/>
<path d="M43.3 69.7C44.1285 69.7 44.8 69.0284 44.8 68.2C44.8 67.3715 44.1285 66.7 43.3 66.7C42.4716 66.7 41.8 67.3715 41.8 68.2C41.8 69.0284 42.4716 69.7 43.3 69.7Z" fill="#F7BF45" stroke="#79848A" stroke-width="0.9003" stroke-miterlimit="10"/>
<path d="M58 61.8999C58.8284 61.8999 59.5 61.2283 59.5 60.3999C59.5 59.5715 58.8284 58.8999 58 58.8999C57.1716 58.8999 56.5 59.5715 56.5 60.3999C56.5 61.2283 57.1716 61.8999 58 61.8999Z" fill="#F7BF45" stroke="#79848A" stroke-width="0.9003" stroke-miterlimit="10"/>
<path d="M43.3 36.7C44.1285 36.7 44.8 36.0284 44.8 35.2C44.8 34.3715 44.1285 33.7 43.3 33.7C42.4716 33.7 41.8 34.3715 41.8 35.2C41.8 36.0284 42.4716 36.7 43.3 36.7Z" fill="#F7BF45" stroke="#0D2A49" stroke-width="0.9003" stroke-miterlimit="10"/>
<path d="M30.1254 60.5515L29.554 61.4915L41.4315 68.7125L42.003 67.7726L30.1254 60.5515Z" fill="#79848A"/>
<path d="M57.02 61.6308L56.47 60.6782L44.4326 67.6282L44.9826 68.5808L57.02 61.6308Z" fill="#79848A"/>
<path d="M44.6 51.4999L44 50.5999L56 43.8999L56.6 44.7999L44.6 51.4999Z" fill="#0D2A49"/>
<path d="M42.3999 50.7L41.7999 51.7L29.8999 44.7L30.4999 43.7L42.3999 50.7Z" fill="#0D2A49"/>
<path d="M57.3 41.9999L56.7 42.8999L44.5 36.2999L45 35.3999L57.3 41.9999Z" fill="#0D2A49"/>
<path d="M42.1212 36.2542L41.5659 35.3047L29.999 42.069L30.5543 43.0185L42.1212 36.2542Z" fill="#0D2A49"/>
<path d="M16.7 68.6001C17.5284 68.6001 18.2 67.9285 18.2 67.1001C18.2 66.2717 17.5284 65.6001 16.7 65.6001C15.8715 65.6001 15.2 66.2717 15.2 67.1001C15.2 67.9285 15.8715 68.6001 16.7 68.6001Z" stroke="white" stroke-width="0.9003" stroke-miterlimit="10"/>
</svg>
