<svg width="151" height="45" viewBox="0 0 151 45" fill="none" xmlns="http://www.w3.org/2000/svg">
<path d="M5.60005 13.9V22.2999H2.80005V2.69995H5.60005V11.1H14V2.69995H16.8V22.2H14V13.8L5.60005 13.9Z" fill="black"/>
<path d="M22.3 22.2H19.5V8.29995H20.9V6.89995H22.3V5.49995H23.7V4.09995H25.1V2.69995H27.9V4.09995H29.3V5.49995H30.7V6.89995H32V8.29995H33.4V22.2H30.6V16.6H22.2L22.3 22.2ZM22.3 13.9H30.7V9.69995H29.3V8.29995H27.9V6.89995H25.1V8.29995H23.7V9.69995H22.3V13.9Z" fill="black"/>
<path d="M40.4 13.9H39V22.2999H36.2V2.69995H47.2999V4.09995H48.7V5.49995H50.0999V11.1H48.7V12.5H47.2999V13.9H44.5V15.3H46V16.7H47.4V18.1H48.7999V19.5H50.2V22.2999H47.4V20.9H46V19.5H44.5999V18.1H43.2V16.7H41.7999V15.3H40.4V13.9ZM39 5.49995V11.1H46V9.69995H47.4V6.89995H46V5.49995H39Z" fill="black"/>
<path d="M54.3001 16.7H52.9001V2.69995H55.7001V15.2H57.1001V16.6H58.5001V18H61.3001V16.6H62.7001V15.2H64.1001V2.69995H66.9001V16.6H65.5001V18H64.1001V19.4H62.7001V20.7999H61.3001V22.2H58.5001V20.7999H57.1001V19.4H55.7001V18H54.3001V16.7Z" fill="black"/>
<path d="M72.4001 22.2H69.6001V8.29995H71.0001V6.89995H72.4001V5.49995H73.8001V4.09995H75.2001V2.69995H78.0001V4.09995H79.4001V5.49995H80.8001V6.89995H82.2001V8.29995H83.6001V22.2H80.8001V16.6H72.4001V22.2ZM72.4001 13.9H80.8001V9.69995H79.4001V8.29995H78.0001V6.89995H75.2001V8.29995H73.8001V9.69995H72.4001V13.9Z" fill="black"/>
<path d="M90.5 13.9H89.1V22.2999H86.3V2.69995H97.4V4.09995H98.8V5.49995H100.2V11.1H98.8V12.5H97.4V13.9H94.6V15.3H96V16.7H97.4V18.1H98.8V19.5H100.2V22.2999H97.4V20.9H96V19.5H94.6V18.1H93.2V16.7H91.8V15.3H90.4V13.9H90.5ZM89.1 5.49995V11.1H96.1V9.69995H97.5V6.89995H96.1V5.49995H89.1Z" fill="black"/>
<path d="M103 22.2V2.69995H114.1V4.09995H115.5V5.49995H116.9V19.4H115.5V20.7999H114.1V22.2H103ZM105.8 5.49995V19.4H112.8V18H114.2V6.89995H112.8V5.49995H105.8Z" fill="black"/>
<path d="M4.3999 41.9001V25.1001H13.9999V26.3001H15.1999V27.5001H16.3999V32.3001H15.1999V34.7001H16.3999V39.5001H15.1999V40.7001H13.9999V41.9001H4.3999V41.9001ZM6.7999 32.3001H12.7999V31.1001H13.9999V28.7001H12.7999V27.5001H6.7999V32.3001V32.3001ZM6.7999 39.5001H12.7999V38.3001H13.9999V35.9001H12.7999V34.7001H6.7999V39.5001V39.5001Z" stroke="#ED1B34"/>
<path d="M18.7998 41.9001V25.1001H21.1998V39.5001H30.7998V41.9001H18.7998Z" stroke="#ED1B34"/>
<path d="M35.6998 26.3001V25.1001H42.8998V26.3001H44.0998V27.5001H45.2998V39.5001H44.0998V40.7001H42.8998V41.9001H35.6998V40.7001H34.4998V39.5001H33.2998V27.5001H34.4998V26.3001H35.6998ZM41.6998 27.5001H36.8998V28.7001H35.6998V38.3001H36.8998V39.5001H41.6998V38.3001H42.8998V28.7001H41.6998V27.5001Z" stroke="#ED1B34"/>
<path d="M51.2999 39.5001H56.0999V38.3001H57.2999V37.1001H59.7V39.5001H58.5V40.7001H57.2999V41.9001H50.0999V40.7001H48.9V39.5001H47.7V27.5001H48.9V26.3001H50.0999V25.1001H57.2999V26.3001H58.5V27.5001H59.7V29.9001H57.2999V28.7001H56.0999V27.5001H51.2999V28.7001H50.0999V38.3001H51.2999V39.5001Z" stroke="#ED1B34"/>
<path d="M64.5999 34.7001V41.9001H62.2V25.1001H64.5999V32.3001H65.8V31.1001H67V29.9001H68.1999V28.7001H69.4V27.5001H70.5999V26.3001H71.8V25.1001H74.1999V27.5001H73V28.7001H71.8V29.9001H70.5999V31.1001H69.4V32.3001H68.1999V34.7001H69.4V35.9001H70.5999V37.1001H71.8V38.3001H73V39.5001H74.1999V41.9001H71.8V40.7001H70.5999V39.5001H69.4V38.3001H68.1999V37.1001H67V35.9001H65.8V34.7001H64.5999V34.7001Z" stroke="#ED1B34"/>
<path d="M80.1999 39.5001H84.9999V38.3001H86.1999V37.1001H88.5999V39.5001H87.3999V40.7001H86.1999V41.9001H78.9999V40.7001H77.7999V39.5001H76.5999V27.5001H77.7999V26.3001H78.9999V25.1001H86.1999V26.3001H87.3999V27.5001H88.5999V29.9001H86.1999V28.7001H84.9999V27.5001H80.1999V28.7001H78.9999V38.3001H80.1999V39.5001Z" stroke="#ED1B34"/>
<path d="M93.5 34.7001V41.9001H91V25.1001H93.4V32.3001H100.6V25.1001H103V41.9001H100.6V34.7001H93.5Z" stroke="#ED1B34"/>
<path d="M107.9 41.9001H105.5V29.9001H106.7V28.7001H107.9V27.5001H109.1V26.3001H110.3V25.1001H112.7V26.3001H113.9V27.5001H115.1V28.7001H116.3V29.9001H117.5V41.9001H115.1V37.1001H107.9V41.9001V41.9001ZM107.9 34.7001H115.1V31.1001H113.9V29.9001H112.7V28.7001H110.3V29.9001H109.1V31.1001H107.9V34.7001V34.7001Z" stroke="#ED1B34"/>
<path d="M122.3 41.9001V39.5001H124.7V27.5001H122.3V25.1001H129.5V27.5001H127.1V39.5001H129.5V41.9001H122.3Z" stroke="#ED1B34"/>
<path d="M136.8 32.3001V41.9001H134.4V25.1001H136.8V28.7001H138V29.9001H139.2V31.1001H140.4V32.3001H141.6V33.5001H142.8V34.7001H144V25.1001H146.4V41.9001H144V38.3001H142.8V37.1001H141.6V35.9001H140.4V34.7001H139.2V33.5001H138V32.3001H136.8Z" stroke="#ED1B34"/>
</svg>
