<svg width="113" height="56" viewBox="0 0 113 56" fill="none" xmlns="http://www.w3.org/2000/svg">
<g clip-path="url(#clip0_132_683)">
<path d="M109.85 28.8001C109.85 27.8001 109.05 27.1001 108.15 27.1001C107.15 27.1001 106.45 27.9001 106.45 28.8001C106.45 29.8001 107.25 30.5001 108.15 30.5001C109.15 30.5001 109.85 29.8001 109.85 28.8001Z" fill="#1F3F63"/>
<path d="M78.4499 25.9C78.3499 25.1 77.6499 24.4 76.7499 24.4C76.1499 24.4 75.7499 24.7 75.3499 25.1L61.8499 17.8L68.9499 15.1C69.2499 15.7 69.7499 16.2 70.5499 16.2C71.1499 16.2 71.7499 15.8 72.0499 15.3L106.65 28.4L78.4499 25.9ZM59.4499 16.5L67.7499 15.1L61.3499 17.5L59.4499 16.5ZM46.2499 23.3C45.9499 22.8 45.4499 22.5 44.7499 22.5C44.5499 22.5 44.3499 22.5 44.1499 22.6L42.2499 19.3L58.6499 16.6L60.7499 17.7L46.2499 23.3ZM33.3499 3.6C33.5499 3.5 33.6499 3.3 33.8499 3.2L58.0499 16.3L42.0499 18.9L33.3499 3.6ZM5.8499 24.9C5.8499 24.8 5.7499 24.6 5.6499 24.5L31.2499 3.4C31.5499 3.7 31.9499 3.8 32.3499 3.8C32.4499 3.8 32.6499 3.8 32.8499 3.7L41.5499 18.8L5.8499 24.9ZM108.25 28.6L72.1499 14.9C72.1499 14.8 72.1499 14.6 72.1499 14.5C72.1499 13.5 71.3499 12.8 70.4499 12.8C69.5499 12.8 68.7499 13.5 68.7499 14.5L58.6499 16.2L33.9499 2.8C34.0499 2.6 34.0499 2.4 34.0499 2.2C34.0499 1.2 33.2499 0.5 32.3499 0.5C31.3499 0.5 30.6499 1.3 30.6499 2.2C30.6499 2.5 30.7499 2.8 30.9499 3.1L5.4499 24.1C5.1499 23.8 4.7499 23.7 4.3499 23.7C3.3499 23.7 2.6499 24.5 2.6499 25.4C2.6499 26.4 3.4499 27.1 4.3499 27.1C5.3499 27.1 6.0499 26.3 6.0499 25.4V25.3L41.8499 19.4L43.7499 22.8C43.3499 23.1 43.0499 23.6 43.0499 24.1C43.0499 25.1 43.8499 25.8 44.7499 25.8C45.7499 25.8 46.4499 25 46.4499 24.1C46.4499 24 46.4499 23.8 46.3499 23.7L61.2499 18L75.2499 25.5C75.1499 25.7 75.1499 25.9 75.1499 26.1C75.1499 27.1 75.9499 27.8 76.8499 27.8C77.6499 27.8 78.3499 27.2 78.5499 26.3L108.25 28.9V28.6Z" fill="#203D6C"/>
<path d="M86.5499 37.4001C86.2499 38.4001 85.4499 39.1001 84.3499 39.2001C83.9499 39.2001 83.4499 39.2001 83.0499 39.2001C82.8499 39.2001 82.6499 39.2001 82.4499 39.2001V33.8C82.5499 33.8 82.6499 33.8 82.7499 33.8C83.8499 33.8 84.8499 33.8 85.7499 34.5C86.5499 35.2 86.8499 36.2001 86.5499 37.4001ZM89.3499 43.8C89.1499 43.5 89.0499 43.3 88.8499 43.1C88.7499 42.9 88.5499 42.6001 88.4499 42.4001C87.8499 41.4001 87.2499 40.3 86.1499 39.5C86.2499 39.5 86.2499 39.5 86.2499 39.5C86.3499 39.5 86.3499 39.5001 86.4499 39.4001C87.7499 38.8001 88.4499 37.9001 88.5499 36.7001C88.6499 35.5001 88.0499 34.5001 87.0499 33.9001C86.3499 33.5001 85.5499 33.3 84.6499 33.3C83.4499 33.3 82.1499 33.3 80.8499 33.3H79.5499C79.5499 33.3 79.4499 33.3 79.3499 33.3C79.3499 33.3 79.3499 33.3 79.2499 33.3V33.8H79.3499H79.4499C80.1499 33.8 80.3499 34.1001 80.4499 34.7001C80.4499 35.0001 80.5499 35.2001 80.5499 35.4001C80.5499 37.6001 80.5499 40.6 80.5499 43.6C80.5499 43.9 80.5499 44.2 80.4499 44.5C80.3499 44.9 80.0499 45.2001 79.6499 45.2001C79.5499 45.2001 79.4499 45.2001 79.3499 45.2001H79.1499V45.7001H83.7499V45.2001C83.7499 45.2001 83.7499 45.2001 83.6499 45.2001H83.5499C83.4499 45.2001 83.3499 45.1 83.2499 45.1C83.0499 45 82.8499 45 82.7499 44.8C82.5499 44.6 82.4499 44.2001 82.4499 43.9001C82.4499 42.9001 82.4499 42 82.4499 41C82.4499 40.7 82.4499 40.4 82.4499 40.1V40C83.3499 39.9 84.2499 39.9001 84.9499 40.7001C85.1499 41.0001 85.4499 41.3 85.6499 41.5C85.9499 42 86.3499 42.6 86.6499 43.1C86.9499 43.5 87.2499 44 87.5499 44.5C87.7499 44.8 87.9499 45.1 88.1499 45.3C88.2499 45.4 88.3499 45.5 88.4499 45.6H91.1499V45.1C90.1499 44.9 89.7499 44.3 89.3499 43.8Z" fill="#203D6C"/>
<path d="M102.85 44.9C102.35 44.9 102.05 44.5999 101.85 44.0999C101.75 43.6999 101.75 43.3999 101.75 43.0999C101.75 40.5999 101.75 38.1 101.75 35.7V33.9V33.7999H101.85C101.95 33.7999 101.95 33.7999 102.05 33.7999C102.35 33.7999 102.55 33.7999 102.85 33.7999C103.45 33.7999 103.95 33.7999 104.55 33.7999C106.75 33.8999 108.15 35.0999 108.85 37.0999C109.45 38.8999 109.45 40.7 108.75 42.4C108.05 43.9 106.85 44.8 105.15 44.9C104.35 44.9 103.55 44.9 102.85 44.9ZM109.45 35C108.25 33.8 106.65 33.2 104.65 33.2C103.25 33.2 101.85 33.2 100.55 33.2C99.9499 33.2 99.4499 33.2 98.8499 33.2H98.7499C98.7499 33.2 98.7499 33.2 98.6499 33.2V33.7H98.7499H98.8499C99.4499 33.7 99.7499 33.9999 99.8499 34.5999C99.9499 34.9999 99.9499 35.3 99.9499 35.7C99.9499 38.1 99.9499 40.3999 99.9499 42.7999V43.2C99.9499 43.4 99.9499 43.7 99.9499 44C99.8499 44.8 99.5499 45.1 98.8499 45.2H98.7499H98.6499V45.7H98.7499C98.8499 45.7 98.8499 45.7 98.9499 45.7C99.4499 45.7 99.9499 45.7 100.45 45.7C100.95 45.7 101.45 45.7 102.05 45.7C102.95 45.7 103.85 45.7 104.65 45.7C105.15 45.7 105.75 45.6999 106.35 45.5999C107.75 45.3999 108.95 44.8 109.85 43.9C110.85 42.9 111.35 41.5999 111.45 40.0999C111.45 37.9999 110.85 36.3 109.45 35Z" fill="#203D6C"/>
<path d="M69.15 42.8C68.35 44.5 66.95 45.3001 65.15 45.2001C63.45 45.1 62.15 44.2001 61.35 42.4001C60.95 41.5001 60.75 40.5001 60.75 39.2001C60.75 37.7001 61.05 36.6 61.65 35.6C62.55 34.1 63.95 33.3001 65.65 33.4001C67.25 33.5001 68.45 34.3 69.15 35.8C70.25 38.2 70.25 40.5 69.15 42.8ZM65.45 32.8C65.35 32.8 65.15 32.8 65.05 32.8C64.75 32.8 64.45 32.8001 64.15 32.9001C62.05 33.3001 60.45 34.5 59.55 36.3C58.65 38.1 58.65 40.3 59.55 42.1C60.65 44.4 62.95 45.7001 65.45 45.7001C66.05 45.7001 66.65 45.6001 67.25 45.4001C68.95 45.0001 70.35 43.8 71.25 42.3C72.15 40.8 72.35 39 71.85 37.3C70.95 34.7 68.45 32.8 65.45 32.8Z" fill="#203D6C"/>
<path d="M11.3499 39.4001C11.3499 40.8001 11.0499 42 10.3499 43.1C9.4499 44.5 8.2499 45.2001 6.7499 45.2001H6.6499C5.0499 45.2001 3.8499 44.4 3.0499 42.8C2.3499 41.4 2.1499 39.9 2.3499 38C2.4499 37.1 2.7499 36.3 3.0499 35.6C3.8499 34.2 5.1499 33.5 6.7499 33.5C6.8499 33.5 7.0499 33.5 7.1499 33.5C8.7499 33.6 9.9499 34.5 10.6499 36.1C11.1499 37 11.3499 38.0001 11.3499 39.4001ZM6.8499 32.8C4.9499 32.8 3.2499 33.5001 1.9499 34.7001C0.849902 35.9001 0.149902 37.5 0.149902 39.3C0.149902 43 3.0499 45.9001 6.7499 45.9001C10.4499 45.9001 13.4499 43.0001 13.4499 39.4001C13.4499 35.7001 10.5499 32.8 6.8499 32.8Z" fill="#203D6C"/>
<path d="M33.9499 45C33.8499 45 33.7499 44.9 33.6499 44.9C33.0499 44.7 32.6499 44.2 32.4499 43.9C31.4499 42.7 30.5499 41.3999 29.6499 40.0999L28.7499 38.9C28.7499 38.9 28.7499 38.8999 28.7499 38.7999L28.9499 38.5C29.0499 38.3 29.2499 38.1 29.4499 37.9L30.1499 37C30.8499 36.1 31.5499 35.2 32.2499 34.4C32.6499 33.9 33.1499 33.7 33.7499 33.7H33.8499C33.8499 33.7 33.8499 33.7 33.9499 33.7V33.2H29.9499V33.7H30.0499C30.1499 33.7 30.1499 33.7 30.2499 33.7C30.5499 33.7 30.6499 33.8 30.7499 34C30.8499 34.1 30.8499 34.2999 30.7499 34.5999C30.6499 34.8999 30.4499 35.0999 30.3499 35.2999C29.8499 35.9999 29.2499 36.6999 28.7499 37.2999L28.2499 38L28.1499 38.0999C28.1499 38.0999 28.1499 38.1 28.1499 38L27.7499 37.4C27.1499 36.6 26.5499 35.7 25.9499 34.9C25.8499 34.8 25.7499 34.6 25.7499 34.4C25.6499 34.1 25.7499 33.8999 26.0499 33.7999C26.1499 33.7999 26.2499 33.7 26.3499 33.7C26.3499 33.7 26.4499 33.7 26.5499 33.7V33.2H21.8499V33.7H21.9499C22.6499 33.7 23.1499 34.1 23.6499 34.7C23.7499 34.9 23.9499 35.0999 24.1499 35.2999C25.1499 36.6999 26.1499 38.1 27.2499 39.5L27.3499 39.5999V39.7C27.3499 39.7 27.3499 39.6999 27.3499 39.7999L26.5499 40.7999C25.7499 41.7999 24.9499 42.9 24.1499 43.9C23.6499 44.6 23.0499 45.2 22.1499 45.2C22.1499 45.2 22.1499 45.2 22.0499 45.2H21.9499V45.7H25.9499V45.2H25.8499C25.7499 45.2 25.6499 45.1999 25.5499 45.0999C25.3499 44.9999 25.1499 44.9 25.1499 44.7999C25.1499 44.6999 25.0499 44.4999 25.1499 44.2999C25.2499 43.9999 25.3499 43.7 25.5499 43.5C25.8499 43.1 26.0499 42.8 26.3499 42.5C26.4499 42.4 26.5499 42.1999 26.6499 42.0999L27.8499 40.5C27.8499 40.5 27.8499 40.4999 27.8499 40.5999C28.0499 40.8999 28.2499 41.0999 28.4499 41.2999C28.9499 41.9999 29.5499 42.7 30.0499 43.5C30.1499 43.7 30.3499 43.9 30.3499 44.2C30.4499 44.5 30.4499 44.7 30.3499 44.9C30.2499 45.1 30.0499 45.1999 29.7499 45.2999H29.6499H29.5499V45.7999H34.5499V45.2999C34.0499 45.0999 34.0499 45 33.9499 45Z" fill="#203D6C"/>
<path d="M41.95 33.5999H42.25C42.75 33.5999 43.05 33.9 43.25 34.4C43.35 34.7 43.35 34.8999 43.35 35.0999C43.35 35.9999 43.35 37 43.35 37.9V38.2C43.35 38.7 43.35 39.2 43.35 39.7C43.35 40.9 43.35 42.2 43.35 43.5C43.35 44.7 42.95 45 42.05 45V45.5H46.55V45H46.45C46.35 45 46.35 45 46.25 45C45.65 44.9 45.45 44.7 45.35 44.2C45.35 44 45.25 43.8 45.25 43.7C45.25 42.5 45.25 41.2999 45.25 40.0999V39.9V39.7999C45.55 39.7999 45.85 39.7999 46.15 39.7999C46.95 39.7999 47.75 39.7999 48.55 39.7999C49.05 39.7999 49.35 40.0999 49.55 40.5999C49.55 40.6999 49.65 40.8 49.65 41C49.65 41.1 49.65 41.1 49.65 41.2H50.05V37.5999H49.65C49.65 37.5999 49.65 37.6 49.65 37.7V37.7999C49.55 38.6999 49.15 39 48.25 39C47.35 39 46.45 39 45.45 39C45.35 39 45.35 39 45.25 39V34.0999C45.55 34.0999 45.95 34.0999 46.25 34.0999C47.15 34.0999 48.05 34.0999 48.95 34.0999C49.45 34.0999 49.85 34.4 49.95 34.9C49.95 35.1 50.05 35.2 50.05 35.4L50.15 35.5H50.55V33.2H41.95V33.5999Z" fill="#203D6C"/>
<path d="M4.24995 54.4999C4.34995 54.3999 4.44995 54.1999 4.44995 53.8999C4.44995 53.6999 4.34995 53.4999 4.14995 53.3999C3.94995 53.2999 3.74995 53.1999 3.44995 53.1999H2.24995V54.6999H3.44995C3.84995 54.6999 4.04995 54.5999 4.24995 54.4999ZM4.04995 52.2999C4.14995 52.1999 4.34995 51.9999 4.34995 51.7999C4.34995 51.2999 4.04995 50.9999 3.34995 50.9999H2.24995V52.3999H3.34995C3.64995 52.4999 3.84995 52.3999 4.04995 52.2999ZM1.44995 55.3999V55.2999V50.4999C1.44995 50.3999 1.44995 50.3999 1.44995 50.3999H1.54995H3.34995C3.54995 50.3999 3.64995 50.3999 3.84995 50.3999C3.94995 50.3999 4.14995 50.4999 4.34995 50.4999C4.44995 50.5999 4.64995 50.5999 4.74995 50.7999C4.84995 50.9999 4.94995 51.0999 5.04995 51.1999C5.14995 51.2999 5.14995 51.4999 5.14995 51.6999C5.14995 52.0999 4.84995 52.4999 4.44995 52.7999C4.54995 52.7999 4.54995 52.8999 4.64995 52.8999C4.74995 52.8999 4.74995 52.9999 4.84995 53.0999C4.94995 53.1999 4.94995 53.1999 5.04995 53.2999C5.14995 53.3999 5.14995 53.4999 5.24995 53.5999C5.34995 53.6999 5.34995 53.8999 5.34995 53.9999C5.34995 54.1999 5.34995 54.3999 5.24995 54.5999C5.14995 54.6999 5.14995 54.8999 4.94995 54.9999C4.84995 55.0999 4.64995 55.1999 4.54995 55.2999C4.44995 55.3999 4.24995 55.3999 4.04995 55.3999C3.84995 55.3999 3.64995 55.3999 3.44995 55.3999H1.54995H1.44995Z" fill="#203D6C"/>
<path d="M11.2498 54.6999V54.7999V55.1999C11.2498 55.2999 11.2498 55.2999 11.2498 55.2999H11.1498H8.1498C8.0498 55.2999 8.0498 55.2999 8.0498 55.2999V55.1999V50.4999C8.0498 50.3999 8.0498 50.3999 8.0498 50.3999H8.1498H8.7498C8.8498 50.3999 8.8498 50.3999 8.8498 50.3999V50.4999V54.6999H11.1498C11.2498 54.6999 11.2498 54.6999 11.2498 54.6999Z" fill="#203D6C"/>
<path d="M14.25 53.5999C14.35 53.7999 14.45 54 14.65 54.2C14.75 54.4 14.95 54.4999 15.25 54.5999C15.45 54.6999 15.65 54.7 15.95 54.7C16.25 54.7 16.45 54.6999 16.65 54.5999C16.85 54.4999 17.05 54.3 17.25 54.2C17.35 54 17.55 53.7999 17.55 53.5999C17.55 53.3999 17.65 53.2 17.65 52.9C17.65 52.7 17.65 52.4 17.55 52.2C17.45 52 17.35 51.7999 17.25 51.5999C17.15 51.3999 16.95 51.3 16.65 51.2C16.45 51.1 16.25 51.0999 15.95 51.0999C15.65 51.0999 15.45 51.1 15.25 51.2C15.05 51.3 14.85 51.4999 14.65 51.5999C14.55 51.7999 14.35 52 14.25 52.2C14.15 52.4 14.15 52.6 14.15 52.9C14.15 53.1 14.15 53.2999 14.25 53.5999ZM13.45 51.7999C13.55 51.4999 13.75 51.2 14.05 51C14.25 50.8 14.55 50.6 14.85 50.4C15.15 50.3 15.55 50.2 15.85 50.2C16.25 50.2 16.55 50.3 16.85 50.4C17.15 50.5 17.45 50.7 17.65 51C17.85 51.2 18.05 51.4999 18.25 51.7999C18.35 52.0999 18.45 52.4999 18.45 52.7999C18.45 53.1999 18.35 53.4999 18.25 53.7999C18.15 54.0999 17.95 54.3999 17.65 54.5999C17.45 54.7999 17.15 55 16.85 55.2C16.55 55.3 16.15 55.4 15.85 55.4C15.45 55.4 15.15 55.3 14.85 55.2C14.55 55.1 14.25 54.8999 14.05 54.5999C13.85 54.3999 13.65 54.0999 13.45 53.7999C13.25 53.4999 13.25 53.0999 13.25 52.7999C13.25 52.4999 13.35 52.1999 13.45 51.7999Z" fill="#203D6C"/>
<path d="M24.7499 54.1L24.8499 54C24.8499 54 24.9499 54 24.9499 54.1L25.2499 54.5L25.3499 54.6C25.3499 54.6 25.3499 54.7001 25.2499 54.7001C25.0499 54.9001 24.7499 55.1 24.4499 55.3C24.1499 55.5 23.7499 55.5 23.4499 55.5C23.0499 55.5 22.7499 55.4 22.4499 55.3C22.1499 55.2 21.8499 55.0001 21.6499 54.7001C21.4499 54.5001 21.2499 54.2001 21.0499 53.9001C20.9499 53.6001 20.8499 53.2001 20.8499 52.9001C20.8499 52.5001 20.9499 52.2001 21.0499 51.9001C21.1499 51.6001 21.3499 51.3 21.6499 51.1C21.8499 50.9 22.1499 50.7 22.4499 50.5C22.7499 50.4 23.1499 50.3 23.4499 50.3C23.8499 50.3 24.1499 50.4 24.4499 50.5C24.7499 50.6 25.0499 50.8 25.2499 51.1L25.3499 51.2001C25.3499 51.2001 25.3499 51.3 25.2499 51.3L24.9499 51.5L24.8499 51.6C24.8499 51.6 24.7499 51.6 24.7499 51.5C24.3499 51.1 23.9499 50.9001 23.4499 50.9001C23.1499 50.9001 22.9499 50.9 22.7499 51C22.5499 51.1 22.3499 51.3001 22.1499 51.4001C22.0499 51.6001 21.8499 51.8 21.7499 52C21.6499 52.2 21.6499 52.4001 21.6499 52.7001C21.6499 52.9001 21.6499 53.2001 21.7499 53.4001C21.8499 53.6001 21.9499 53.8 22.1499 54C22.2499 54.2 22.4499 54.3001 22.7499 54.4001C22.9499 54.5001 23.1499 54.5 23.4499 54.5C23.9499 54.7 24.3499 54.5 24.7499 54.1Z" fill="#203D6C"/>
<path d="M31.8498 55.4001H31.1498H31.0498L30.9498 55.3L28.8498 53V55.3C28.8498 55.4 28.8498 55.4001 28.8498 55.4001H28.7498H28.1498C28.0498 55.4001 28.0498 55.4001 28.0498 55.4001V55.3V50.5C28.0498 50.4 28.0498 50.4001 28.0498 50.4001H28.1498H28.7498C28.8498 50.4001 28.8498 50.4001 28.8498 50.4001V50.5V52.5L30.8498 50.4001C30.9498 50.3001 30.9498 50.3 30.9498 50.3H31.0498H31.7498C31.8498 50.3 31.8498 50.3001 31.8498 50.4001L29.6498 52.7001L32.0498 55.2001C32.0498 55.4001 31.9498 55.4001 31.8498 55.4001Z" fill="#203D6C"/>
<path d="M37.7499 54.1L37.8499 54C37.8499 54 37.9499 54 37.9499 54.1L38.2499 54.5L38.3499 54.6C38.3499 54.6 38.3499 54.7001 38.2499 54.7001C38.0499 54.9001 37.7499 55.1 37.4499 55.3C37.1499 55.5 36.7499 55.5 36.4499 55.5C36.0499 55.5 35.7499 55.4 35.4499 55.3C35.1499 55.2 34.8499 55.0001 34.6499 54.7001C34.4499 54.5001 34.2499 54.2001 34.0499 53.9001C33.9499 53.6001 33.8499 53.2001 33.8499 52.9001C33.8499 52.5001 33.9499 52.2001 34.0499 51.9001C34.1499 51.6001 34.3499 51.3 34.6499 51.1C34.8499 50.9 35.1499 50.7 35.4499 50.5C35.7499 50.4 36.1499 50.3 36.4499 50.3C36.8499 50.3 37.1499 50.4 37.4499 50.5C37.7499 50.6 38.0499 50.8 38.2499 51.1L38.3499 51.2001C38.3499 51.2001 38.3499 51.3 38.2499 51.3L37.9499 51.5L37.8499 51.6C37.8499 51.6 37.7499 51.6 37.7499 51.5C37.3499 51.1 36.9499 50.9001 36.4499 50.9001C36.1499 50.9001 35.9499 50.9 35.7499 51C35.5499 51.1 35.3499 51.3001 35.1499 51.4001C35.0499 51.6001 34.8499 51.8 34.7499 52C34.6499 52.2 34.6499 52.4001 34.6499 52.7001C34.6499 52.9001 34.6499 53.2001 34.7499 53.4001C34.8499 53.6001 34.9499 53.8 35.1499 54C35.2499 54.2 35.4499 54.3001 35.7499 54.4001C35.9499 54.5001 36.1499 54.5 36.4499 54.5C36.9499 54.7 37.3499 54.5 37.7499 54.1Z" fill="#203D6C"/>
<path d="M44.25 50.3999H44.35H44.95C45.05 50.3999 45.05 50.3999 45.05 50.3999V50.4999V55.2999C45.05 55.3999 45.05 55.3999 45.05 55.3999H44.95H44.35C44.25 55.3999 44.25 55.3999 44.25 55.3999V55.2999V53.2999H41.75V55.2999C41.75 55.3999 41.75 55.3999 41.75 55.3999H41.65H41.05C40.95 55.3999 40.95 55.3999 40.95 55.3999V55.2999V50.4999C40.95 50.3999 40.95 50.3999 40.95 50.3999H41.05H41.65C41.75 50.3999 41.75 50.3999 41.75 50.3999V50.4999V52.4999H44.15V50.4999C44.25 50.3999 44.25 50.3999 44.25 50.3999Z" fill="#203D6C"/>
<path d="M49.1499 53.4999H50.8499L50.0499 51.6999L49.1499 53.4999ZM52.6499 55.3999H52.5499H51.8499H51.7499L51.6499 55.2999L51.1499 54.2999H48.8499L48.3499 55.2999C48.3499 55.3999 48.2499 55.3999 48.2499 55.3999H48.1499H47.4499H47.3499V55.2999L49.8499 50.3999L52.6499 55.3999C52.6499 55.2999 52.6499 55.2999 52.6499 55.3999Z" fill="#203D6C"/>
<path d="M55.0498 50.3999H55.1498H55.7498C55.8498 50.3999 55.8498 50.3999 55.8498 50.3999V50.4999V55.2999C55.8498 55.3999 55.8498 55.3999 55.8498 55.3999H55.7498H55.1498C55.0498 55.3999 55.0498 55.3999 55.0498 55.3999V55.2999V50.4999C55.0498 50.3999 55.0498 50.3999 55.0498 50.3999Z" fill="#203D6C"/>
<path d="M59.75 55.4H59.65H59.05C58.95 55.4 58.95 55.4 58.95 55.4V55.2999V50.2999C58.95 50.2999 58.95 50.2 59.05 50.2H59.15C59.15 50.2 59.25 50.1999 59.25 50.2999L62.45 53.7V50.5C62.45 50.4 62.45 50.4 62.45 50.4H62.55H63.15C63.25 50.4 63.25 50.4 63.25 50.4V50.5V55.5C63.25 55.5 63.25 55.5999 63.15 55.5999C63.15 55.5999 63.05 55.6 63.05 55.5L59.85 52.0999V55.2999C59.75 55.2999 59.75 55.4 59.75 55.4Z" fill="#203D6C"/>
<path d="M72.4498 51.0999C72.3498 51.0999 72.1498 51.2 72.1498 51.2C72.0498 51.2 72.0498 51.3 71.9498 51.4C71.8498 51.5 71.8498 51.4999 71.8498 51.5999C71.8498 51.6999 71.8498 51.6999 71.8498 51.7999C71.8498 51.8999 71.8498 51.9999 71.9498 52.0999C72.0498 52.1999 72.0498 52.1999 72.0498 52.2999C72.1498 52.2999 72.1498 52.4 72.3498 52.4C72.4498 52.4 72.5498 52.5 72.6498 52.5C72.7498 52.5 72.9498 52.4999 73.0498 52.5999C73.2498 52.5999 73.4498 52.6 73.5498 52.7C73.6498 52.7 73.8498 52.7999 74.0498 52.7999C74.1498 52.8999 74.3498 52.8999 74.4498 53.0999C74.5498 53.1999 74.6498 53.3 74.7498 53.5C74.8498 53.6 74.8498 53.7999 74.8498 54.0999C74.8498 54.2999 74.8498 54.5 74.7498 54.7C74.6498 54.9 74.5498 55 74.4498 55.2C74.3498 55.3 74.0498 55.5 73.8498 55.5C73.5498 55.6 73.3498 55.5999 73.0498 55.5999C72.2498 55.5999 71.6498 55.4 71.1498 55L71.0498 54.9V54.7999L71.2498 54.4L71.3498 54.2999H71.4498C71.8498 54.5999 72.4498 54.7 72.9498 54.7C73.6498 54.7 74.0498 54.4 74.0498 54C74.0498 53.9 74.0498 53.8 73.9498 53.7C73.9498 53.6 73.8498 53.6 73.8498 53.5C73.7498 53.5 73.7498 53.4 73.5498 53.4C73.4498 53.4 73.3498 53.2999 73.1498 53.2999C73.0498 53.2999 72.8498 53.3 72.7498 53.2C72.5498 53.2 72.4498 53.1999 72.2498 53.0999C72.1498 53.0999 71.9498 53 71.8498 53C71.7498 53 71.5498 52.9 71.4498 52.7C71.3498 52.6 71.2498 52.4999 71.1498 52.2999C71.0498 52.1999 71.0498 51.9999 71.0498 51.7999C71.0498 51.6999 71.0498 51.5 71.1498 51.4C71.1498 51.3 71.2498 51.1 71.3498 51C71.4498 50.9 71.5498 50.6999 71.6498 50.5999C71.7498 50.4999 71.9498 50.3999 72.2498 50.2999C72.5498 50.1999 72.7498 50.2 72.9498 50.2C73.3498 50.2 73.6498 50.1999 73.8498 50.2999C74.1498 50.3999 74.4498 50.5 74.6498 50.7L74.7498 50.7999V50.9L74.5498 51.2999C74.5498 51.3999 74.4498 51.4 74.4498 51.4H74.3498C74.1498 51.3 73.9498 51.0999 73.6498 51.0999C73.4498 50.9999 73.2498 51 72.9498 51C72.7498 51 72.6498 50.9999 72.4498 51.0999Z" fill="#203D6C"/>
<path d="M78.1499 53.5999C78.2499 53.7999 78.3499 54 78.5499 54.2C78.6499 54.4 78.8499 54.4999 79.1499 54.5999C79.3499 54.6999 79.5499 54.7 79.8499 54.7C80.1499 54.7 80.3499 54.6999 80.5499 54.5999C80.7499 54.4999 80.9499 54.3 81.1499 54.2C81.2499 54 81.4499 53.7999 81.4499 53.5999C81.5499 53.3999 81.5499 53.2 81.5499 52.9C81.5499 52.7 81.5499 52.4 81.4499 52.2C81.3499 52 81.2499 51.7999 81.1499 51.5999C81.0499 51.3999 80.8499 51.3 80.5499 51.2C80.2499 51.1 80.1499 51.0999 79.8499 51.0999C79.5499 51.0999 79.3499 51.1 79.1499 51.2C78.9499 51.3 78.7499 51.4999 78.5499 51.5999C78.4499 51.7999 78.2499 52 78.1499 52.2C78.0499 52.4 78.0499 52.6 78.0499 52.9C78.0499 53.1 78.0499 53.2999 78.1499 53.5999ZM77.3499 51.7999C77.4499 51.4999 77.6499 51.2 77.9499 51C78.1499 50.8 78.4499 50.6 78.7499 50.4C79.0499 50.3 79.4499 50.2 79.7499 50.2C80.1499 50.2 80.4499 50.3 80.7499 50.4C81.0499 50.5 81.3499 50.7 81.5499 51C81.7499 51.2 81.9499 51.4999 82.1499 51.7999C82.2499 52.0999 82.3499 52.4999 82.3499 52.7999C82.3499 53.1999 82.2499 53.4999 82.1499 53.7999C82.0499 54.0999 81.8499 54.3999 81.5499 54.5999C81.3499 54.7999 81.0499 55 80.7499 55.2C80.4499 55.3 80.0499 55.4 79.7499 55.4C79.3499 55.4 79.0499 55.3 78.7499 55.2C78.4499 55.1 78.1499 54.8999 77.9499 54.5999C77.7499 54.3999 77.5499 54.0999 77.3499 53.7999C77.1499 53.4999 77.1499 53.0999 77.1499 52.7999C77.1499 52.4999 77.2499 52.1999 77.3499 51.7999Z" fill="#203D6C"/>
<path d="M88.65 54.1L88.75 54C88.75 54 88.85 54 88.85 54.1L89.15 54.5L89.25 54.6C89.25 54.6 89.25 54.7001 89.15 54.7001C88.95 54.9001 88.65 55.1 88.35 55.3C88.05 55.4 87.65 55.5 87.35 55.5C86.95 55.5 86.65 55.4 86.35 55.3C86.05 55.2 85.75 55.0001 85.55 54.7001C85.35 54.5001 85.15 54.2001 84.95 53.9001C84.85 53.6001 84.75 53.2001 84.75 52.9001C84.75 52.5001 84.85 52.2001 84.95 51.9001C85.05 51.6001 85.25 51.3 85.55 51.1C85.75 50.9 86.05 50.7 86.35 50.5C86.65 50.4 87.05 50.3 87.35 50.3C87.75 50.3 88.05 50.4 88.35 50.5C88.65 50.6 88.95 50.8 89.15 51.1L89.25 51.2001C89.25 51.2001 89.25 51.3 89.15 51.3L88.85 51.5L88.75 51.6C88.75 51.6 88.65 51.6 88.65 51.5C88.25 51.1 87.85 50.9001 87.35 50.9001C87.05 50.9001 86.85 50.9 86.65 51C86.45 51.1 86.25 51.3001 86.05 51.4001C85.95 51.6001 85.75 51.8 85.65 52C85.55 52.2 85.55 52.4001 85.55 52.7001C85.55 52.9001 85.55 53.2001 85.65 53.4001C85.75 53.6001 85.85 53.8 86.05 54C86.15 54.2 86.35 54.3001 86.65 54.4001C86.85 54.5001 87.05 54.5 87.35 54.5C87.75 54.7 88.25 54.5 88.65 54.1Z" fill="#203D6C"/>
<path d="M91.8499 50.3999H91.9499H92.5499C92.6499 50.3999 92.6499 50.3999 92.6499 50.3999V50.4999V55.2999C92.6499 55.3999 92.6499 55.3999 92.6499 55.3999H92.5499H91.9499C91.8499 55.3999 91.8499 55.3999 91.8499 55.3999V55.2999V50.4999C91.7499 50.3999 91.8499 50.3999 91.8499 50.3999Z" fill="#203D6C"/>
<path d="M95.6499 55.3999V55.2999V50.4999C95.6499 50.3999 95.6499 50.3999 95.6499 50.3999H95.7499H99.0499C99.1499 50.3999 99.1499 50.3999 99.1499 50.3999V50.4999V50.8999C99.1499 50.9999 99.1499 50.9999 99.1499 50.9999H99.0499H96.5499V52.3999H98.9499C99.0499 52.3999 99.0499 52.3999 99.0499 52.3999V52.4999V52.8999C99.0499 52.9999 99.0499 52.9999 99.0499 52.9999H98.9499H96.5499V54.3999H99.0499C99.1499 54.3999 99.1499 54.3999 99.1499 54.3999V54.4999V54.8999C99.1499 54.9999 99.1499 54.9999 99.1499 54.9999H99.0499H95.7499C95.7499 55.3999 95.6499 55.3999 95.6499 55.3999Z" fill="#203D6C"/>
<path d="M105.75 50.4V50.4999V50.9999C105.75 51.0999 105.75 51.0999 105.75 51.0999H105.65H104.05V55.2C104.05 55.3 104.05 55.2999 104.05 55.2999H103.95H103.35C103.25 55.2999 103.25 55.2999 103.25 55.2999V55.2V51.0999H101.65C101.55 51.0999 101.55 51.0999 101.55 51.0999V50.9999V50.4999C101.55 50.3999 101.55 50.4 101.55 50.4H101.65H105.75C105.75 50.3 105.75 50.3 105.75 50.4Z" fill="#203D6C"/>
<path d="M107.85 50.3999C107.85 50.3999 107.85 50.3999 107.95 50.3999H108.65H108.75L108.85 50.4999L110.25 52.6999L111.65 50.4999C111.65 50.3999 111.75 50.3999 111.75 50.3999H111.85H112.55C112.65 50.3999 112.65 50.3999 112.65 50.3999V50.4999L110.75 53.4999V55.2999C110.75 55.3999 110.75 55.3999 110.75 55.3999H110.65H110.05C109.95 55.3999 109.95 55.3999 109.95 55.3999V55.2999V53.4999L108.05 50.4999C107.85 50.3999 107.85 50.3999 107.85 50.3999Z" fill="#203D6C"/>
</g>
<defs>
<clipPath id="clip0_132_683">
<rect width="112.4" height="55" fill="white" transform="translate(0.149902 0.5)"/>
</clipPath>
</defs>
</svg>
