<svg width="191" height="30" viewBox="0 0 191 30" fill="none" xmlns="http://www.w3.org/2000/svg">
<path fill-rule="evenodd" clip-rule="evenodd" d="M32.1498 25.8999L29.1498 20.7999C29.0498 20.6999 28.8498 20.5999 28.7498 20.6999C28.0498 21.0999 26.1498 22.1999 24.0498 22.1999C22.0498 22.1999 20.1498 21.1999 19.4498 20.7999C19.3498 20.6999 19.1498 20.7999 19.0498 20.8999L16.1498 25.8999C16.0498 25.9999 16.1498 26.1999 16.2498 26.2999C17.0498 26.7999 19.7498 28.5999 24.1498 28.5999C28.5498 28.5999 31.2498 26.8999 32.0498 26.2999C32.1498 26.1999 32.1498 25.9999 32.1498 25.8999Z" fill="#FFA600"/>
<path fill-rule="evenodd" clip-rule="evenodd" d="M24.1499 1.3999C16.0499 1.3999 9.54985 7.8999 9.34985 15.8999C9.34985 15.9999 9.44985 16.1999 9.54985 16.1999H38.5499C38.6499 16.1999 38.8499 16.0999 38.7499 15.8999C38.7499 7.8999 32.2499 1.3999 24.1499 1.3999Z" fill="#FFA600"/>
<path fill-rule="evenodd" clip-rule="evenodd" d="M59.6498 11.8999H56.1498V22.0999H53.5498V11.8999H50.0498V9.3999H59.6498V11.8999Z" fill="#161D2B"/>
<path fill-rule="evenodd" clip-rule="evenodd" d="M63.1498 13.5999C63.6498 12.9999 64.5498 12.4999 65.7498 12.4999C68.0498 12.4999 69.2498 13.9999 69.2498 16.1999V22.0999H66.7498V16.4999C66.7498 15.3999 66.2498 14.6999 65.1498 14.6999C63.9498 14.6999 63.2498 15.4999 63.2498 16.7999V22.1999H60.7498V9.3999H63.1498V13.5999Z" fill="#161D2B"/>
<path fill-rule="evenodd" clip-rule="evenodd" d="M73.0499 16.2999H77.3499C77.1499 15.1999 76.4499 14.4999 75.2499 14.4999C74.0499 14.5999 73.2499 15.2999 73.0499 16.2999ZM73.0499 18.1999C73.2499 19.4999 74.0499 20.1999 75.3499 20.1999C76.1499 20.1999 76.8499 19.8999 77.1499 19.1999H79.7499C79.1499 21.0999 77.4499 22.3999 75.3499 22.3999C72.5499 22.3999 70.6499 20.3999 70.6499 17.4999C70.6499 14.6999 72.5499 12.5999 75.3499 12.5999C78.1499 12.5999 80.0499 14.6999 80.0499 17.4999C80.0499 17.8999 80.0499 18.2999 80.0499 18.2999H73.0499V18.1999Z" fill="#161D2B"/>
<path fill-rule="evenodd" clip-rule="evenodd" d="M95.6498 22.0999H93.0498V16.8999H87.6498V22.0999H85.0498V9.3999H87.6498V14.4999H93.0498V9.3999H95.6498V22.0999Z" fill="#161D2B"/>
<path fill-rule="evenodd" clip-rule="evenodd" d="M102.15 20.1C103.45 20.1 104.55 19.1 104.55 17.4C104.55 15.7 103.55 14.7 102.15 14.7C100.85 14.7 99.7499 15.7 99.7499 17.4C99.7499 19.1 100.75 20.1 102.15 20.1ZM97.1499 17.4C97.1499 14.8 99.1499 12.5 102.15 12.5C105.15 12.5 107.05 14.7 107.05 17.4C107.05 20.1 105.15 22.3 102.15 22.3C99.1499 22.3 97.1499 20.1 97.1499 17.4Z" fill="#161D2B"/>
<path fill-rule="evenodd" clip-rule="evenodd" d="M108.35 18.1V12.7H110.85V18.1C110.85 19.4 111.45 20 112.55 20C113.65 20 114.25 19.4 114.25 18.1V12.7H116.75V18.1C116.75 21.1 115.25 22.3 112.45 22.3C109.85 22.3 108.35 21.2 108.35 18.1Z" fill="#161D2B"/>
<path fill-rule="evenodd" clip-rule="evenodd" d="M118.05 19.1H120.65C120.65 19.7 121.15 20.3 122.25 20.3C123.25 20.3 123.75 20 123.75 19.4C123.75 17.8 118.55 19.3 118.55 15.6C118.55 13.9 120.05 12.5 122.35 12.5C125.15 12.5 126.15 14.3 126.25 15.7H123.75C123.65 15.1 123.25 14.6 122.35 14.6C121.55 14.6 121.05 15 121.05 15.5C121.05 17.1 126.25 15.5 126.25 19.4C126.25 21.1 124.85 22.4 122.25 22.4C119.15 22.3 118.15 20.8 118.05 19.1Z" fill="#161D2B"/>
<path fill-rule="evenodd" clip-rule="evenodd" d="M129.35 16.2999H133.65C133.45 15.1999 132.75 14.4999 131.55 14.4999C130.35 14.5999 129.55 15.2999 129.35 16.2999ZM129.25 18.1999C129.45 19.4999 130.25 20.1999 131.55 20.1999C132.35 20.1999 133.05 19.8999 133.35 19.1999H135.95C135.35 21.0999 133.65 22.3999 131.55 22.3999C128.75 22.3999 126.85 20.3999 126.85 17.4999C126.85 14.6999 128.75 12.5999 131.55 12.5999C134.35 12.5999 136.25 14.6999 136.25 17.4999C136.25 17.8999 136.25 18.2999 136.25 18.2999H129.25V18.1999Z" fill="#161D2B"/>
<path fill-rule="evenodd" clip-rule="evenodd" d="M140.65 22.1V9.5H149.05V11.9H143.25V14.5H148.75V16.9H143.25V22.1H140.65Z" fill="#161D2B"/>
<path fill-rule="evenodd" clip-rule="evenodd" d="M150.45 18.0998V12.7998H152.95V18.1998C152.95 19.4998 153.55 20.0998 154.65 20.0998C155.75 20.0998 156.35 19.4998 156.35 18.1998V12.7998H158.85V18.0998C158.85 21.0998 157.35 22.2998 154.65 22.2998C151.95 22.2998 150.45 21.1998 150.45 18.0998Z" fill="#161D2B"/>
<path fill-rule="evenodd" clip-rule="evenodd" d="M163.45 13.9C163.85 13.1 164.85 12.5 166.25 12.5C168.45 12.5 169.65 14 169.65 16.2V22H167.15V16.5C167.15 15.4 166.65 14.7 165.55 14.7C164.35 14.7 163.65 15.5 163.65 16.7V22H161.15V12.7H163.45V13.9Z" fill="#161D2B"/>
<path fill-rule="evenodd" clip-rule="evenodd" d="M176.15 14.7998C174.75 14.7998 173.85 15.8998 173.85 17.4998C173.85 19.0998 174.75 20.1998 176.15 20.1998C177.55 20.1998 178.45 19.0998 178.45 17.4998C178.45 15.8998 177.55 14.7998 176.15 14.7998ZM178.35 8.7998H180.85V22.1998H178.55V21.0998C177.95 21.9998 176.95 22.4998 175.55 22.4998C172.85 22.4998 171.25 20.2998 171.25 17.5998C171.25 14.8998 172.85 12.6998 175.55 12.6998C176.85 12.6998 177.85 13.2998 178.35 13.8998V8.7998Z" fill="#161D2B"/>
</svg>
