<svg width="182" height="79" viewBox="0 0 182 79" fill="none" xmlns="http://www.w3.org/2000/svg">
<path d="M55.5464 28.3428V50.2805H51.0813V28.3428H55.5464Z" fill="black"/>
<path d="M73.7707 35.4892V50.3291C73.7707 54.9354 70.1914 57.7672 65.8113 57.7672C61.5889 57.7672 58.4342 55.142 58.1309 51.4351L62.5838 51.4594C62.7658 53.0394 64.149 53.72 65.969 53.72C67.6919 53.72 69.2935 52.7963 69.2935 50.3898V48.4938C68.153 49.2352 66.697 49.6728 65.0711 49.6728C60.9943 49.6728 57.7305 46.3669 57.7305 42.5628C57.7305 38.1388 61.0065 35.1732 65.0711 35.1732C66.7091 35.1732 68.153 35.6108 69.2935 36.3521V35.55L73.7707 35.4892ZM69.3057 44.2278V40.6181C68.3957 39.2934 67.1338 38.8558 65.8841 38.8558C63.6879 38.8558 62.1591 40.3265 62.1591 42.5628C62.1591 44.2035 63.6879 46.0023 65.8841 46.0023C67.1338 45.9901 68.3957 45.5404 69.3057 44.2278Z" fill="black"/>
<path d="M91.5825 42.7086C91.5825 47.2784 88.2095 50.5356 83.6837 50.5356C79.1216 50.5356 75.7485 47.2784 75.7485 42.7086C75.7485 38.1752 79.1216 34.8572 83.6837 34.8572C88.2095 34.8572 91.5825 38.1752 91.5825 42.7086ZM87.2752 42.7086C87.2752 40.5573 85.8677 38.8193 83.6837 38.8193C81.4755 38.8193 80.068 40.5573 80.068 42.7086C80.068 44.9206 81.4755 46.5735 83.6837 46.5735C85.8556 46.5613 87.2752 44.9206 87.2752 42.7086Z" fill="black"/>
<path d="M119.307 35.5135V50.2561L114.927 50.2804V49.4418C113.787 50.1832 112.331 50.645 110.705 50.645C106.628 50.645 103.364 47.1812 103.364 42.9152C103.364 38.6249 106.64 35.161 110.705 35.161C112.343 35.161 113.787 35.6229 114.927 36.3642V35.5256L119.307 35.5135ZM114.927 45.1758V40.6546C114.005 39.3419 112.719 38.9773 111.433 38.9773C109.188 38.9773 107.635 40.7761 107.635 42.9273C107.635 45.0542 109.188 46.853 111.433 46.853C112.719 46.8409 114.005 46.4884 114.927 45.1758Z" fill="black"/>
<path d="M137.313 42.2711V50.2805H133.006V42.7937C133.006 40.3872 131.804 39.1111 129.669 39.1111C128.553 39.1111 127.327 39.7552 126.272 40.9949V50.2805H121.867V35.5378H126.272V36.656C127.473 35.6958 128.868 35.1732 130.53 35.1732C134.462 35.1732 137.313 37.9443 137.313 42.2711Z" fill="black"/>
<path d="M49.043 50.2683H44.493L41.5324 39.2447L35.1624 50.2683H30.0786L39.9066 33.2043L38.3292 27.2732L25.0675 50.2804H19.9836L36.7883 21.1112H41.2412L43.1947 28.3549H47.7932L44.6507 33.8241L49.043 50.2683Z" fill="black"/>
<path d="M155.1 28.3427V50.2804H150.635V49.4418C149.495 50.1832 148.039 50.645 146.413 50.645C142.336 50.645 139.072 47.1812 139.072 42.8909C139.072 38.6249 142.348 35.161 146.413 35.161C148.051 35.161 149.495 35.6229 150.635 36.3643V28.3306L155.1 28.3427ZM150.635 45.1879V40.6303C149.701 39.3055 148.403 38.9409 147.117 38.9409C144.86 38.9409 143.295 40.7518 143.295 42.8909C143.295 45.0664 144.86 46.8773 147.117 46.8773C148.403 46.8773 149.701 46.5127 150.635 45.1879Z" fill="black"/>
<path d="M102.563 39.2569C101.592 39.3784 99.3113 39.4878 97.9767 41.3352V50.2926H93.5723V35.5621H97.9767V36.6681C98.9837 35.8052 100.5 35.2948 102.563 35.5014" fill="black"/>
</svg>
