<svg width="113" height="35" viewBox="0 0 113 35" fill="none" xmlns="http://www.w3.org/2000/svg">
<path d="M104.648 0L80.314 34.6875H87.7852L112.245 0H104.648Z" fill="url(#paint0_linear_288_552)"/>
<path d="M88.5636 0L95.7233 10.2212L91.9876 15.7964L80.9365 0H88.5636Z" fill="url(#paint1_linear_288_552)"/>
<path d="M105.374 34.6902L97.4351 23.3849L101.171 17.9646L112.844 34.6902H105.374Z" fill="url(#paint2_linear_288_552)"/>
<path fill-rule="evenodd" clip-rule="evenodd" d="M71.5978 0H78.135V34.6875H71.5978V33.3919C69.7096 34.417 67.5421 35 65.2371 35C57.919 35 51.9863 29.1238 51.9863 21.875C51.9863 14.6262 57.919 8.75 65.2371 8.75C67.5421 8.75 69.7096 9.33295 71.5978 10.3581V0ZM65.1677 29.2395C69.3123 29.2395 72.6724 25.9113 72.6724 21.8058C72.6724 17.7004 69.3123 14.3722 65.1677 14.3722C61.0226 14.3722 57.6625 17.7004 57.6625 21.8058C57.6625 25.9113 61.0226 29.2395 65.1677 29.2395Z" fill="url(#paint3_linear_288_552)"/>
<path d="M52.6366 0L28.3279 34.6875H35.9487L60.234 0H52.6366Z" fill="url(#paint4_linear_288_552)"/>
<path d="M35.9546 0L43.5813 10.531L39.3789 16.4159L28.0166 0H35.9546Z" fill="url(#paint5_linear_288_552)"/>
<path fill-rule="evenodd" clip-rule="evenodd" d="M19.6116 0H26.1488V34.6875H19.6116V33.3919C17.7235 34.417 15.556 35 13.251 35C5.93266 35 0 29.1238 0 21.875C0 14.6262 5.93266 8.75 13.251 8.75C15.556 8.75 17.7235 9.33295 19.6116 10.3581V0ZM13.1812 29.2395C17.3261 29.2395 20.6862 25.9113 20.6862 21.8058C20.6862 17.7004 17.3261 14.3722 13.1812 14.3722C9.03629 14.3722 5.67621 17.7004 5.67621 21.8058C5.67621 25.9113 9.03629 29.2395 13.1812 29.2395Z" fill="url(#paint6_linear_288_552)"/>
<defs>
<linearGradient id="paint0_linear_288_552" x1="93.0866" y1="4.76103" x2="115.528" y2="31.5379" gradientUnits="userSpaceOnUse">
<stop offset="0.9999"/>
<stop offset="1" stop-color="white" stop-opacity="0.55"/>
</linearGradient>
<linearGradient id="paint1_linear_288_552" x1="86.8512" y1="2.16814" x2="97.0396" y2="14.5299" gradientUnits="userSpaceOnUse">
<stop offset="0.9999"/>
<stop offset="1" stop-color="white" stop-opacity="0.55"/>
</linearGradient>
<linearGradient id="paint2_linear_288_552" x1="107.085" y1="32.0575" x2="94.5742" y2="15.106" gradientUnits="userSpaceOnUse">
<stop stop-color="#6966FF"/>
<stop offset="1" stop-color="#6966FF" stop-opacity="0.36"/>
</linearGradient>
<linearGradient id="paint3_linear_288_552" x1="62.4459" y1="4.80392" x2="85.4317" y2="27.0631" gradientUnits="userSpaceOnUse">
<stop offset="0.9999"/>
<stop offset="1" stop-color="white" stop-opacity="0.55"/>
</linearGradient>
<linearGradient id="paint4_linear_288_552" x1="41.0904" y1="4.76103" x2="63.5349" y2="31.5204" gradientUnits="userSpaceOnUse">
<stop offset="0.9999"/>
<stop offset="1" stop-color="white" stop-opacity="0.55"/>
</linearGradient>
<linearGradient id="paint5_linear_288_552" x1="34.2425" y1="2.25316" x2="44.8037" y2="15.2327" gradientUnits="userSpaceOnUse">
<stop offset="0.9999"/>
<stop offset="1" stop-color="white" stop-opacity="0.55"/>
</linearGradient>
<linearGradient id="paint6_linear_288_552" x1="10.4595" y1="4.80392" x2="33.4452" y2="27.0631" gradientUnits="userSpaceOnUse">
<stop offset="0.9999"/>
<stop offset="1" stop-color="white" stop-opacity="0.55"/>
</linearGradient>
</defs>
</svg>
