<svg width="32" height="33" viewBox="0 0 32 33" fill="none" xmlns="http://www.w3.org/2000/svg">
<path d="M5.11111 12.971C5.93152 9.39153 8.66239 6.59668 12.1599 5.75706C14.6857 5.15069 17.3144 5.15069 19.8403 5.75706C23.3378 6.59668 26.0687 9.39154 26.8891 12.971C27.4815 15.556 27.4815 18.2463 26.8891 20.8313C26.0687 24.4108 23.3378 27.2056 19.8403 28.0452C17.3144 28.6516 14.6857 28.6516 12.1599 28.0452C8.66239 27.2056 5.93152 24.4108 5.11111 20.8313C4.51863 18.2463 4.51863 15.556 5.11111 12.971Z" fill="white" fill-opacity="0.15"/>
<path d="M5.11111 20.8313L6.5732 20.4962L5.11111 20.8313ZM5.11111 12.971L6.5732 13.3061L5.11111 12.971ZM26.8891 12.971L25.427 13.3061L26.8891 12.971ZM26.8891 20.8313L25.427 20.4962L26.8891 20.8313ZM19.8403 28.0452L20.1904 29.5038L19.8403 28.0452ZM12.1599 28.0452L12.51 26.5867L12.1599 28.0452ZM12.1599 5.75706L12.51 7.21562L12.1599 5.75706ZM19.8403 5.75706L20.1904 4.2985L19.8403 5.75706ZM12.2602 4.5C12.2602 3.67157 11.5886 3 10.7602 3C9.93176 3 9.26019 3.67157 9.26019 4.5H12.2602ZM9.26019 7.85166C9.26019 8.68009 9.93176 9.35166 10.7602 9.35166C11.5886 9.35166 12.2602 8.68009 12.2602 7.85166H9.26019ZM22.74 4.5C22.74 3.67157 22.0684 3 21.24 3C20.4115 3 19.74 3.67157 19.74 4.5H22.74ZM19.74 7.85166C19.74 8.68009 20.4115 9.35166 21.24 9.35166C22.0684 9.35166 22.74 8.68009 22.74 7.85166H19.74ZM6.5732 20.4962C6.03126 18.1317 6.03126 15.6706 6.5732 13.3061L3.64902 12.6359C3.00599 15.4414 3.00599 18.3608 3.64902 21.1664L6.5732 20.4962ZM25.427 13.3061C25.9689 15.6706 25.9689 18.1317 25.427 20.4962L28.3511 21.1664C28.9942 18.3608 28.9942 15.4414 28.3511 12.6359L25.427 13.3061ZM19.4901 26.5867C17.1944 27.1378 14.8057 27.1378 12.51 26.5867L11.8097 29.5038C14.5658 30.1654 17.4344 30.1654 20.1904 29.5038L19.4901 26.5867ZM12.51 7.21562C14.8057 6.66451 17.1944 6.66451 19.4901 7.21562L20.1904 4.2985C17.4344 3.63688 14.5658 3.63688 11.8097 4.2985L12.51 7.21562ZM12.51 26.5867C9.58107 25.8835 7.26974 23.5352 6.5732 20.4962L3.64902 21.1664C4.59329 25.2863 7.74371 28.5277 11.8097 29.5038L12.51 26.5867ZM20.1904 29.5038C24.2565 28.5277 27.4069 25.2863 28.3511 21.1664L25.427 20.4962C24.7304 23.5352 22.4191 25.8835 19.4901 26.5867L20.1904 29.5038ZM19.4901 7.21562C22.4191 7.91876 24.7304 10.2671 25.427 13.3061L28.3511 12.6359C27.4069 8.51601 24.2565 5.2746 20.1904 4.2985L19.4901 7.21562ZM11.8097 4.2985C7.74371 5.2746 4.59329 8.51601 3.64902 12.6359L6.5732 13.3061C7.26974 10.2671 9.58107 7.91876 12.51 7.21562L11.8097 4.2985ZM5.5203 13.0385H26.4799V10.0385H5.5203V13.0385ZM9.26019 4.5V7.85166H12.2602V4.5H9.26019ZM19.74 4.5V7.85166H22.74V4.5H19.74Z" fill="#130F26"/>
</svg>
