<svg width="32" height="33" viewBox="0 0 32 33" fill="none" xmlns="http://www.w3.org/2000/svg">
<path d="M4.4705 12.4339C5.33917 8.73067 8.23068 5.83916 11.9339 4.9705C14.6083 4.34317 17.3917 4.34317 20.0661 4.9705C23.7693 5.83916 26.6608 8.73068 27.5295 12.4339C28.1568 15.1083 28.1568 17.8917 27.5295 20.5661C26.6608 24.2693 23.7693 27.1608 20.0661 28.0295C17.3917 28.6568 14.6083 28.6568 11.9339 28.0295C8.23068 27.1608 5.33917 24.2693 4.4705 20.5661C3.84317 17.8917 3.84317 15.1083 4.4705 12.4339Z" fill="white" fill-opacity="0.15" stroke="#130F26" stroke-width="3"/>
<path fill-rule="evenodd" clip-rule="evenodd" d="M19.3334 19.8333L15.5486 17.4252V12.5" fill="white" fill-opacity="0.15"/>
<path d="M19.3334 19.8333L15.5486 17.4252V12.5" stroke="#130F26" stroke-width="3" stroke-linecap="round" stroke-linejoin="round"/>
</svg>
