<svg width="20" height="21" viewBox="0 0 20 21" fill="none" xmlns="http://www.w3.org/2000/svg">
<path d="M19.1194 7.97475L18.3992 7.25475C18.1191 6.97475 17.959 6.59475 17.959 6.19575V5.16475C17.959 3.50475 16.6085 2.15575 14.9479 2.15575H13.9176C13.5174 2.15575 13.1373 1.99475 12.8572 1.71475L12.1269 0.985753C10.9465 -0.184247 9.03579 -0.184247 7.86537 0.994753L7.14511 1.71475C6.865 1.99475 6.48487 2.15575 6.08472 2.15575H5.05435C3.39375 2.15575 2.04326 3.50475 2.04326 5.16475V6.18475C2.04326 6.59475 1.8832 6.97475 1.6031 7.25475L0.872832 7.98575C-0.297592 9.16475 -0.287588 11.0758 0.882836 12.2448L1.6031 12.9548C1.8832 13.2448 2.04326 13.6248 2.04326 14.0258V15.0548C2.04326 16.7148 3.39375 18.0658 5.05435 18.0658H6.08472C6.48487 18.0658 6.865 18.2248 7.14511 18.5048L7.87537 19.2358C8.46558 19.8158 9.23586 20.1048 10.0061 20.1048C10.7764 20.1048 11.5467 19.8158 12.1369 19.2248L12.8572 18.5048C13.1373 18.2248 13.5174 18.0658 13.9176 18.0658H14.9479C16.6085 18.0658 17.959 16.7148 17.959 15.0548V14.0258C17.959 13.6248 18.1191 13.2448 18.3992 12.9648L19.1094 12.2548C19.1194 12.2448 19.1294 12.2358 19.1395 12.2248C19.6997 11.6558 20.0098 10.8948 19.9998 10.0948C19.9998 9.29475 19.6897 8.53475 19.1194 7.97475Z" fill="#70BF7B"/>
<path d="M14.1802 8.34864L9.43019 13.0986C9.26019 13.2686 9.04019 13.3486 8.81019 13.3486C8.59019 13.3486 8.37019 13.2686 8.20019 13.0986L5.82019 10.7286C5.48019 10.3786 5.48019 9.82864 5.82019 9.48864C6.16019 9.14864 6.72019 9.14864 7.06019 9.48864L8.81019 11.2386L12.9402 7.10864C13.2802 6.76864 13.8402 6.76864 14.1802 7.10864C14.5202 7.45864 14.5202 8.00864 14.1802 8.34864Z" fill="white"/>
</svg>
