<svg width="20" height="18" viewBox="0 0 20 18" fill="none" xmlns="http://www.w3.org/2000/svg">
<path d="M19.1666 2.50838C19.1666 2.50838 17.8499 2.67505 16.5499 2.78338C16.048 2.20631 15.381 1.79729 14.6391 1.61165C13.8972 1.42601 13.1162 1.47271 12.4017 1.74542C11.6871 2.01814 11.0736 2.50371 10.6441 3.13648C10.2145 3.76924 9.98967 4.51866 9.99992 5.28338V6.11671C8.5347 6.15376 7.08309 5.82769 5.77447 5.16756C4.46586 4.50744 3.34091 3.53378 2.49992 2.33338C2.49992 2.33338 -0.833415 9.83338 6.66659 13.1667C4.95239 14.336 2.90645 14.9206 0.833252 14.8334C8.33325 19 17.4999 14.8334 17.4999 5.21671C17.4984 4.98463 17.4761 4.75315 17.4333 4.52505C18.0561 3.89287 18.6352 3.2191 19.1666 2.50838Z" stroke-width="1.5" stroke-linecap="round" stroke-linejoin="round"/>
</svg>
